<svg width="201" height="195" viewBox="0 0 201 195" fill="none" xmlns="http://www.w3.org/2000/svg">
<rect x="1.01096" y="0.120793" width="199.428" height="194.758" rx="5.91887" fill="white"/>
<rect x="1.01096" y="0.120793" width="199.428" height="194.758" rx="5.91887" stroke="#ECECEC" stroke-width="0.241587"/>
<path d="M127.04 146.358C127.04 151.933 134.887 156.453 144.566 156.453C151.633 156.453 157.718 154.046 160.491 150.575L160.598 150.604L164.277 151.589C164.207 151.696 164.168 151.82 164.166 151.948C164.166 151.984 164.166 152.023 164.166 152.066C164.128 152.23 164.125 152.399 164.16 152.564C164.194 152.728 164.264 152.883 164.365 153.018C164.594 153.221 164.861 153.378 165.153 153.479C165.444 153.58 165.752 153.624 166.061 153.608C167.047 153.608 167.819 153.112 167.83 152.684C167.83 151.966 167.812 151.783 167.735 151.668C167.562 151.456 167.329 151.298 167.065 151.215C166.698 150.8 166.179 150.543 165.62 150.496C165.252 150.396 163.085 149.846 161.282 149.386C161.807 148.458 162.085 147.417 162.092 146.358C162.092 140.782 154.245 136.262 144.566 136.262C134.887 136.262 127.04 140.771 127.04 146.358ZM153.781 150.46C153.778 150.528 153.747 150.592 153.697 150.639C153.646 150.686 153.579 150.712 153.509 150.712H153.491C153.454 150.71 153.419 150.7 153.386 150.685C153.354 150.669 153.325 150.647 153.301 150.62C153.277 150.594 153.259 150.563 153.247 150.529C153.235 150.495 153.231 150.46 153.233 150.424L153.296 149.53C153.475 149.575 153.659 149.603 153.844 149.613L153.781 150.46ZM166.948 152.181C167.053 152.096 167.132 151.984 167.176 151.858L167.264 151.923C167.304 152.16 167.314 152.401 167.293 152.641C167.133 152.795 166.94 152.913 166.729 152.986C166.517 153.06 166.292 153.088 166.068 153.069C165.589 153.097 165.118 152.941 164.755 152.634C164.685 152.566 164.711 152.235 164.722 152.113C164.722 152.063 164.722 152.016 164.722 151.973C164.722 151.93 164.722 151.851 164.913 151.765C164.964 151.926 165.059 152.07 165.189 152.181C165.319 152.292 165.479 152.366 165.649 152.393C165.79 152.425 165.935 152.44 166.079 152.44C166.391 152.454 166.697 152.363 166.948 152.181ZM153.237 148.912C153.251 148.614 153.383 148.333 153.605 148.129C153.807 148.007 154.112 148.1 154.41 148.19L154.627 148.254L155.22 148.405L161.062 149.893C163.692 150.557 165.263 150.971 165.476 151.021H165.528C165.786 151.047 166.036 151.124 166.263 151.247C166.395 151.309 166.507 151.403 166.591 151.52L166.613 151.563C166.616 151.582 166.616 151.602 166.613 151.621C166.615 151.647 166.61 151.673 166.598 151.696C166.586 151.719 166.569 151.739 166.547 151.754C166.426 151.823 166.293 151.867 166.154 151.884C166.015 151.901 165.875 151.889 165.741 151.851C165.658 151.843 165.58 151.81 165.518 151.756C165.455 151.703 165.411 151.632 165.391 151.553C165.359 151.437 165.283 151.338 165.178 151.276L164.932 151.201C163.994 150.931 160.745 150.076 160.708 150.065C159.848 149.835 155.54 148.696 155.19 148.628C155.128 148.623 155.065 148.623 155.003 148.628C154.889 148.625 154.776 148.651 154.675 148.702C154.574 148.754 154.488 148.83 154.425 148.923C154.399 148.96 154.368 148.994 154.333 149.023H154.237C154.032 149.05 153.825 149.05 153.619 149.023H153.561C153.432 149.009 153.307 148.971 153.193 148.912H153.237ZM150.776 151.894C150.808 151.957 150.814 152.03 150.792 152.097C150.77 152.164 150.722 152.22 150.658 152.253C149.374 152.911 147.185 153.252 144.938 153.252C143.218 153.275 141.505 153.049 139.853 152.58C139.784 152.559 139.726 152.511 139.692 152.448C139.658 152.384 139.651 152.311 139.673 152.242C139.696 152.174 139.745 152.117 139.811 152.084C139.876 152.051 139.952 152.045 140.023 152.066C143.146 153.047 148.193 152.907 150.401 151.775C150.465 151.748 150.538 151.745 150.604 151.767C150.671 151.789 150.727 151.834 150.761 151.894H150.776ZM142.557 151.028C142.568 150.958 142.607 150.894 142.666 150.852C142.724 150.809 142.798 150.791 142.87 150.802C144.196 151.03 145.554 151.003 146.869 150.723C146.904 150.714 146.941 150.713 146.977 150.718C147.013 150.723 147.047 150.735 147.078 150.754C147.109 150.772 147.136 150.796 147.158 150.825C147.179 150.853 147.195 150.886 147.204 150.92C147.212 150.955 147.214 150.991 147.209 151.026C147.203 151.061 147.191 151.094 147.172 151.125C147.153 151.155 147.128 151.181 147.099 151.203C147.07 151.224 147.037 151.239 147.001 151.247C146.278 151.414 145.537 151.496 144.794 151.492C144.122 151.487 143.45 151.435 142.785 151.337C142.714 151.325 142.65 151.286 142.607 151.228C142.565 151.17 142.547 151.098 142.557 151.028ZM149.952 145.24C149.952 146.954 147.542 148.344 144.566 148.344C141.59 148.344 139.18 146.954 139.18 145.24C139.18 143.526 141.59 142.136 144.566 142.136C147.542 142.136 149.952 143.523 149.952 145.237V145.24ZM135.237 139.869C136.646 139.064 138.18 138.547 139.305 138.489C139.378 138.488 139.449 138.514 139.503 138.563C139.557 138.611 139.59 138.677 139.596 138.748C139.597 138.784 139.592 138.819 139.579 138.852C139.567 138.885 139.548 138.916 139.523 138.942C139.498 138.968 139.469 138.989 139.436 139.004C139.403 139.019 139.367 139.027 139.331 139.028C138.294 139.082 136.83 139.582 135.513 140.336C135.471 140.36 135.424 140.372 135.376 140.372C135.315 140.373 135.256 140.353 135.208 140.317C135.159 140.281 135.124 140.231 135.108 140.173C135.092 140.116 135.096 140.055 135.119 140C135.143 139.945 135.184 139.899 135.237 139.869ZM134.398 142.406C135.869 141.03 138.621 139.607 141.388 139.531C141.46 139.53 141.531 139.557 141.584 139.606C141.637 139.655 141.668 139.722 141.671 139.794C141.672 139.829 141.666 139.865 141.654 139.898C141.641 139.931 141.621 139.962 141.596 139.987C141.571 140.013 141.541 140.034 141.508 140.048C141.475 140.062 141.439 140.07 141.402 140.07C138.794 140.139 136.142 141.529 134.78 142.794C134.73 142.842 134.663 142.869 134.593 142.869C134.537 142.87 134.482 142.854 134.436 142.824C134.39 142.793 134.354 142.75 134.333 142.7C134.312 142.649 134.308 142.594 134.32 142.54C134.332 142.487 134.361 142.439 134.402 142.402L134.398 142.406Z" fill="black"/>
<path d="M129.991 62.3237C129.931 62.2882 129.861 62.2758 129.792 62.2892C129.724 62.3025 129.664 62.3405 129.623 62.3956C129.076 63.1917 128.572 64.0156 128.115 64.8638C128.085 64.9267 128.081 64.9983 128.104 65.0639C128.127 65.1294 128.175 65.1837 128.238 65.2156C128.301 65.2475 128.374 65.2545 128.442 65.2351C128.51 65.2158 128.568 65.1716 128.604 65.1117C129.05 64.2832 129.542 63.4785 130.075 62.7009C130.096 62.6709 130.11 62.6372 130.116 62.6018C130.123 62.5664 130.122 62.53 130.115 62.4949C130.107 62.4597 130.092 62.4264 130.07 62.397C130.049 62.3676 130.022 62.3427 129.991 62.3237Z" fill="black"/>
<path d="M130.16 67.217C130.187 67.2209 130.214 67.2209 130.241 67.217C131.159 66.8916 132.032 66.4572 132.842 65.9236C132.874 65.9048 132.902 65.8797 132.924 65.85C132.946 65.8202 132.961 65.7865 132.969 65.7507C132.977 65.7149 132.978 65.6779 132.971 65.6419C132.964 65.606 132.949 65.5718 132.928 65.5414C132.907 65.5111 132.88 65.4853 132.848 65.4655C132.817 65.4458 132.781 65.4326 132.744 65.4266C132.707 65.4207 132.67 65.4222 132.633 65.4311C132.597 65.4399 132.563 65.4559 132.533 65.4781C131.767 65.9791 130.944 66.3892 130.079 66.6996C130.015 66.7179 129.96 66.7582 129.924 66.8131C129.888 66.868 129.873 66.9338 129.883 66.9982C129.893 67.0627 129.927 67.1215 129.978 67.1637C130.028 67.2059 130.093 67.2287 130.16 67.2278V67.217Z" fill="black"/>
<path d="M131.999 70.7558C132.522 70.8169 134.001 71.0433 134.015 71.0469H134.059C134.129 71.0467 134.195 71.0211 134.246 70.9752C134.297 70.9293 134.328 70.8664 134.334 70.799C134.339 70.7317 134.319 70.6647 134.276 70.6115C134.233 70.5582 134.172 70.5225 134.104 70.5115C134.041 70.5115 132.599 70.2816 132.066 70.2205C132.03 70.216 131.993 70.2186 131.958 70.2282C131.923 70.2377 131.89 70.254 131.862 70.2762C131.833 70.2983 131.81 70.3257 131.792 70.3569C131.775 70.388 131.764 70.4223 131.76 70.4576C131.752 70.5281 131.772 70.5989 131.817 70.6547C131.862 70.7105 131.927 70.7469 131.999 70.7558Z" fill="black"/>
<path d="M163.405 72.085C163.47 72.0844 163.532 72.0615 163.581 72.0204C166.267 69.8144 166.984 66.6313 165.605 63.0673C165.576 63.0049 165.524 62.9556 165.459 62.9295C165.394 62.9033 165.321 62.9023 165.256 62.9265C165.19 62.9508 165.137 62.9985 165.106 63.06C165.075 63.1215 165.069 63.1922 165.09 63.2577C166.403 66.642 165.759 69.5306 163.228 71.6072C163.186 71.6428 163.155 71.6904 163.141 71.7434C163.127 71.7965 163.129 71.8525 163.148 71.9041C163.168 71.9556 163.202 72.0002 163.248 72.0319C163.294 72.0636 163.349 72.0809 163.405 72.0814V72.085Z" fill="black"/>
<path d="M140.254 100.568C140.222 100.584 140.193 100.606 140.169 100.632C140.145 100.659 140.126 100.69 140.114 100.723C140.103 100.757 140.098 100.792 140.1 100.828C140.102 100.863 140.112 100.897 140.128 100.929C140.144 100.961 140.166 100.99 140.193 101.013C140.22 101.037 140.252 101.055 140.286 101.066C140.32 101.078 140.357 101.082 140.393 101.08C140.429 101.078 140.465 101.069 140.497 101.053C152.902 95.1289 165.859 92.8798 167.764 95.1971C167.92 95.3793 168.031 95.5936 168.089 95.824C168.147 96.0544 168.15 96.2946 168.099 96.5264C167.602 99.1348 161.981 102.343 161.922 102.375C161.87 102.405 161.828 102.451 161.805 102.506C161.782 102.561 161.778 102.622 161.794 102.68C161.81 102.737 161.845 102.788 161.893 102.824C161.942 102.86 162.001 102.879 162.062 102.878C162.111 102.879 162.16 102.867 162.202 102.842C162.441 102.706 168.088 99.4761 168.643 96.627C168.71 96.3187 168.705 95.9996 168.628 95.6935C168.551 95.3875 168.404 95.1024 168.198 94.8594C165.873 92.0391 152.295 94.8127 140.254 100.568Z" fill="black"/>
<path d="M177.509 122.365C176.729 121.693 174.117 119.549 173.187 120.174C172.664 120.533 172.639 121.801 172.639 123.856C172.639 125.009 172.639 126.935 172.33 127.09C172.021 127.244 171.013 126.271 170.369 125.653C169.398 124.708 168.776 124.136 168.257 124.215C167.521 124.327 167.617 125.581 167.849 127.632C167.933 128.376 168.051 129.396 167.967 129.587C167.797 129.64 166.819 129.227 164.343 126.68C164.321 126.647 164.292 126.619 164.258 126.599C164.224 126.578 164.186 126.564 164.146 126.559C164.107 126.555 164.066 126.558 164.028 126.57C163.99 126.582 163.955 126.602 163.925 126.628C163.895 126.655 163.872 126.687 163.857 126.723C163.841 126.76 163.834 126.799 163.836 126.838C163.838 126.877 163.848 126.915 163.866 126.95C163.884 126.985 163.91 127.015 163.942 127.039C165.936 129.08 167.286 130.115 167.959 130.115H168.048C168.133 130.102 168.214 130.069 168.284 130.018C168.353 129.967 168.409 129.901 168.445 129.824C168.603 129.5 168.533 128.793 168.393 127.567C168.287 126.651 168.092 124.941 168.338 124.744C168.61 124.7 169.442 125.502 169.975 126.03C170.976 127.003 171.844 127.826 172.517 127.6C173.19 127.373 173.187 126.091 173.183 123.849C173.183 122.642 173.183 120.817 173.492 120.616C173.86 120.357 175.699 121.517 177.138 122.771C177.192 122.819 177.264 122.843 177.337 122.839C177.41 122.835 177.479 122.803 177.528 122.75C177.576 122.696 177.602 122.626 177.597 122.555C177.593 122.483 177.56 122.416 177.506 122.369L177.509 122.365Z" fill="black"/>
<path d="M169.964 145.955C170.014 145.955 170.063 145.942 170.106 145.917C170.148 145.893 170.184 145.857 170.207 145.814C170.231 145.771 170.243 145.723 170.241 145.675C170.239 145.626 170.223 145.579 170.196 145.538C170.166 145.492 167.069 140.911 164.347 138.231C164.321 138.204 164.291 138.183 164.257 138.168C164.223 138.153 164.187 138.146 164.15 138.145C164.113 138.144 164.076 138.151 164.042 138.165C164.007 138.178 163.976 138.198 163.95 138.224C163.924 138.249 163.903 138.28 163.889 138.313C163.875 138.347 163.868 138.383 163.869 138.419C163.87 138.455 163.878 138.491 163.893 138.524C163.908 138.557 163.93 138.587 163.957 138.611C166.642 141.256 169.707 145.797 169.736 145.836C169.761 145.873 169.795 145.903 169.835 145.923C169.875 145.944 169.919 145.955 169.964 145.955Z" fill="black"/>
<path d="M170.56 143.038C170.533 143.014 170.501 142.996 170.466 142.985C170.431 142.973 170.395 142.968 170.358 142.971C170.321 142.973 170.286 142.982 170.253 142.998C170.22 143.014 170.191 143.036 170.166 143.063C170.142 143.09 170.124 143.121 170.112 143.155C170.1 143.189 170.095 143.225 170.098 143.26C170.1 143.296 170.11 143.331 170.126 143.363C170.142 143.395 170.165 143.424 170.192 143.447C171.082 144.198 172.819 146.749 172.837 146.774C172.862 146.812 172.897 146.843 172.937 146.864C172.978 146.885 173.023 146.897 173.069 146.896C173.123 146.897 173.175 146.882 173.22 146.853C173.277 146.814 173.316 146.755 173.331 146.689C173.345 146.622 173.333 146.552 173.297 146.494C173.231 146.358 171.506 143.843 170.56 143.038Z" fill="black"/>
<path d="M172.683 152.857V152.835C172.678 152.824 172.672 152.813 172.664 152.803C172.668 152.794 172.668 152.783 172.664 152.774C172.572 152.666 163.651 141.723 162.228 139.898C160.804 138.073 156.36 133.104 155.529 132.321C155.499 132.293 155.463 132.272 155.423 132.259C155.384 132.247 155.342 132.243 155.301 132.249C155.106 132.274 143.028 133.909 133.71 135.177C133.807 133.71 133.99 132.251 134.258 130.805C134.764 127.923 135.101 125.015 135.266 122.096C135.678 121.851 136.05 121.547 136.37 121.194C136.399 121.156 136.418 121.112 136.425 121.065C136.425 121.065 136.565 120.084 136.826 118.747C138.33 111.048 138.018 106.773 137.716 102.638L137.654 101.765C137.506 99.6772 137.264 97.8413 137.05 96.2209C137.006 95.8904 136.966 95.5742 136.925 95.2689C138.077 93.7459 139.32 92.2907 140.648 90.9109C141.406 90.1385 142.752 88.8343 144.327 87.3182C147.174 84.5661 150.717 81.1423 153.241 78.4621C155.664 75.9169 157.847 73.1633 159.763 70.2348C160.002 69.8755 160.23 69.5162 160.293 69.4731C162.081 68.1402 161.345 66.8001 160.329 64.9427C160.105 64.5331 159.851 64.066 159.594 63.5703C158.258 60.8613 151.798 52.1526 149.319 49.0413C146.839 45.93 144.121 42.4414 143.488 40.584C144.201 39.5491 144.465 38.2807 144.224 37.0559C143.959 35.3997 143.448 34.6488 142.671 33.5099L142.418 33.1506C141.986 32.6333 141.671 32.0337 141.491 31.3902C141.487 31.1408 141.497 30.8913 141.52 30.6429C141.553 30.1076 141.601 29.3711 141.583 28.6561C141.566 27.5881 141.458 26.5233 141.259 25.473C141.137 24.8874 140.817 24.1544 140.321 24.0359C140.21 24.0072 140.092 24.0114 139.984 24.0478C139.875 24.0843 139.78 24.1514 139.71 24.2407C139.342 24.661 139.324 25.5197 139.309 26.5077C139.309 26.7196 139.309 26.9316 139.309 27.14C139.276 28.0391 139.161 28.9336 138.967 29.813C138.915 29.7152 138.87 29.6144 138.831 29.5112C138.753 28.9441 138.745 28.3701 138.805 27.8011C138.831 27.6142 138.864 27.4418 138.897 27.237C139.056 26.4076 139.139 25.5659 139.143 24.7221C139.143 23.788 138.919 23.0766 138.485 22.7748C138.365 22.6898 138.221 22.6422 138.073 22.6383C137.997 22.4649 137.869 22.3183 137.705 22.218C137.603 22.1634 137.487 22.1404 137.371 22.152C137.255 22.1635 137.146 22.2091 137.058 22.2826C136.532 22.6886 135.387 24.7975 135.189 25.2574C134.953 25.7963 134.872 26.4717 134.854 28.1819C134.799 28.1995 134.747 28.2249 134.7 28.2573C134.601 28.3389 134.522 28.4416 134.471 28.5575C134.419 28.6734 134.395 28.7993 134.402 28.9256C134.323 28.7691 134.268 28.602 134.24 28.4298L134.221 28.322C133.946 26.6991 133.535 25.101 132.993 23.5437C132.279 21.4743 131.521 21.1258 131.153 21.1042C131.028 21.0939 130.903 21.1206 130.794 21.1809C130.685 21.2411 130.598 21.3321 130.543 21.4419C130.333 21.8695 130.362 22.0958 130.73 24.855L130.818 25.5197C131.186 28.2897 131.433 30.122 131.418 31.0094C131.418 31.1351 131.418 31.2644 131.418 31.3902C131.287 32.4648 131.589 33.5471 132.261 34.4081C133.592 36.2588 134.804 38.1896 135.888 40.1888C136.796 41.9456 139.644 46.8569 140.828 48.8401C142.013 50.8233 145.611 57.6171 146.608 59.7512C146.806 60.1751 147.06 60.7033 147.343 61.2853C148.293 63.2756 150.062 66.9761 150.014 67.4791C149.952 68.0432 147.553 70.1737 145.434 72.0491C144.838 72.5772 144.231 73.1269 143.635 73.655C140.67 76.328 137.164 78.2789 135.649 78.8788L134.972 79.1375C133.134 79.7779 131.41 80.6943 129.862 81.8536C128.758 82.6656 126.452 84.3685 125.521 83.7757C125.006 83.4165 123.792 77.8909 124.417 74.3305C124.623 74.3947 124.838 74.4274 125.054 74.4275C125.259 74.427 125.464 74.398 125.661 74.3412C126.063 74.2305 126.427 74.0143 126.713 73.7161C127.013 73.405 127.229 73.026 127.342 72.6131C127.427 72.253 127.461 71.8829 127.441 71.5138V71.4383C127.369 69.857 126.978 68.3052 126.29 66.872C126.283 66.8494 126.273 66.8277 126.26 66.8073V66.7893C126.006 66.2715 125.663 65.8 125.245 65.3954C124.934 65.1029 124.546 64.8997 124.124 64.8078C123.703 64.7159 123.263 64.739 122.854 64.8744C122.627 64.9491 122.413 65.0556 122.218 65.1906C120.165 61.3823 117.435 59.1117 114.146 58.4326C109.732 54.4304 99.3577 52.7058 90.8266 56.5069C82.027 60.4194 79.0767 65.1295 79.9449 73.8454C79.9949 74.3754 79.9329 74.9097 79.7626 75.4153C79.5924 75.9208 79.3176 76.3868 78.9553 76.7843C77.4396 78.5591 74.4157 79.7483 70.6633 80.0501C64.5308 80.5423 58.7405 81.0093 56.3162 88.1373C56.2976 88.191 56.2968 88.2491 56.314 88.3033C56.3311 88.3575 56.3654 88.405 56.4118 88.4391C56.4587 88.4729 56.5154 88.4912 56.5737 88.4912C56.632 88.4912 56.6887 88.4729 56.7356 88.4391C58.6392 87.2124 60.9012 86.627 63.1771 86.7721C65.5609 86.8799 66.3555 87.5769 66.3666 87.7673C66.3776 87.9577 65.4726 87.99 64.895 88.0331C63.0557 88.1732 59.9765 88.3924 57.6332 90.8139C57.5913 90.8573 57.5654 90.913 57.5594 90.9723C57.5535 91.0316 57.5678 91.0911 57.6001 91.1416C57.6325 91.1921 57.6811 91.2307 57.7384 91.2514C57.7956 91.272 57.8582 91.2736 57.9164 91.2558C58.1224 91.1911 60.0281 90.681 64.082 92.5133C67.61 94.112 70.2955 95.1898 73.6468 95.1898C74.7807 95.1836 75.9114 95.073 77.0239 94.8593C81.6665 94.0006 85.6543 90.8498 87.6923 86.4272C88.4906 84.7063 89.2374 82.7734 89.9585 80.9016C90.7567 78.8393 91.5808 76.7088 92.4563 74.9053C93.8837 71.9736 97.3712 67.2959 100.848 66.7893C100.623 69.3478 101.133 71.9167 102.319 74.2083C101.992 74.5421 101.803 74.9824 101.789 75.4442C101.697 76.8346 102.234 78.2501 103.651 80.3267C104.721 81.8967 105.696 82.2848 106.403 82.2848C106.759 82.2849 107.108 82.1838 107.407 81.9938C107.614 81.8571 107.796 81.6884 107.948 81.4944C108.582 82.2978 109.275 83.0566 110.019 83.765C111.196 84.8428 112.675 86.0499 114.36 86.7326C113.451 87.0918 112.303 87.4511 111.097 87.8104C109.029 88.4355 106.892 89.0858 105.578 89.8978C102.936 91.4638 100.687 93.589 98.9972 96.1168C97.8746 97.7593 96.8502 99.4639 95.9291 101.222C95.4803 102.052 95.0535 102.839 94.6047 103.554C93.3871 105.501 91.5403 107.958 88.8659 111.483C87.3429 113.484 86.368 114.86 85.6543 115.866C85.1356 116.585 84.7898 117.084 84.5176 117.411C83.8994 118.23 83.1093 118.911 82.1999 119.408L82.0528 119.477C81.0706 119.929 78.7713 120.993 73.0104 125.969C70.7112 127.959 69.144 129.375 67.8859 130.51C66.1642 132.066 65.0238 133.093 63.3316 134.404L63.2948 134.426C61.8969 134.067 61.0618 133.812 61.0544 133.812C61.0152 133.8 60.9737 133.796 60.9329 133.802C60.8922 133.807 60.8533 133.822 60.819 133.844C54.9845 137.67 34.4791 149.235 34.1443 149.426C34.11 149.443 34.0799 149.468 34.056 149.497C34.0555 149.506 34.0555 149.514 34.056 149.523V149.548C34.0397 149.582 34.0309 149.618 34.0302 149.656C34.0302 149.656 34.0302 149.656 34.0302 149.656C34.0779 152.083 34.4262 154.496 35.0677 156.841C35.0855 156.901 35.1246 156.953 35.178 156.988C49.0359 165.949 67.0251 170.141 91.7905 170.177H92.265C124.377 170.177 157.155 164.698 171.513 161.447C171.566 161.435 171.615 161.407 171.652 161.368C171.689 161.329 171.714 161.28 171.723 161.228C171.921 160.024 172.602 155.167 172.756 152.932C172.758 152.914 172.758 152.896 172.756 152.878C172.735 152.863 172.709 152.855 172.683 152.857ZM155.209 132.784C156.202 133.772 160.388 138.461 161.757 140.21C163.059 141.881 170.608 151.139 171.987 152.832C163.685 156.572 130.785 160.495 127.39 160.894C127.224 159.345 126.371 151.617 125.271 146.803C124.289 142.513 123.597 138.206 123.431 137.103L125.672 136.79L126.636 136.657L133.456 135.727L155.209 132.784ZM108.087 109.902C108.179 110.15 108.275 110.394 108.371 110.621C109.276 112.758 109.789 115.035 109.886 117.346C110.061 119.533 109.577 121.722 108.496 123.644C108.475 123.676 108.461 123.713 108.455 123.75C108.45 123.788 108.452 123.827 108.463 123.863C108.474 123.9 108.493 123.934 108.518 123.963C108.543 123.992 108.575 124.016 108.61 124.032C108.926 124.18 109.239 124.312 109.544 124.445C109.243 124.92 108.389 126.098 106.355 127.905C105.693 128.494 104.677 129.27 103.5 130.169C100.314 132.604 95.9659 135.917 93.5085 139.366C91.6948 139.366 89.8297 139.341 87.9131 139.294L87.8468 138.367C87.8468 138.367 87.8468 138.367 87.8468 138.346C87.8478 138.333 87.8478 138.319 87.8468 138.306C87.848 138.294 87.848 138.282 87.8468 138.27V138.249C87.839 138.234 87.8276 138.222 87.8137 138.213L87.788 138.191H87.7549H87.7107H87.6887C87.6717 138.187 87.6541 138.187 87.6372 138.191C81.9277 138.191 75.6738 137.196 71.2336 136.312C72.5947 135.421 74.5077 134.412 77.0975 133.046L78.775 132.163C85.9964 128.34 88.5936 126.86 89.7414 125.624C90.5057 124.731 91.2228 123.8 91.8898 122.836C92.4225 122.053 93.0023 121.302 93.6262 120.587C94.513 119.633 95.3433 118.63 96.113 117.583C96.5361 117.041 97.0217 116.423 97.5845 115.708C98.5888 114.436 99.8801 112.834 101.263 111.109C102.864 109.115 104.515 107.049 106.02 105.149C106.55 104.477 106.969 103.931 107.307 103.475C107.01 105.647 107.278 107.858 108.087 109.902ZM120.176 136.093L120.912 133.219C122.567 133.395 124.248 133.539 125.933 133.578L125.378 136.298L124.988 136.355C123.374 136.417 121.758 136.33 120.161 136.093H120.176ZM122.843 136.883L122.718 137.505C112.417 138.658 103.956 139.362 94.1853 139.384C96.6317 136.122 100.774 132.953 103.838 130.611C104.519 130.09 105.144 129.612 105.678 129.173C110.134 133.848 116.298 136.618 122.832 136.883H122.843ZM119.628 136.007C117.879 135.714 116.169 135.232 114.529 134.57L115.408 132.127C116.988 132.64 118.62 132.988 120.275 133.165H120.356L119.628 136.007ZM114.021 134.34C112.739 133.784 111.508 133.122 110.342 132.36L111.281 130.118C112.398 130.864 113.608 131.468 114.882 131.915L114.021 134.34ZM109.883 132.048L109.68 131.908L110.696 129.684L110.832 129.784L109.883 132.048ZM109.224 131.581C108.105 130.759 107.063 129.843 106.108 128.843C106.333 128.66 106.542 128.484 106.723 128.322C107.285 127.823 107.756 127.37 108.157 126.964C108.735 127.846 109.441 128.642 110.254 129.324L109.224 131.581ZM87.3723 139.596C87.3769 139.663 87.4069 139.726 87.4566 139.773C87.5063 139.819 87.572 139.846 87.6408 139.847C89.712 139.901 91.6875 139.93 93.6372 139.93H93.6961C103.776 139.93 112.395 139.212 122.979 138.022H123.023C123.306 139.761 123.928 143.354 124.749 146.936C125.355 149.591 125.885 153.144 126.268 156.043C126.65 158.943 126.879 161.185 126.882 161.224L126.904 161.616C111.693 163.211 94.6967 164.515 69.4162 161.706L69.3831 161.271C81.3685 148.642 86.0075 141.604 87.3576 139.355L87.3723 139.596ZM125.974 136.219L126.489 133.603H126.735L126.349 136.165L125.981 136.215L125.974 136.219ZM126.915 136.089L127.283 133.618C129.317 133.637 131.346 133.437 133.335 133.021C133.229 133.756 133.162 134.496 133.132 135.238L126.912 136.089H126.915ZM133.695 130.7C133.596 131.311 133.504 131.89 133.419 132.443C129.24 133.406 124.664 133.093 120.334 132.608C114.779 131.983 110.604 129.835 108.544 126.554C109.109 125.978 109.613 125.347 110.048 124.672C112.616 125.772 115.393 126.331 118.197 126.31C119.9 126.291 121.601 126.164 123.288 125.929C127.967 125.326 132.301 123.774 134.674 122.416C134.497 125.194 134.167 127.961 133.684 130.704L133.695 130.7ZM137.047 101.186C137.047 101.384 137.08 101.578 137.094 101.779L137.157 102.656C137.459 106.755 137.768 110.994 136.274 118.625C136.053 119.76 135.906 120.637 135.88 120.892C134.722 122.207 129.189 124.632 123.222 125.397C117.126 126.181 113.778 125.782 109.114 123.68C110.145 121.72 110.601 119.519 110.431 117.321C110.33 114.952 109.802 112.62 108.871 110.43C108.779 110.189 108.683 109.949 108.591 109.712C107.635 107.379 107.413 104.821 107.955 102.365C108.325 101.805 108.655 101.222 108.945 100.618C109.14 100.227 109.364 99.7849 109.68 99.1814C110.784 97.2054 112.149 95.1503 113.727 92.7683L114.433 91.7085C114.774 92.2077 115.203 92.6443 115.699 92.9983C116.397 93.4888 117.237 93.7504 118.097 93.7456C118.649 93.7409 119.197 93.6499 119.72 93.4761C122.994 92.4234 125.216 90.5337 126.205 88.087C131.631 93.3719 134.975 97.4281 137.036 101.19L137.047 101.186ZM138.033 24.988C138.146 24.6684 138.228 24.3387 138.275 24.0035C138.302 23.7647 138.302 23.5238 138.275 23.285C138.535 23.7043 138.649 24.1948 138.599 24.6826C138.596 25.4974 138.518 26.3104 138.364 27.1113C138.327 27.316 138.294 27.5029 138.268 27.6969C138.195 28.3502 138.213 29.0101 138.323 29.6585C138.42 29.9096 138.544 30.1504 138.691 30.377H137.738C137.612 29.5226 137.544 28.6608 137.536 27.7975C137.554 26.8438 137.718 25.8981 138.021 24.9915L138.033 24.988ZM135.678 25.455C135.925 24.8909 137.017 22.9724 137.381 22.6922C137.392 22.6829 137.405 22.6756 137.418 22.6706C137.525 22.6886 137.786 23.1628 137.727 23.9604C137.681 24.2573 137.607 24.5495 137.506 24.8335C137.175 25.8002 136.995 26.8104 136.973 27.8298C136.975 28.4926 137.016 29.1547 137.094 29.813C136.807 29.2333 136.361 28.7423 135.807 28.3939C135.676 28.3133 135.537 28.247 135.391 28.1963C135.395 26.5723 135.465 25.9149 135.678 25.455ZM126.779 84.2931C127.82 83.9697 129.049 83.1255 130.189 82.2884C131.699 81.1591 133.379 80.2669 135.17 79.6441L135.855 79.3818C137.403 78.7675 141.005 76.7771 144.007 74.0538C144.603 73.5185 145.21 72.976 145.802 72.4515C148.786 69.8036 150.478 68.2731 150.559 67.5402C150.618 67.0013 149.69 64.9355 147.84 61.0733C147.564 60.4913 147.31 59.9667 147.104 59.5428C146.074 57.3405 142.429 50.561 141.24 48.5706C140.052 46.5802 137.22 41.6977 136.315 39.9481C135.215 37.9238 133.986 35.9691 132.636 34.0955C132.339 33.7178 132.121 33.2868 131.995 32.8269C131.869 32.367 131.836 31.8874 131.9 31.4153C131.9 31.2824 131.9 31.1495 131.9 31.0165C131.9 30.0896 131.668 28.243 131.297 25.4478L131.208 24.7832C130.863 22.1964 130.841 21.9485 130.973 21.6719C130.973 21.6467 131.017 21.6395 131.054 21.6395C131.3 21.6395 131.863 22.1066 132.419 23.7161C132.952 25.2464 133.356 26.817 133.625 28.4118L133.644 28.5232C133.739 29.0801 133.953 29.3855 134.519 30.201L134.574 30.2836L134.663 30.6034C134.185 30.6501 133.772 30.7004 133.471 30.7543C133.402 30.7653 133.34 30.8012 133.298 30.8549C133.255 30.9085 133.235 30.9759 133.241 31.0436C133.247 31.1112 133.279 31.1742 133.33 31.2198C133.382 31.2654 133.449 31.2903 133.519 31.2896H133.57C133.879 31.2357 134.306 31.1818 134.806 31.1351C135.078 32.0318 135.275 32.9486 135.395 33.8764C135.401 33.9469 135.436 34.0122 135.491 34.0584C135.546 34.1047 135.617 34.1283 135.689 34.1243C135.725 34.1215 135.761 34.1118 135.793 34.0957C135.826 34.0796 135.854 34.0574 135.878 34.0303C135.902 34.0033 135.92 33.9719 135.931 33.9381C135.942 33.9043 135.946 33.8687 135.943 33.8332C135.812 32.8335 135.598 31.8458 135.303 30.88L135.273 30.7722C135.167 30.413 135.071 30.0537 134.994 29.7196C134.817 29.001 134.913 28.7352 134.964 28.6992C135.016 28.6633 135.141 28.6705 135.476 28.8717C136.157 29.3434 136.654 30.0276 136.885 30.8118C136.907 30.8764 136.929 30.9411 136.951 31.0094C137.235 31.8026 137.736 32.5047 138.4 33.0393C140.792 34.7674 141.818 36.8224 141.45 39.1469C141.444 39.1821 141.446 39.218 141.454 39.2526C141.463 39.2872 141.478 39.3199 141.5 39.3486C141.522 39.3773 141.549 39.4016 141.58 39.42C141.611 39.4384 141.646 39.4506 141.682 39.4559H141.726C141.791 39.4558 141.855 39.433 141.905 39.3916C141.955 39.3501 141.988 39.2927 141.998 39.2295C142.403 36.6895 141.303 34.4584 138.735 32.6009C138.205 32.1625 137.793 31.6037 137.536 30.9734C138.121 30.9734 138.68 30.9519 139.166 30.9555C139.556 30.9555 139.901 30.9555 140.174 30.9842C140.247 30.9842 140.317 30.9558 140.369 30.9053C140.42 30.8548 140.449 30.7862 140.449 30.7148C140.449 30.6433 140.42 30.5748 140.369 30.5242C140.317 30.4737 140.247 30.4453 140.174 30.4453C139.923 30.4453 139.622 30.4202 139.287 30.4166C139.583 29.3521 139.749 28.257 139.78 27.1544C139.78 26.9424 139.78 26.7268 139.78 26.5113C139.78 25.7388 139.802 24.8622 140.045 24.5892C140.057 24.5725 140.074 24.559 140.093 24.5496C140.188 24.5496 140.497 24.9089 140.637 25.5808C140.831 26.6014 140.937 27.6361 140.953 28.6741C140.972 29.3639 140.928 30.086 140.895 30.6142C140.857 30.9173 140.857 31.2236 140.895 31.5267C141.077 32.2252 141.405 32.8795 141.858 33.4488L142.112 33.8081C142.874 34.9254 143.334 35.6045 143.584 37.135C143.907 39.1864 142.929 40.3002 142.888 40.3469C142.857 40.381 142.836 40.4223 142.825 40.467C142.815 40.5116 142.816 40.558 142.83 40.6019C143.4 42.5133 146.207 46.1276 148.797 49.3682C151.269 52.4615 157.688 61.1236 159.012 63.7966C159.263 64.3068 159.52 64.7738 159.748 65.1906C160.852 67.1773 161.22 68.0252 159.862 69.0384C159.605 69.3096 159.384 69.6114 159.204 69.9366C157.322 72.8383 155.178 75.569 152.795 78.0956C150.279 80.765 146.74 84.2033 143.9 86.9337C142.337 88.4427 140.99 89.7469 140.221 90.5265C139.01 91.7826 137.869 93.1019 136.804 94.4785C136.631 93.0162 136.554 91.845 136.734 91.0762C136.744 91.0412 136.746 91.0048 136.741 90.9689C136.736 90.9331 136.723 90.8986 136.704 90.8675C136.685 90.8365 136.66 90.8095 136.63 90.7881C136.6 90.7668 136.566 90.7516 136.53 90.7434C136.494 90.7352 136.457 90.7342 136.42 90.7404C136.384 90.7466 136.349 90.7599 136.318 90.7796C136.287 90.7992 136.26 90.8248 136.239 90.8548C136.218 90.8848 136.204 90.9185 136.197 90.954C135.925 92.1001 136.156 93.8533 136.476 96.2748C136.624 97.3742 136.782 98.5778 136.914 99.8891C134.773 96.3251 131.481 92.4522 126.426 87.5194C126.748 86.4748 126.868 85.3806 126.779 84.2931ZM125.786 67.0911C126.445 68.4543 126.821 69.9321 126.89 71.4383C126.842 71.6323 126.739 71.7688 126.632 71.776C126.389 71.776 125.812 71.2982 125.161 69.3869C124.59 67.6588 124.852 66.7067 125.12 66.5845C125.256 66.5342 125.506 66.6672 125.782 67.0911H125.786ZM123.012 65.3846C123.2 65.3236 123.396 65.2921 123.593 65.2912C124.063 65.2948 124.513 65.4734 124.852 65.7906C124.937 65.8702 125.018 65.9541 125.094 66.042C125.028 66.052 124.964 66.0714 124.903 66.0995C124.193 66.4265 124.09 67.8492 124.653 69.5557C125.252 71.3521 125.929 72.3185 126.621 72.3185H126.658C126.723 72.3144 126.788 72.3011 126.849 72.279C126.834 72.3509 126.82 72.4155 126.805 72.473C126.725 72.7889 126.563 73.0794 126.335 73.3166C126.107 73.5538 125.82 73.7297 125.503 73.8275C125.124 73.9363 124.717 73.9069 124.359 73.7448L124.307 73.7197C124.166 73.6489 124.036 73.5594 123.921 73.4538C123.825 73.3645 123.739 73.2658 123.663 73.1592C122.784 71.9844 121.787 69.006 121.721 67.3678C121.71 67.1889 121.719 67.0095 121.747 66.8324C121.804 66.5025 121.951 66.1937 122.173 65.9389C122.396 65.684 122.684 65.4925 123.008 65.3846H123.012ZM101.392 66.5199C101.567 65.1198 102.121 63.7905 102.996 62.6685C103.691 61.8124 104.557 61.1034 105.542 60.5847C108.459 59.0039 111.361 58.4291 113.937 58.9428C117.137 59.5715 119.771 61.799 121.765 65.5534C121.465 65.8869 121.264 66.2945 121.184 66.7318C121.184 66.7318 121.184 66.7678 121.184 66.7857C120.117 64.4217 117.796 60.9009 113.289 60.1428C106.373 58.9823 101.403 64.1954 102.422 69.8431C102.661 71.1552 103.011 72.4458 103.467 73.7017C103.212 73.7227 102.962 73.7884 102.731 73.8957C101.561 71.6164 101.095 69.0533 101.392 66.5199ZM107.061 81.5447C106.653 81.8069 105.534 82.1878 104.067 80.0285C102.4 77.5855 102.227 76.3568 102.293 75.4801C102.29 75.3152 102.321 75.1512 102.384 74.9982C102.447 74.8451 102.541 74.7062 102.661 74.5896C102.78 74.4731 102.923 74.3815 103.08 74.3203C103.237 74.2591 103.405 74.2295 103.574 74.2335C103.629 74.2335 103.695 74.2335 103.754 74.2335C104.023 75.099 104.367 75.9404 104.784 76.7484C105.572 78.2645 106.499 79.7075 107.554 81.0596C107.422 81.2499 107.255 81.4144 107.061 81.5447ZM115.077 86.9984C115.698 87.1871 116.344 87.2851 116.994 87.2894C118.085 87.2824 119.156 87.0002 120.102 86.4703C123.752 84.5015 123.446 79.5435 123.303 77.1615C123.298 77.0901 123.265 77.0232 123.21 76.9757C123.155 76.9282 123.083 76.904 123.01 76.9082C122.937 76.9125 122.869 76.945 122.82 76.9986C122.771 77.0522 122.747 77.1224 122.751 77.1939C122.891 79.4645 123.178 84.1961 119.837 85.9996C116.983 87.5409 113.951 86.7182 110.361 83.3734C109.555 82.6032 108.809 81.7745 108.132 80.8944L108.113 80.8692C107.033 79.5 106.088 78.0349 105.288 76.4933C104.39 74.7221 103.934 73.1916 103.934 71.9449C103.927 70.0118 104.607 68.1363 105.858 66.6384C106.082 67.6588 106.899 69.7246 109.905 70.7413C113.83 72.0742 117.788 70.8419 119.756 69.7821C120.165 71.0035 120.94 72.0765 121.982 72.861C122.289 73.0899 122.663 73.2159 123.049 73.2203C123.108 73.3137 123.167 73.3999 123.225 73.479C123.324 73.6086 123.435 73.7289 123.557 73.8383C123.67 73.9375 123.793 74.0254 123.924 74.1005C123.273 77.5747 124.355 83.6716 125.256 84.2284C125.483 84.3637 125.745 84.4323 126.01 84.426C126.099 84.4255 126.187 84.4195 126.275 84.4081C126.433 86.8727 125.694 91.0043 119.606 92.9623C118.27 93.3935 117.086 93.2569 116.078 92.5564C114.713 91.6079 113.801 89.6534 113.72 87.5266C114.198 87.3649 114.669 87.1852 115.077 86.9984ZM63.2065 135.083C63.365 135.017 63.5145 134.931 63.6516 134.828C65.3622 133.503 66.5063 132.468 68.239 130.905C69.4935 129.77 71.057 128.358 73.3525 126.371C79.0546 121.445 81.306 120.404 82.2662 119.962L82.417 119.893C83.401 119.359 84.2555 118.624 84.9222 117.738C85.2092 117.379 85.5587 116.901 86.0847 116.157C86.7947 115.155 87.7659 113.782 89.2852 111.788C91.9707 108.249 93.8212 105.785 95.0535 103.82C95.5097 103.101 95.9401 102.3 96.3926 101.459C97.3019 99.7236 98.3127 98.0406 99.4202 96.4185C101.068 93.9522 103.262 91.8785 105.84 90.3504C107.083 89.578 109.187 88.9385 111.218 88.3241C111.884 88.1229 112.531 87.9253 113.138 87.7277C113.202 88.9453 113.544 90.1335 114.139 91.2055L113.289 92.4665C111.693 94.8557 110.317 96.9215 109.209 98.9335C108.867 99.5478 108.643 100.011 108.448 100.392C108.327 100.636 108.216 100.856 108.08 101.078C108.085 100.222 107.977 99.3681 107.76 98.5383C107.74 98.4692 107.694 98.4105 107.63 98.3751C107.566 98.3397 107.49 98.3306 107.42 98.3496C107.349 98.3687 107.289 98.4144 107.253 98.4767C107.216 98.5391 107.207 98.6129 107.227 98.682C107.53 99.8204 107.595 101.007 107.418 102.171C107.013 102.774 106.436 103.554 105.483 104.757C103.982 106.658 102.326 108.709 100.73 110.714C99.3503 112.435 98.0591 114.044 97.0511 115.316C96.4846 116.035 95.999 116.653 95.5796 117.195C94.8238 118.222 94.0095 119.207 93.1406 120.145C92.4925 120.882 91.8917 121.657 91.3417 122.466C90.6868 123.413 89.9832 124.326 89.2337 125.203C88.0786 126.45 85.0473 128.121 78.4145 131.631L76.737 132.515C73.8197 134.052 71.7375 135.148 70.3212 136.154L70.2844 136.179C69.133 137.002 68.4451 137.764 68.0772 138.647V138.619C68.0648 138.584 68.0453 138.552 68.0198 138.525C67.9943 138.498 67.9633 138.476 67.9289 138.461C67.8944 138.446 67.8572 138.438 67.8195 138.438C67.7818 138.437 67.7444 138.444 67.7096 138.459C67.6748 138.473 67.6434 138.494 67.6173 138.521C67.5912 138.547 67.571 138.579 67.5578 138.613C67.5447 138.648 67.539 138.685 67.541 138.721C67.543 138.758 67.5527 138.794 67.5695 138.827C67.6725 139.075 67.8233 139.402 67.9889 139.772C68.5032 140.836 68.9528 141.929 69.3353 143.045C69.4712 143.846 69.5169 144.659 69.4714 145.47C69.4714 146.454 69.4494 147.385 69.6296 147.917C69.7718 148.314 69.944 148.701 70.1446 149.074C70.3081 149.328 70.4193 149.611 70.4721 149.907C70.4721 149.961 70.3617 149.983 70.3102 149.986C70.0258 149.976 69.7487 149.895 69.5048 149.752C69.261 149.609 69.0583 149.408 68.9159 149.167C68.3649 148.298 67.982 147.337 67.7866 146.332C67.7429 146.124 67.6838 145.918 67.61 145.718C67.4481 145.276 67.1097 144.522 66.6535 144.453L66.3224 144.396C65.9177 144.328 65.6749 144.284 65.4616 144.435C65.2482 144.586 63.5486 146.717 63.453 147.177C63.4272 147.306 63.3941 147.654 63.35 148.208L63.3242 148.531C63.2654 149.25 63.1844 150.198 63.1329 150.392C62.9524 150.956 62.5574 151.43 62.0293 151.718C61.9086 151.789 61.7696 151.825 61.6288 151.821C61.4879 151.817 61.3511 151.774 61.2347 151.696C61.3348 151.291 61.5133 150.908 61.7607 150.568C61.8785 150.388 61.9373 149.993 61.8785 148.509V148.412V148.208C61.8785 148.104 61.8785 147.999 61.8785 147.899V147.784C61.8785 147.442 61.849 147.065 61.8785 146.983C61.9842 146.698 62.1264 146.428 62.3015 146.178C62.7623 145.49 63.1075 144.734 63.3242 143.94C63.3334 143.906 63.3356 143.87 63.3308 143.835C63.326 143.801 63.3142 143.767 63.2961 143.737C63.278 143.706 63.2539 143.68 63.2253 143.658C63.1967 143.637 63.164 143.622 63.1292 143.613C63.0945 143.604 63.0582 143.601 63.0226 143.606C62.9869 143.611 62.9526 143.622 62.9215 143.64C62.8904 143.658 62.8632 143.681 62.8414 143.709C62.8196 143.737 62.8037 143.769 62.7945 143.803C62.5884 144.547 62.2631 145.253 61.8306 145.898C61.6275 146.185 61.4653 146.498 61.3487 146.828C61.3092 147.151 61.3092 147.478 61.3487 147.802V147.899C61.2935 148.125 61.2457 148.326 61.2089 148.499L61.1685 148.671C61.102 149.106 60.9654 149.528 60.7638 149.921L60.6645 150.105C60.4474 150.507 59.7852 151.729 59.5608 151.862C59.193 151.984 58.196 152.117 57.9459 151.908C57.9301 151.897 57.9195 151.88 57.9164 151.862C57.8723 151.682 58.1629 151.218 58.5234 150.888C58.7478 150.679 59.1267 149.828 59.6271 148.373C59.8551 147.73 60.0538 147.133 60.0869 147.008C60.2504 146.081 60.3206 145.142 60.2966 144.202C60.2928 144.131 60.2613 144.064 60.2086 144.015C60.1559 143.967 60.086 143.939 60.0133 143.94C59.9771 143.94 59.9414 143.948 59.9083 143.963C59.8752 143.977 59.8453 143.998 59.8204 144.024C59.7954 144.049 59.7759 144.079 59.7629 144.113C59.75 144.146 59.7438 144.181 59.7448 144.216C59.7684 145.105 59.7056 145.994 59.5572 146.871C59.5314 146.972 59.3475 147.532 59.1084 148.201C58.5345 149.842 58.2255 150.424 58.1372 150.511C58.0489 150.597 57.4014 151.19 57.3536 151.761C57.1214 151.856 56.8669 151.887 56.6178 151.851C56.6039 151.847 56.5911 151.84 56.5802 151.831C56.5694 151.821 56.5609 151.81 56.5553 151.797C56.3714 151.369 56.96 150.385 57.2469 149.911C57.3499 149.735 57.4345 149.598 57.4787 149.501C57.5743 149.289 57.7803 148.639 58.1445 147.392L58.2071 147.184C58.3137 146.825 58.4057 146.512 58.4535 146.365C58.5215 146.15 58.5683 145.93 58.5933 145.707C58.5933 145.567 58.6264 145.42 58.6412 145.262L58.6779 144.902C58.6779 144.755 58.7111 144.597 58.7368 144.432C58.7422 144.364 58.721 144.296 58.6774 144.243C58.6339 144.19 58.5713 144.155 58.5023 144.145C58.4332 144.134 58.3629 144.15 58.3054 144.189C58.2478 144.228 58.2075 144.286 58.1923 144.353C58.1666 144.529 58.1482 144.712 58.1335 144.849L58.0967 145.208C58.0967 145.341 58.0709 145.463 58.0562 145.567C57.9495 145.718 57.6884 146.081 57.3867 146.53C57.085 146.979 56.5295 147.766 56.1102 148.452C55.7423 149.074 55.2972 149.422 55.0764 149.433C55.0637 149.436 55.0503 149.435 55.0383 149.43C55.0263 149.424 55.0164 149.415 55.0102 149.404C54.6975 148.995 55.4075 147.083 55.8637 146.429L55.9777 146.264C56.5911 145.421 57.1359 144.532 57.6074 143.605C57.9312 142.941 59.2666 140.994 60.3371 139.427C61.334 137.972 61.9005 137.139 61.9888 136.912C62.5149 135.392 62.8386 135.242 63.2065 135.083ZM67.1796 146.128C66.6277 146.961 65.4358 147.723 63.9239 148.147C63.9754 147.5 64.0011 147.32 64.0085 147.281C64.1041 146.961 65.6124 145.039 65.7927 144.87C65.9426 144.872 66.0919 144.89 66.2378 144.924L66.5689 144.978C66.8291 145.23 67.0136 145.547 67.1023 145.894C67.1133 145.969 67.1391 146.048 67.1612 146.128H67.1796ZM53.2003 152.016C53.173 151.992 53.151 151.962 53.1356 151.929C53.1203 151.896 53.1119 151.861 53.1109 151.824C53.1099 151.788 53.1164 151.752 53.13 151.719C53.1435 151.685 53.1638 151.654 53.1898 151.629C53.2157 151.603 53.2467 151.582 53.2809 151.569C53.3151 151.555 53.3518 151.548 53.3888 151.548C53.4258 151.548 53.4624 151.556 53.4964 151.57C53.5303 151.584 53.561 151.605 53.5865 151.632C54.5283 152.53 56.6877 153.342 59.925 152.929C59.961 152.924 59.9976 152.927 60.0326 152.936C60.0676 152.945 60.1004 152.961 60.1291 152.983C60.1578 153.005 60.1818 153.031 60.1998 153.062C60.2178 153.093 60.2295 153.127 60.2341 153.162C60.2387 153.197 60.2361 153.233 60.2266 153.267C60.217 153.301 60.2007 153.333 60.1785 153.361C60.1563 153.389 60.1287 153.413 60.0972 153.43C60.0657 153.448 60.0309 153.459 59.9949 153.464C59.4193 153.538 58.8392 153.575 58.2586 153.575C55.7496 153.575 54.028 152.824 53.1782 152.016H53.2003ZM58.1592 154.308C58.1623 154.379 58.1366 154.449 58.0878 154.502C58.039 154.555 57.9709 154.587 57.898 154.592H57.5302C56.2485 154.577 54.9884 154.268 53.8514 153.69C53.7876 153.657 53.7393 153.601 53.7167 153.534C53.694 153.467 53.6988 153.395 53.73 153.331C53.7637 153.269 53.8211 153.222 53.8899 153.2C53.9587 153.179 54.0334 153.184 54.0979 153.216C55.2642 153.81 56.5691 154.096 57.8833 154.046C57.9511 154.052 58.0142 154.082 58.0609 154.13C58.1077 154.179 58.1348 154.242 58.1372 154.308H58.1592ZM42.4804 148.919H42.4436C42.3921 148.937 42.3473 148.97 42.3148 149.012C42.2724 149.065 42.2434 149.127 42.2302 149.192C42.2081 149.271 42.175 149.397 41.7115 149.462C41.4135 149.505 41.3032 149.462 41.2737 149.426C41.2443 149.39 41.2149 149.318 41.2075 149.228C41.413 149.089 41.631 148.969 41.8586 148.869L42.0867 148.754C42.2265 148.696 43.5582 148.341 46.8176 147.521C49.5436 146.835 52.3909 146.131 52.5234 146.084C52.6016 146.081 52.6795 146.096 52.7509 146.127C52.8224 146.158 52.8855 146.205 52.9354 146.264C53.0618 146.371 53.1409 146.522 53.1561 146.684C53.1377 146.756 52.9207 146.86 52.6595 146.922C52.5038 146.963 52.3427 146.983 52.1812 146.979C52.1408 146.979 52.104 146.925 52.0341 146.81C51.9642 146.695 51.7803 146.386 51.4381 146.48C51.0372 146.584 48.6827 147.198 46.4902 147.791C43.5251 148.592 42.7121 148.822 42.4583 148.908L42.4804 148.919ZM42.7894 150.256C42.4827 150.453 42.1182 150.546 41.752 150.521C41.3626 150.568 40.9696 150.472 40.6483 150.252C40.5637 150.177 40.5674 150.033 40.5858 149.839C40.5858 149.778 40.5858 149.724 40.5858 149.674C40.5858 149.623 40.6152 149.612 40.6741 149.573C40.7158 149.69 40.7912 149.792 40.8911 149.868C41.0586 149.986 41.2625 150.044 41.4687 150.033C41.5635 150.032 41.6582 150.025 41.752 150.011C42.2854 149.936 42.5208 149.76 42.6349 149.548C42.6607 149.564 42.6842 149.583 42.7048 149.605C42.7566 149.814 42.7777 150.03 42.7673 150.245L42.7894 150.256ZM53.009 147.407L53.123 148.01C53.1294 148.045 53.1286 148.081 53.1207 148.115C53.1129 148.15 53.0981 148.183 53.0773 148.212C53.0564 148.241 53.0299 148.266 52.9992 148.285C52.9686 148.304 52.9344 148.317 52.8986 148.323H52.8508C52.786 148.322 52.7235 148.3 52.6738 148.259C52.6242 148.218 52.5905 148.162 52.5786 148.1L52.4682 147.521C52.6448 147.496 52.8185 147.454 52.9869 147.396L53.009 147.407ZM60.9992 134.365C61.2347 134.433 61.7902 134.591 62.5921 134.807C62.2243 135.062 61.8895 135.525 61.4333 136.675C61.3782 136.808 60.9036 137.519 60.3628 138.31C53.4872 139.747 48.1788 143.257 46.8287 146.954L46.6521 146.997C42.0426 148.154 41.8697 148.244 41.8108 148.272L41.5864 148.387C41.2513 148.513 40.9477 148.708 40.6962 148.959C40.5242 148.996 40.3689 149.086 40.2525 149.215C40.1361 149.344 40.0648 149.506 40.0487 149.677C40.0487 149.713 40.0487 149.756 40.0487 149.803C40.0178 149.953 40.0237 150.109 40.0659 150.257C40.1081 150.405 40.1854 150.541 40.2915 150.654C40.6792 150.945 41.1609 151.091 41.649 151.064H41.7704C42.0242 151.064 43.2934 150.974 43.3375 150.309C43.3558 150.015 43.326 149.719 43.2492 149.433C43.2301 149.377 43.1987 149.325 43.1572 149.282C43.6612 149.142 44.6288 148.876 46.516 148.369C46.4742 148.807 46.4953 149.249 46.5785 149.681C47.4908 154.376 55.459 156.848 64.3763 155.199C73.2937 153.55 79.7867 148.402 78.8743 143.702C78.26 140.537 74.4378 138.382 69.2838 137.818C69.6635 137.397 70.0905 137.02 70.5567 136.693C74.9307 137.584 81.2655 138.633 87.1111 138.683C86.1657 140.343 81.7879 147.403 68.9969 160.883C54.8263 158.954 41.774 154.689 34.766 149.702C37.5435 148.111 55.4186 137.99 60.9992 134.365ZM71.6676 140.537C71.6734 140.502 71.6862 140.469 71.7053 140.439C71.7244 140.409 71.7494 140.383 71.7789 140.363C71.8083 140.343 71.8416 140.328 71.8768 140.32C71.912 140.313 71.9485 140.312 71.984 140.318C74.1067 140.677 75.9424 142.114 76.0785 143.552C76.0857 143.622 76.0638 143.693 76.0176 143.749C75.9714 143.804 75.9046 143.839 75.832 143.846H75.8026C75.734 143.846 75.6679 143.821 75.6175 143.776C75.567 143.731 75.5359 143.669 75.5303 143.602C75.4273 142.564 73.9411 141.213 71.892 140.857C71.8553 140.851 71.8201 140.839 71.7886 140.819C71.7571 140.8 71.73 140.774 71.709 140.745C71.688 140.715 71.6735 140.681 71.6663 140.645C71.6592 140.609 71.6597 140.573 71.6676 140.537ZM171.134 160.983C156.706 164.217 124.119 169.66 92.1915 169.66H91.7169C67.1133 169.62 49.2456 165.474 35.4907 156.615C34.9316 154.52 34.6072 152.372 34.5232 150.209C41.7152 155.271 54.4511 159.431 68.8093 161.393L68.8534 161.95C68.8594 162.012 68.8866 162.07 68.9307 162.115C68.9748 162.16 69.0331 162.189 69.0962 162.198C78.5847 163.29 88.1297 163.849 97.6839 163.872C108.952 163.872 118.366 163.035 127.191 162.108C127.261 162.1 127.326 162.066 127.372 162.013C127.417 161.961 127.441 161.893 127.438 161.824L127.416 161.429C130.914 161.023 163.427 157.182 172.09 153.37C171.918 155.623 171.362 159.651 171.145 160.983H171.134Z" fill="black"/>
<path d="M71.4285 173.389C70.9466 173.199 69.5119 172.897 67.5253 172.48C63.2433 171.578 56.776 170.22 53.0384 168.586C53.0052 168.57 52.9691 168.562 52.9325 168.56C52.8958 168.559 52.8591 168.564 52.8247 168.577C52.7903 168.589 52.7588 168.608 52.732 168.633C52.7052 168.658 52.6838 168.687 52.6688 168.72C52.6539 168.753 52.6458 168.788 52.645 168.824C52.6443 168.86 52.6508 168.895 52.6643 168.929C52.6779 168.962 52.6981 168.992 52.7238 169.018C52.7494 169.044 52.7801 169.064 52.814 169.078C56.6031 170.734 63.1145 172.103 67.4113 173.008C69.2948 173.403 70.7847 173.727 71.2262 173.888C71.2601 173.904 71.2968 173.912 71.334 173.913C71.3713 173.913 71.4083 173.907 71.4429 173.893C71.4774 173.88 71.5089 173.86 71.5352 173.834C71.5616 173.808 71.5824 173.778 71.5963 173.744C71.6102 173.71 71.617 173.674 71.6162 173.638C71.6155 173.601 71.6072 173.565 71.5918 173.532C71.5765 173.499 71.5544 173.469 71.527 173.445C71.4996 173.42 71.4673 173.401 71.4322 173.389H71.4285Z" fill="black"/>
<path d="M59.925 173.375L59.7337 173.339C58.9134 173.184 56.4228 172.71 54.5835 171.661C54.5205 171.624 54.4453 171.614 54.3742 171.631C54.3031 171.649 54.2421 171.693 54.2046 171.754C54.167 171.816 54.156 171.889 54.1739 171.959C54.1918 172.028 54.2373 172.088 54.3002 172.125C56.1984 173.224 58.7699 173.709 59.616 173.867L59.7999 173.903H59.8551C59.9221 173.901 59.9862 173.876 60.0353 173.831C60.0844 173.786 60.1152 173.726 60.122 173.661C60.1287 173.596 60.111 173.53 60.072 173.477C60.0331 173.424 59.9756 173.386 59.9103 173.371L59.925 173.375Z" fill="black"/>
<path d="M50.4706 119.858C51.6699 120.684 53.4136 121.101 55.6209 121.101C57.2298 121.082 58.8324 120.902 60.4033 120.562C64.082 119.804 67.919 118.151 71.9914 116.398C75.7474 114.781 79.6322 113.11 83.5022 112.126C83.5384 112.118 83.5726 112.103 83.6028 112.082C83.633 112.061 83.6585 112.034 83.6778 112.003C83.6971 111.972 83.7098 111.938 83.7152 111.902C83.7206 111.866 83.7185 111.83 83.7091 111.795C83.6997 111.76 83.6832 111.727 83.6605 111.698C83.6378 111.669 83.6094 111.646 83.577 111.628C83.5447 111.61 83.509 111.599 83.4721 111.595C83.4352 111.591 83.3979 111.595 83.3624 111.605C79.4482 112.6 75.5414 114.282 71.767 115.916C67.7203 117.655 63.9054 119.301 60.2892 120.048C56.0255 120.928 52.6558 120.709 50.8017 119.43C50.417 119.184 50.0909 118.859 49.8453 118.48C49.5997 118.1 49.4404 117.673 49.378 117.228C49.3732 117.192 49.3613 117.159 49.3431 117.128C49.3248 117.097 49.3006 117.07 49.2717 117.049C49.2429 117.027 49.2099 117.012 49.1748 117.003C49.1397 116.993 49.1031 116.991 49.0672 116.996C49.0312 117.001 48.9965 117.012 48.9651 117.03C48.9337 117.048 48.9062 117.072 48.8841 117.1C48.8621 117.128 48.846 117.16 48.8367 117.194C48.8274 117.229 48.8251 117.264 48.8299 117.299C48.9046 117.814 49.0893 118.308 49.3719 118.749C49.6546 119.189 50.0289 119.567 50.4706 119.858Z" fill="black"/>
<path d="M95.8886 123.698C95.8915 123.663 95.8872 123.627 95.8761 123.593C95.8649 123.56 95.847 123.528 95.8234 123.501C95.7758 123.447 95.708 123.413 95.6348 123.407C95.5616 123.402 95.4891 123.424 95.4332 123.471C95.3773 123.517 95.3427 123.584 95.3368 123.655C95.1234 126.228 92.7617 128.085 90.6501 128.965C90.5917 128.989 90.5436 129.033 90.5141 129.088C90.4845 129.142 90.4752 129.206 90.4877 129.266C90.5002 129.327 90.5338 129.382 90.5828 129.421C90.6319 129.461 90.6933 129.482 90.7567 129.483C90.7934 129.482 90.8297 129.475 90.8634 129.461C93.1443 128.52 95.6568 126.511 95.8886 123.698Z" fill="black"/>
<path d="M96.3374 126.188C96.2677 126.167 96.1921 126.173 96.1272 126.206C96.0624 126.239 96.0136 126.296 95.9916 126.364C95.6238 127.525 94.7114 128.48 93.2142 129.289C93.1793 129.304 93.1481 129.326 93.1224 129.353C93.0967 129.381 93.0772 129.413 93.065 129.449C93.0528 129.484 93.0483 129.522 93.0517 129.559C93.0551 129.596 93.0664 129.632 93.0847 129.664C93.1031 129.697 93.1282 129.726 93.1585 129.748C93.1888 129.771 93.2235 129.787 93.2606 129.796C93.2977 129.805 93.3362 129.807 93.3738 129.8C93.4114 129.794 93.4472 129.78 93.479 129.759C95.1087 128.883 96.102 127.823 96.5177 126.526C96.5396 126.458 96.5329 126.384 96.4991 126.32C96.4653 126.257 96.4072 126.21 96.3374 126.188Z" fill="black"/>
<path d="M34.9352 138.881C34.9506 138.811 34.9373 138.738 34.8981 138.678C34.8589 138.617 34.7969 138.574 34.7255 138.558C34.5048 138.507 34.2289 138.651 33.4306 139.107C32.8825 139.42 32.0805 139.88 31.6942 139.93C31.7716 139.475 31.8948 139.029 32.0621 138.597C32.43 137.519 32.7978 136.416 32.3785 135.896C31.9002 135.278 30.8371 135.799 29.715 136.352C29.0124 136.711 28.2178 137.088 27.7947 137.052C27.7759 137.054 27.7571 137.05 27.7402 137.042C27.7233 137.034 27.7091 137.021 27.6991 137.006C27.482 136.69 27.8683 135.464 28.1258 134.652C28.3189 134.145 28.4426 133.614 28.4937 133.075C28.4964 132.975 28.4749 132.876 28.4308 132.785C28.3866 132.695 28.3212 132.615 28.2399 132.554C27.78 132.217 26.8456 132.45 25.4293 132.802C25.0025 132.91 24.5427 133.025 24.0645 133.129C24.0272 133.135 23.9915 133.148 23.9597 133.168C23.9278 133.188 23.9005 133.214 23.8793 133.244C23.8581 133.275 23.8436 133.309 23.8366 133.345C23.8296 133.381 23.8302 133.419 23.8386 133.455C23.8469 133.491 23.8627 133.525 23.8849 133.554C23.9072 133.584 23.9355 133.609 23.9681 133.628C24.0006 133.646 24.0367 133.658 24.0742 133.663C24.1117 133.667 24.1497 133.664 24.1859 133.654C24.6715 133.546 25.135 133.431 25.5654 133.323C26.5476 133.079 27.6586 132.802 27.9088 132.985C27.9088 132.985 27.9419 133.011 27.9456 133.09C27.8733 133.569 27.75 134.04 27.5777 134.494C27.1546 135.831 26.8787 136.815 27.2098 137.307C27.2667 137.389 27.342 137.458 27.43 137.507C27.518 137.556 27.6163 137.585 27.7175 137.591C28.3024 137.642 29.0933 137.232 29.9247 136.833C30.6311 136.474 31.7016 135.96 31.9039 136.222C32.1062 136.485 31.7531 137.66 31.4992 138.432C31.1645 139.442 30.9989 139.984 31.2086 140.289C31.2467 140.343 31.2966 140.387 31.3546 140.418C31.4125 140.45 31.4771 140.469 31.5434 140.473H31.5986C32.0695 140.473 32.7611 140.113 33.6808 139.574C33.9773 139.389 34.2885 139.227 34.6115 139.089C34.6825 139.101 34.7554 139.087 34.8156 139.048C34.8757 139.009 34.9185 138.95 34.9352 138.881Z" fill="black"/>
<path d="M92.7911 157.854C92.8167 157.858 92.8427 157.858 92.8683 157.854C92.928 157.854 92.9861 157.835 93.0339 157.8C93.0816 157.765 93.1165 157.716 93.1332 157.66L94.7519 152.318C95.2595 152.264 95.7893 151.678 96.0578 150.82C96.3264 149.961 96.2271 149.138 95.8077 148.833L97.4852 143.293C97.5062 143.224 97.4984 143.15 97.4635 143.087C97.4287 143.024 97.3697 142.977 97.2994 142.957C97.2292 142.936 97.1535 142.944 97.089 142.978C97.0244 143.012 96.9764 143.07 96.9554 143.138L95.2632 148.721C94.7813 148.818 94.2884 149.386 94.0308 150.209C93.8925 150.615 93.8472 151.045 93.8984 151.47C93.9243 151.725 94.04 151.964 94.2258 152.145L92.6035 157.506C92.591 157.541 92.5861 157.578 92.5889 157.614C92.5917 157.651 92.6022 157.687 92.6198 157.72C92.6374 157.752 92.6617 157.781 92.6912 157.804C92.7206 157.827 92.7546 157.844 92.7911 157.854Z" fill="black"/>
<path d="M78.4255 157.854C80.3458 158.009 82.1815 158.088 83.9952 158.088C84.5507 158.088 85.0988 158.088 85.658 158.066C85.7081 158.065 85.7569 158.05 85.799 158.023C85.8411 157.997 85.875 157.959 85.8971 157.915C86.5617 156.596 87.1748 155.369 87.7365 154.236C87.759 154.196 87.7708 154.151 87.7708 154.105C87.7708 154.059 87.759 154.014 87.7365 153.974C87.7122 153.935 87.6776 153.902 87.6363 153.88C87.5949 153.858 87.5482 153.847 87.501 153.848C86.081 153.87 83.3771 153.884 81.2214 153.705C81.174 153.702 81.1267 153.71 81.0836 153.73C81.0405 153.749 81.0031 153.779 80.9749 153.816C79.588 155.691 78.5359 157.049 78.2489 157.409C78.2182 157.447 78.1986 157.492 78.1921 157.54C78.1857 157.588 78.1926 157.637 78.2122 157.682C78.2296 157.726 78.2584 157.765 78.2958 157.795C78.3331 157.825 78.3778 157.846 78.4255 157.854ZM81.3134 154.261C83.2521 154.412 85.5807 154.416 87.0449 154.402C86.5544 155.381 86.032 156.427 85.4777 157.538C83.308 157.587 81.1372 157.529 78.9737 157.362C79.4335 156.776 80.2759 155.663 81.3134 154.261Z" fill="black"/>
<path d="M82.13 152.925C83.6015 153.036 85.2901 153.065 86.6292 153.065C87.2141 153.065 87.7328 153.065 88.1411 153.065C88.1928 153.064 88.2432 153.049 88.2867 153.022C88.3303 152.995 88.3652 152.956 88.3876 152.911C88.8842 151.887 89.3294 150.949 89.7304 150.09C89.7502 150.049 89.7589 150.004 89.7556 149.959C89.7524 149.913 89.7374 149.87 89.712 149.832C89.6882 149.792 89.6536 149.759 89.612 149.738C89.5704 149.716 89.5235 149.706 89.4765 149.709C88.3398 149.727 86.1399 149.742 84.1607 149.62C84.1125 149.616 84.064 149.624 84.0205 149.645C83.977 149.666 83.9403 149.698 83.9142 149.738C83.2962 150.618 82.6267 151.553 81.9277 152.508C81.8995 152.548 81.8823 152.594 81.8778 152.641C81.8732 152.689 81.8816 152.737 81.902 152.781C81.9241 152.822 81.9567 152.857 81.9967 152.882C82.0366 152.908 82.0826 152.922 82.13 152.925Z" fill="black"/>
<path d="M84.9112 149.023C86.4121 149.142 88.1632 149.171 89.506 149.171H89.9916C90.0446 149.171 90.0966 149.157 90.1411 149.129C90.1857 149.1 90.2207 149.06 90.2417 149.013C90.6501 148.136 91.0032 147.356 91.3012 146.684C91.3196 146.643 91.3271 146.598 91.3232 146.554C91.3193 146.509 91.3041 146.466 91.2789 146.429C91.2537 146.391 91.2193 146.36 91.1789 146.339C91.1385 146.318 91.0933 146.307 91.0474 146.307C89.208 146.307 87.7365 146.289 86.4783 146.214C86.429 146.212 86.38 146.222 86.3362 146.244C86.2923 146.266 86.2551 146.299 86.2282 146.34C85.7536 147.058 85.2423 147.827 84.7052 148.603C84.6782 148.642 84.662 148.686 84.6581 148.733C84.6542 148.78 84.6628 148.826 84.6831 148.869C84.7041 148.912 84.7361 148.949 84.7761 148.976C84.8161 149.003 84.8627 149.019 84.9112 149.023ZM86.6071 146.76C87.7365 146.825 89.0572 146.846 90.6243 146.85C90.3791 147.384 90.1093 147.983 89.815 148.646C88.5826 148.646 86.9161 148.646 85.4262 148.535C85.8235 147.92 86.2208 147.331 86.5924 146.76H86.6071Z" fill="black"/>
<path d="M87.1552 145.61C88.4354 145.679 89.7561 145.693 90.7199 145.693H91.5329C91.5867 145.693 91.6391 145.677 91.6836 145.647C91.7282 145.618 91.7628 145.576 91.7831 145.528C92.4379 144.022 92.7249 143.268 92.7249 143.261C92.7411 143.221 92.7469 143.177 92.7418 143.135C92.7367 143.092 92.7207 143.051 92.6954 143.016C92.6709 142.981 92.6381 142.952 92.5997 142.931C92.5614 142.91 92.5185 142.899 92.4747 142.898L88.5017 142.794C88.4507 142.794 88.4008 142.808 88.3569 142.833C88.313 142.858 88.2766 142.894 88.2515 142.937C87.8836 143.602 87.4495 144.374 86.9271 145.204C86.9029 145.245 86.8901 145.29 86.8901 145.337C86.8901 145.384 86.9029 145.43 86.9271 145.47C86.9503 145.51 86.9832 145.544 87.023 145.568C87.0629 145.593 87.1083 145.607 87.1552 145.61ZM88.6672 143.332L92.0774 143.422C91.9413 143.756 91.7095 144.335 91.3417 145.15C90.4919 145.15 89.0645 145.15 87.6335 145.093C88.0344 144.453 88.3766 143.864 88.6672 143.332Z" fill="black"/>
<path d="M100.362 158.307C100.416 158.312 100.47 158.312 100.524 158.307C100.678 158.295 100.827 158.25 100.96 158.175C101.094 158.099 101.209 157.996 101.296 157.872C101.564 157.534 101.752 157.143 101.848 156.726C102.025 156.162 101.982 155.554 101.727 155.02C101.656 154.897 101.55 154.797 101.421 154.732L103.78 143.016C103.788 142.981 103.79 142.944 103.784 142.908C103.778 142.872 103.764 142.838 103.744 142.807C103.724 142.776 103.698 142.75 103.667 142.729C103.636 142.709 103.602 142.695 103.565 142.687C103.528 142.68 103.491 142.681 103.454 142.688C103.418 142.696 103.383 142.711 103.353 142.732C103.322 142.753 103.296 142.779 103.277 142.811C103.257 142.842 103.244 142.876 103.239 142.912L100.866 154.696C100.402 154.847 99.9757 155.44 99.7623 156.234C99.5306 157.283 99.7807 158.167 100.362 158.307ZM100.318 156.381C100.505 155.63 100.903 155.214 101.135 155.214C101.186 155.234 101.229 155.272 101.252 155.321C101.355 155.522 101.403 155.744 101.392 155.968C101.39 156.186 101.362 156.403 101.307 156.615C101.23 156.953 101.08 157.272 100.866 157.549C100.726 157.714 100.579 157.804 100.498 157.782C100.303 157.736 100.134 157.136 100.325 156.381H100.318Z" fill="black"/>
<path d="M108.544 148.513L108.087 157.581C108.085 157.617 108.091 157.652 108.103 157.685C108.115 157.719 108.133 157.75 108.158 157.776C108.182 157.802 108.211 157.824 108.244 157.839C108.277 157.854 108.312 157.863 108.349 157.865C108.419 157.865 108.487 157.839 108.539 157.791C108.59 157.744 108.621 157.679 108.624 157.61L109.081 148.456C109.507 148.233 109.838 147.593 109.912 146.774C109.989 145.869 109.721 145.122 109.261 144.899L109.371 142.679C109.373 142.643 109.368 142.608 109.356 142.574C109.344 142.541 109.325 142.51 109.301 142.484C109.277 142.457 109.247 142.436 109.215 142.421C109.182 142.405 109.146 142.397 109.11 142.395C109.037 142.393 108.967 142.418 108.913 142.466C108.858 142.513 108.825 142.579 108.819 142.65L108.709 144.877C108.242 145.05 107.874 145.725 107.797 146.595C107.749 147.02 107.799 147.451 107.944 147.856C107.987 148.002 108.063 148.138 108.166 148.252C108.27 148.366 108.399 148.455 108.544 148.513Z" fill="black"/>
<path d="M114.419 149.591L114.68 157.412C114.682 157.482 114.712 157.549 114.763 157.598C114.815 157.647 114.884 157.675 114.956 157.675C114.992 157.674 115.028 157.666 115.061 157.651C115.094 157.637 115.124 157.616 115.149 157.591C115.174 157.565 115.193 157.535 115.206 157.502C115.219 157.469 115.225 157.433 115.224 157.398L114.963 149.548C115.404 149.325 115.699 148.632 115.699 147.751C115.699 146.81 115.331 146.077 114.838 145.923L114.72 142.33C114.718 142.26 114.688 142.193 114.637 142.144C114.585 142.095 114.516 142.068 114.444 142.068C114.408 142.069 114.372 142.077 114.339 142.091C114.306 142.105 114.276 142.126 114.251 142.152C114.226 142.177 114.207 142.208 114.194 142.241C114.181 142.274 114.175 142.309 114.176 142.344L114.297 145.991C113.874 146.232 113.583 146.911 113.583 147.755C113.606 148.675 113.929 149.401 114.419 149.591Z" fill="black"/>
<path d="M119.061 151.147C119.175 152.059 119.602 152.734 120.117 152.857L120.647 157.06C120.655 157.125 120.687 157.185 120.737 157.229C120.787 157.273 120.852 157.297 120.919 157.297H120.963C120.999 157.293 121.034 157.281 121.065 157.264C121.097 157.246 121.125 157.223 121.147 157.195C121.169 157.167 121.185 157.135 121.195 157.101C121.204 157.066 121.207 157.031 121.202 156.995L120.665 152.749C121.07 152.472 121.283 151.746 121.176 150.899C121.07 150.051 120.683 149.379 120.216 149.21L119.256 141.611C119.247 141.54 119.21 141.476 119.152 141.432C119.095 141.387 119.022 141.368 118.949 141.376C118.876 141.385 118.81 141.421 118.765 141.477C118.72 141.534 118.699 141.605 118.708 141.676L119.664 149.242C119.205 149.479 118.954 150.234 119.061 151.147ZM119.926 149.709H119.97C120.176 149.709 120.533 150.198 120.625 150.967C120.717 151.736 120.492 152.289 120.294 152.336C120.095 152.361 119.723 151.872 119.624 151.082C119.525 150.291 119.756 149.731 119.926 149.709Z" fill="black"/>
<path d="M159.303 103.432C159.259 103.375 159.193 103.338 159.121 103.329C159.048 103.319 158.975 103.338 158.917 103.381C158.02 104.024 156.973 104.438 155.871 104.585C155.802 104.591 155.738 104.622 155.692 104.672C155.646 104.722 155.62 104.787 155.621 104.854C155.621 104.926 155.746 106.651 155.834 107.84C155.526 107.811 155.215 107.846 154.922 107.942C154.628 108.037 154.359 108.193 154.131 108.397C153.288 109.044 152.95 109.891 153.336 110.376C153.423 110.475 153.532 110.553 153.654 110.603C153.777 110.654 153.91 110.676 154.042 110.667C154.577 110.632 155.085 110.429 155.492 110.089C155.751 109.918 155.97 109.696 156.134 109.436C156.298 109.177 156.404 108.886 156.445 108.584C156.45 108.541 156.45 108.497 156.445 108.454V108.433C156.397 107.779 156.338 106.971 156.287 106.277C157.329 106.152 158.322 105.773 159.174 105.174C159.203 105.152 159.227 105.125 159.245 105.095C159.263 105.064 159.275 105.03 159.28 104.995C159.284 104.959 159.282 104.924 159.272 104.889C159.263 104.855 159.246 104.823 159.224 104.795C159.202 104.767 159.174 104.744 159.143 104.726C159.111 104.708 159.076 104.697 159.04 104.692C159.004 104.688 158.968 104.69 158.933 104.7C158.897 104.709 158.865 104.725 158.836 104.747C158.074 105.279 157.19 105.62 156.261 105.738C156.242 105.469 156.224 105.242 156.213 105.088C157.323 104.905 158.373 104.468 159.277 103.812C159.305 103.789 159.327 103.761 159.343 103.729C159.359 103.697 159.369 103.663 159.371 103.627C159.374 103.592 159.369 103.556 159.357 103.523C159.345 103.489 159.327 103.458 159.303 103.432Z" fill="black"/>
<path d="M45.633 110.689C45.0473 110.952 44.5682 111.398 44.2719 111.957C44.008 112.385 43.8494 112.867 43.8084 113.365C43.7713 113.57 43.7953 113.78 43.8775 113.971C43.9597 114.162 44.0967 114.326 44.2719 114.443C44.4008 114.515 44.5467 114.552 44.6949 114.551C44.9592 114.538 45.2142 114.452 45.4307 114.303C45.8503 114.026 46.198 113.657 46.446 113.225C46.7319 112.772 46.894 112.255 46.9169 111.724C46.9337 111.431 46.8364 111.144 46.6447 110.919C46.6347 110.903 46.6223 110.888 46.6079 110.876L46.5711 110.843L42.5576 107.279C43.3651 107.204 44.1411 106.935 44.8163 106.496C45.8942 105.903 46.6741 105.472 47.9139 106.733C47.9655 106.77 48.0287 106.788 48.0925 106.785C48.1564 106.781 48.2169 106.756 48.2638 106.713C48.3108 106.671 48.3411 106.614 48.3498 106.552C48.3584 106.49 48.3448 106.427 48.3112 106.374C46.7771 104.811 45.6441 105.436 44.5478 106.04C43.7495 106.478 42.9255 106.931 41.8218 106.687C41.7621 106.673 41.6995 106.679 41.6437 106.704C41.588 106.729 41.5424 106.772 41.5142 106.825C41.4859 106.878 41.4766 106.939 41.4877 106.998C41.4987 107.057 41.5296 107.11 41.5754 107.15L45.633 110.689Z" fill="black"/>
<path d="M126.849 55.6304C126.949 55.6291 127.049 55.6195 127.147 55.6017C127.57 55.5083 127.966 55.3201 128.302 55.052C128.788 54.7239 129.126 54.2262 129.248 53.6616C129.248 53.6616 129.457 51.5347 129.615 49.9827H129.877C130.877 49.9801 131.87 49.8237 132.82 49.5192L132.86 51.6749C132.668 51.6313 132.468 51.6313 132.275 51.6749C131.85 51.7667 131.453 51.955 131.116 52.2245C130.278 52.8712 129.936 53.7191 130.322 54.2041C130.409 54.3022 130.518 54.3794 130.64 54.4299C130.763 54.4804 130.895 54.5027 131.028 54.4951C131.563 54.4613 132.072 54.2583 132.478 53.9167C133.125 53.4209 133.471 52.8066 133.427 52.3287L133.335 47.7265C133.332 47.6991 133.324 47.6725 133.313 47.6474C133.314 47.6319 133.314 47.6162 133.313 47.6007C133.298 47.5805 133.281 47.5624 133.261 47.5468C133.248 47.5307 133.233 47.5163 133.217 47.5037C133.177 47.4831 133.133 47.4709 133.088 47.4678C133.059 47.4704 133.03 47.4777 133.004 47.4893C132.989 47.4881 132.974 47.4881 132.959 47.4893C132.461 47.7429 131.93 47.9313 131.381 48.0498C130.789 48.1817 130.183 48.2516 129.575 48.2582H129.516C129.492 48.2547 129.467 48.2547 129.443 48.2582C129.392 48.2727 129.347 48.3011 129.312 48.3399C129.278 48.3788 129.255 48.4264 129.248 48.4773C129.248 48.4773 129.248 48.4773 129.248 48.5025C129.248 48.5276 129.196 49.0055 129.119 49.6737C129.009 50.6833 128.872 52.0162 128.791 52.8461C128.575 52.7717 128.342 52.758 128.118 52.8066C127.694 52.9014 127.297 53.0907 126.959 53.3598C126.117 54.0029 125.779 54.8544 126.165 55.3358C126.249 55.4324 126.354 55.5092 126.472 55.5602C126.591 55.6113 126.72 55.6353 126.849 55.6304Z" fill="black"/>
<path d="M114.389 80.7041C114.379 80.6701 114.361 80.6384 114.338 80.6109C114.315 80.5834 114.287 80.5607 114.255 80.544C114.222 80.5273 114.187 80.517 114.151 80.5136C114.115 80.5103 114.078 80.514 114.043 80.5245C114.043 80.5245 113.723 80.6179 113.105 80.8838C112.98 80.9465 112.841 80.9792 112.701 80.9792C112.56 80.9792 112.421 80.9465 112.296 80.8838C111.928 80.6754 111.656 80.0718 111.527 79.1413C111.2 76.788 110.972 75.4731 109.754 73.6552C109.516 73.2466 109.174 72.9051 108.76 72.6639C108.347 72.4228 107.877 72.2903 107.396 72.2792C106.388 72.2792 105.428 72.872 104.765 73.8923C104.746 73.9223 104.733 73.9557 104.727 73.9906C104.721 74.0255 104.722 74.0612 104.73 74.0957C104.738 74.1302 104.753 74.1629 104.774 74.1918C104.795 74.2207 104.821 74.2453 104.852 74.2642C104.883 74.283 104.917 74.2958 104.953 74.3018C104.988 74.3078 105.025 74.3068 105.06 74.299C105.096 74.2911 105.129 74.2766 105.159 74.2561C105.188 74.2356 105.213 74.2097 105.233 74.1797C105.45 73.7953 105.762 73.4696 106.14 73.2319C106.518 72.9942 106.951 72.852 107.399 72.8181C107.785 72.8355 108.16 72.9485 108.489 73.1465C108.818 73.3445 109.09 73.6209 109.279 73.9498C110.431 75.6707 110.651 76.9353 110.968 79.2131C111.126 80.3448 111.464 81.0454 112.005 81.3688C112.195 81.4761 112.411 81.5319 112.631 81.5304C112.861 81.5255 113.089 81.4767 113.3 81.3867C113.892 81.1496 114.187 81.0598 114.19 81.0598C114.229 81.0514 114.265 81.0351 114.296 81.012C114.328 80.9889 114.353 80.9596 114.372 80.9259C114.391 80.8922 114.402 80.855 114.405 80.8168C114.408 80.7785 114.403 80.7401 114.389 80.7041Z" fill="black"/>
<path d="M109.956 76.3677C109.92 76.3695 109.884 76.3783 109.852 76.3936C109.819 76.4088 109.79 76.4303 109.765 76.4566C109.741 76.483 109.722 76.5138 109.71 76.5472C109.698 76.5807 109.693 76.6161 109.695 76.6515C109.715 76.8183 109.695 76.9873 109.636 77.1451C109.577 77.3029 109.482 77.4452 109.357 77.5604C109.123 77.7241 108.857 77.8373 108.575 77.8924C108.294 77.9476 108.003 77.9434 107.723 77.8802C107.654 77.8763 107.586 77.8979 107.532 77.9407C107.479 77.9835 107.444 78.0444 107.434 78.1113C107.424 78.1783 107.441 78.2463 107.48 78.302C107.519 78.3577 107.578 78.3969 107.646 78.4119C107.83 78.438 108.016 78.4512 108.201 78.4514C108.755 78.4785 109.3 78.303 109.728 77.9592C109.912 77.7901 110.055 77.5822 110.145 77.3512C110.235 77.1203 110.27 76.8724 110.247 76.6263C110.243 76.5545 110.21 76.4871 110.156 76.4387C110.102 76.3902 110.03 76.3647 109.956 76.3677Z" fill="black"/>
<path d="M115.265 75.103C115.589 75.104 115.909 75.0302 116.199 74.8874C116.56 74.7015 116.861 74.4213 117.069 74.0782C117.277 73.7351 117.383 73.3424 117.376 72.9438C117.376 72.8723 117.347 72.8038 117.295 72.7532C117.244 72.7027 117.174 72.6743 117.1 72.6743C117.027 72.6743 116.957 72.7027 116.905 72.7532C116.854 72.8038 116.824 72.8723 116.824 72.9438C116.832 73.2425 116.755 73.5376 116.601 73.7958C116.447 74.0541 116.223 74.2654 115.953 74.406C115.649 74.5415 115.313 74.5898 114.983 74.5453C114.652 74.5007 114.342 74.3652 114.087 74.1545C114.028 74.1121 113.955 74.0943 113.882 74.1051C113.81 74.1159 113.745 74.1544 113.701 74.212C113.658 74.2697 113.64 74.3418 113.651 74.4125C113.662 74.4833 113.701 74.5468 113.76 74.5892C114.193 74.9129 114.72 75.0929 115.265 75.103Z" fill="black"/>
<path d="M118.255 78.8572C118.194 78.8561 118.133 78.8753 118.084 78.9118C118.034 78.9483 117.999 78.9999 117.983 79.0584C117.864 79.5936 117.634 80.0995 117.309 80.5454C116.983 80.9913 116.568 81.3679 116.089 81.6524C115.762 81.8475 115.398 81.9778 115.019 82.0358C114.641 82.0937 114.254 82.0782 113.881 81.9901C113.828 81.9809 113.773 81.9874 113.723 82.0085C113.674 82.0297 113.632 82.0647 113.602 82.1092C113.573 82.1537 113.557 82.2056 113.558 82.2585C113.559 82.3115 113.575 82.363 113.606 82.4068C113.679 82.5003 115.162 84.3469 116.85 84.3469C117.187 84.3478 117.52 84.2716 117.821 84.1242C119.425 83.3517 118.62 79.4967 118.524 79.0584C118.508 79.0008 118.473 78.95 118.424 78.9136C118.376 78.8773 118.317 78.8575 118.255 78.8572ZM117.575 83.6535C116.438 84.1996 115.195 83.2547 114.529 82.6116C115.176 82.6121 115.812 82.4421 116.368 82.1194C117.156 81.6677 117.78 80.9887 118.156 80.1758C118.34 81.6021 118.311 83.2978 117.575 83.6535Z" fill="black"/>
<path d="M119.436 73.7808C119.666 73.7808 119.852 73.5991 119.852 73.3749C119.852 73.1506 119.666 72.9689 119.436 72.9689C119.207 72.9689 119.021 73.1506 119.021 73.3749C119.021 73.5991 119.207 73.7808 119.436 73.7808Z" fill="black"/>
</svg>
