<svg width="201" height="195" viewBox="0 0 201 195" fill="none" xmlns="http://www.w3.org/2000/svg">
<rect x="0.120793" y="0.120793" width="200.457" height="194.758" rx="5.91887" fill="white"/>
<rect x="0.120793" y="0.120793" width="200.457" height="194.758" rx="5.91887" stroke="#ECECEC" stroke-width="0.241587"/>
<path d="M164.529 140.962C159.451 147.061 145.696 152.267 133.781 152.5C133.621 152.5 133.501 152.656 133.501 152.811C133.501 152.967 133.621 153.083 133.821 153.083C145.856 152.811 159.851 147.528 165.009 141.312C165.129 141.195 165.089 141.001 164.969 140.884C164.849 140.807 164.649 140.807 164.529 140.962Z" fill="black"/>
<path d="M158.371 148.693C157.332 149.587 154.173 151.451 151.574 152.073C151.414 152.112 151.334 152.267 151.374 152.423C151.414 152.539 151.534 152.656 151.654 152.656C151.694 152.656 151.694 152.656 151.734 152.656C154.413 152.034 157.692 150.053 158.771 149.159C158.891 149.043 158.891 148.887 158.811 148.732C158.691 148.615 158.491 148.615 158.371 148.693Z" fill="black"/>
<path d="M95.1959 85.2523C95.036 85.2911 94.916 85.4077 94.956 85.6019L105.032 149.315C105.072 149.47 105.192 149.548 105.312 149.548H105.352C105.512 149.509 105.632 149.392 105.592 149.198L95.5158 85.4854C95.5158 85.33 95.3558 85.2134 95.1959 85.2523Z" fill="black"/>
<path d="M182.682 115.477L163.53 92.6337C163.849 92.4783 164.089 92.3617 164.169 92.284C164.329 92.1286 164.809 91.4682 165.049 90.2639C165.329 88.943 164.449 88.6322 163.969 88.4768C163.729 88.3991 163.689 88.0495 163.769 87.1948C163.849 86.3013 163.01 85.6408 162.17 85.3689C162.09 85.33 162.01 85.33 161.97 85.33C162.01 84.2423 161.53 83.0768 160.571 82.8825C160.331 82.8437 160.091 82.8048 159.891 82.8437C160.051 81.9502 159.971 81.2897 159.651 80.8235C159.411 80.435 158.971 80.202 158.412 80.1243C157.452 79.9689 155.373 80.3185 154.613 80.5905C154.413 80.6681 154.133 80.8624 153.853 81.0955L143.737 69.0522C142.898 68.081 141.418 67.8868 140.378 68.6249L128.903 76.589C128.823 76.6278 128.783 76.7055 128.783 76.7832C128.783 76.8221 128.783 76.8998 128.823 76.9386C127.304 78.8811 126.704 79.5027 123.945 80.707C123.425 80.9401 122.945 81.1343 122.465 81.3286C119.826 78.5314 114.309 73.7141 111.07 71.9659C109.071 70.8782 107.151 70.5285 105.792 70.2566C104.992 70.1012 104.352 69.9846 104.033 69.7904C101.514 68.1976 98.1948 67.8479 94.7561 68.8191C91.8772 69.635 90.1979 69.5573 88.2786 69.2076C87.399 68.5861 86.3194 68.1199 85.0399 67.9256C84.4401 67.8479 84.0003 67.8479 83.6804 67.9256C85.0799 64.8954 84.6001 61.2824 83.9603 58.8349C83.8004 58.291 83.6804 57.7471 83.5205 57.2421C85.1998 54.4838 85.2798 51.5701 83.6404 50.1327C83.3206 49.8608 82.9607 49.7831 82.5608 49.8996C82.081 50.055 81.6812 50.5212 81.3613 51.0651C80.9215 50.0162 80.4817 48.9672 80.0418 47.9183L79.8019 47.2967C79.2021 45.8593 78.6024 44.655 78.0426 43.6449C78.4424 43.3341 78.6823 42.9456 78.7623 42.5183C78.8423 41.7413 78.3225 40.8866 77.2029 39.8377C74.9238 37.701 69.086 37.3125 65.1276 38.2837C65.2075 37.9729 65.2475 37.5456 65.0876 37.2348C65.0076 37.0017 64.8077 36.8463 64.6078 36.7686C63.4082 36.3412 62.5286 36.5743 61.8888 37.5067C61.6889 37.7787 61.489 38.206 61.6489 38.6333C61.7289 38.8664 61.9288 39.0218 62.2487 39.1772C59.6897 40.1485 57.9304 41.1974 55.8912 43.606C54.1318 45.7039 53.1722 48.8895 53.812 50.6377C54.0519 51.2593 54.4517 51.6867 55.0115 51.8032C55.2914 51.8809 55.5313 51.8809 55.8112 51.8809C55.8912 51.8809 55.9711 51.8809 56.0511 51.8809C56.331 53.7457 56.9707 55.3773 57.7304 57.2809C57.7704 57.3586 57.7704 57.3975 57.8104 57.4752C56.7708 56.9702 55.8112 56.7759 55.3314 57.3975C54.7716 58.1356 54.7316 59.6507 55.8512 61.0105C56.6908 62.0594 58.2902 63.0306 59.7697 63.2249C60.6893 66.1774 61.569 68.5861 64.2079 71.1889C64.8077 71.7717 65.4475 72.2767 66.0872 72.6652C66.3671 73.0926 66.607 73.5588 66.8069 73.9472C66.2871 74.6854 64.6478 75.7343 63.928 76.1616C61.8888 75.8897 57.4106 78.2595 53.0123 80.5516C52.4525 80.8624 51.8527 81.1343 51.3329 81.4451C51.2529 81.484 51.173 81.6005 51.173 81.6782C49.2937 82.4164 47.7743 83.7372 45.2153 86.9229C44.8154 87.3891 44.4156 87.9329 43.9358 88.5157C41.1369 92.051 36.8985 97.3733 32.3802 100.365L32.3003 100.404C31.3806 101.025 31.0208 101.297 31.6205 102.463C31.7005 102.618 31.8604 102.851 32.0604 103.123C31.5806 103.706 31.1407 104.211 30.7409 104.677C29.1015 106.619 28.5417 107.28 28.2219 107.901C28.1819 107.979 28.1019 108.135 28.0219 108.329C27.3022 109.727 25.5829 113.068 25.3829 114.622C25.143 116.371 25.143 119.595 25.263 120.372C25.383 121.149 26.4225 122.703 27.3822 122.742C27.6221 122.742 27.862 122.742 28.1419 122.703C28.7816 122.625 29.5413 122.586 30.0611 122.897C30.6209 123.208 32.1004 123.519 34.0996 123.519C36.0188 123.519 38.4579 123.208 40.9769 122.276C43.6959 121.266 45.4952 120.411 46.9346 119.712C48.2541 119.051 49.2937 118.546 50.5332 118.196C53.1322 117.419 56.171 116.681 59.3298 117.381C59.5297 117.419 59.7297 117.458 59.9296 117.536C61.2891 119.906 61.329 123.325 61.329 123.713C61.329 123.907 61.569 124.296 62.1287 124.879C61.7289 125.384 61.7289 126.044 62.1687 126.743C62.2087 126.821 62.4486 127.093 62.8085 127.52C63.2483 132.26 63.4482 134.552 62.7685 138.476C62.3287 141.117 60.9292 143.565 59.6097 145.935C58.6901 147.605 57.7704 149.159 57.2106 150.752C57.1707 150.83 57.2106 150.946 57.2506 151.024C57.3706 151.179 59.9696 154.637 66.0472 156.812C68.6862 157.745 71.765 158.25 75.2437 158.25C77.6028 158.25 80.2018 158.017 82.9207 157.589C83.2006 157.551 83.4805 157.512 83.8404 157.434C88.3986 156.657 100.434 154.559 112.709 157.279C112.829 157.318 112.949 157.24 113.029 157.162C113.109 157.046 113.069 156.929 112.989 156.812C112.989 156.812 112.029 155.608 112.709 150.169V150.13L122.186 148.227C122.705 148.11 123.145 147.8 123.425 147.411C123.665 147.644 123.905 147.722 124.185 147.722C124.585 147.722 125.064 147.489 125.544 147.217C125.984 146.984 126.224 147.1 126.544 147.256C126.784 147.372 127.104 147.528 127.503 147.411C127.903 147.294 128.103 147.023 128.223 146.828C128.383 146.595 128.423 146.556 128.703 146.634C128.863 146.673 128.983 146.712 129.103 146.751C129.543 146.906 129.983 147.061 130.382 146.828C130.662 146.673 130.862 146.362 130.942 145.935C131.102 145.274 131.262 144.575 131.462 144.458C131.502 144.458 131.582 144.458 131.582 144.497C131.822 144.575 131.982 145.197 132.062 145.546C132.142 145.935 132.262 146.323 132.621 146.207C132.861 146.168 132.901 145.935 133.141 145.158C133.261 144.769 133.461 143.992 133.621 143.72C133.781 143.915 134.061 144.42 134.181 144.73C134.501 145.391 134.661 145.624 134.901 145.702C134.981 145.74 135.101 145.702 135.18 145.663C135.38 145.546 135.38 145.274 135.42 144.381C135.42 143.837 135.46 142.555 135.7 142.322C135.94 142.399 136.38 143.138 136.66 143.565C137.14 144.342 137.46 144.769 137.779 144.769C137.939 144.769 138.059 144.692 138.139 144.575C138.379 144.264 138.379 143.643 138.419 142.71C138.419 142.399 138.419 142.011 138.459 141.778C138.659 142.011 139.019 142.399 139.219 142.671C140.059 143.72 140.418 144.109 140.778 144.109C140.898 144.109 141.018 144.031 141.098 143.915C141.258 143.681 141.298 143.215 141.378 142.399C141.418 141.856 141.538 140.923 141.658 140.651C141.938 140.768 142.538 141.428 142.898 141.817C143.697 142.633 143.977 142.943 144.297 142.943C144.417 142.943 144.497 142.905 144.577 142.788C144.697 142.633 144.737 142.361 144.737 141.778C144.777 141.079 144.817 139.991 145.337 139.758C145.776 139.563 146.656 140.496 147.096 141.001C147.576 141.584 147.896 141.894 148.215 141.622C148.415 141.467 148.415 141.117 148.375 140.302C148.335 139.641 148.255 138.437 148.575 138.243C148.815 138.087 149.855 138.903 150.335 139.253C151.094 139.874 151.534 140.185 151.894 139.991C152.174 139.797 152.214 139.369 152.254 138.515C152.294 137.971 152.334 136.999 152.574 136.844C153.134 136.456 153.413 136.65 153.973 137.116C154.253 137.349 154.533 137.582 154.893 137.699C155.253 137.815 155.533 137.776 155.773 137.621C156.212 137.31 156.252 136.572 156.252 135.834C156.252 135.174 156.412 134.358 156.732 134.202C156.932 134.125 157.212 134.319 157.372 134.474C158.491 135.445 159.011 135.873 159.411 135.717C159.731 135.562 159.731 135.135 159.731 135.018C159.731 134.863 159.731 134.707 159.731 134.513C159.691 133.503 159.691 132.687 160.251 132.609C160.691 132.532 161.45 132.843 162.13 133.115C163.05 133.464 163.61 133.658 163.969 133.503C164.089 133.464 164.169 133.348 164.249 133.231C164.449 132.648 164.329 131.91 164.169 131.017C164.129 130.861 164.129 130.706 164.089 130.512C164.049 130.317 164.009 129.929 164.249 129.735C164.529 129.54 165.089 129.579 165.849 129.89L166.089 129.968C167.168 130.395 167.608 130.589 167.968 130.356C168.248 130.123 168.208 129.696 168.168 129.268C168.128 129.152 168.128 129.035 168.088 128.919C169.367 128.569 172.326 128.297 172.326 128.297C172.406 128.297 172.446 128.258 172.486 128.22L182.482 118.701C183.402 117.847 183.482 116.448 182.682 115.477ZM161.97 85.9516C162.17 86.0293 163.25 86.4178 163.17 87.1948C163.09 87.8164 163.01 88.7876 163.769 89.0596C164.249 89.215 164.649 89.3315 164.449 90.1862C164.209 91.274 163.769 91.8179 163.689 91.9344C163.649 91.9733 163.41 92.0898 163.09 92.2063C162.93 92.284 162.73 92.3617 162.49 92.4394C161.73 92.7114 160.771 92.9833 159.931 93.0999C158.452 93.333 157.932 93.0999 157.772 92.9445C157.732 92.8279 157.852 92.2452 158.292 92.0121C158.451 91.9344 158.811 91.8179 159.211 91.7013C159.851 91.5071 160.651 91.274 161.25 90.9632C161.33 90.9243 161.41 90.8855 161.49 90.8466C161.57 90.8078 161.69 90.7301 161.77 90.6524C162.21 90.3027 162.73 89.7588 162.77 89.7588C162.89 89.6423 162.89 89.4481 162.77 89.3315C162.65 89.215 162.45 89.215 162.33 89.3315C162.17 89.4869 161.73 89.9142 161.37 90.1862L160.811 89.4869C161.25 89.2927 161.65 89.1761 161.97 89.0596C162.17 88.9819 162.37 88.943 162.53 88.8653C162.69 88.7876 162.77 88.6322 162.69 88.4768C162.61 88.3214 162.45 88.2826 162.29 88.3214C162.13 88.3991 161.97 88.438 161.77 88.5157C161.41 88.6322 160.931 88.7876 160.411 89.0596C160.251 89.1373 160.051 89.215 159.891 89.3315C159.731 89.4092 159.571 89.5258 159.411 89.6812C157.892 90.7689 155.653 92.1287 154.213 92.4394C153.933 92.4783 153.413 92.556 153.254 92.2452C153.094 92.0121 153.214 91.5459 153.493 91.274C154.013 90.6912 155.453 89.6812 156.812 88.6711L157.252 88.3603C157.692 88.0495 158.092 87.7387 158.412 87.5056C158.451 87.4668 158.531 87.4279 158.571 87.3891C158.691 87.3114 158.771 87.2337 158.891 87.156C159.411 86.7675 159.811 86.4567 160.131 86.3013C160.731 85.9128 161.45 85.7962 161.97 85.9516ZM159.331 83.5041C159.451 83.4653 159.531 83.4653 159.651 83.4653C159.931 83.4264 160.171 83.4653 160.411 83.5041C161.01 83.6207 161.37 84.5142 161.33 85.33C160.771 85.3689 160.211 85.5243 159.811 85.7574C159.451 85.9516 159.051 86.2624 158.452 86.6898C158.372 86.7675 158.252 86.8452 158.172 86.9229C158.132 86.9617 158.052 87.0006 157.972 87.0783C157.652 87.3114 157.292 87.5833 156.852 87.9329L156.452 88.2437C155.413 89.0207 154.413 89.7588 153.693 90.3416C152.614 90.9632 151.214 91.1186 150.615 90.8078C150.375 90.6912 150.375 90.5747 150.375 90.497C150.295 89.7977 151.054 89.215 151.734 88.6711C152.054 88.438 152.334 88.2049 152.534 87.9718C153.094 87.3502 153.973 86.5344 154.933 85.7185C155.373 85.33 155.773 85.0581 156.172 84.825C156.332 84.7473 156.492 84.6308 156.652 84.5531C157.012 84.3977 157.372 84.2034 157.812 84.048C158.451 83.7372 158.891 83.5818 159.331 83.5041ZM152.334 86.7286C152.814 86.4178 153.373 85.9516 153.773 85.5631C153.973 85.4077 154.133 85.2523 154.253 85.1746C154.613 84.9027 155.173 84.5142 155.653 84.2423L155.733 84.3588C155.333 84.5919 154.933 84.8639 154.493 85.2523C153.733 85.8739 153.014 86.5344 152.454 87.1171C152.494 86.9617 152.414 86.8452 152.334 86.7286ZM156.172 83.9315C156.212 83.9315 156.212 83.8926 156.252 83.8926C156.332 83.8926 156.532 83.8538 156.772 83.8149C156.612 83.8926 156.452 83.9703 156.292 84.048L156.172 83.9315ZM153.733 81.9113C153.893 81.7559 154.053 81.6394 154.173 81.5228C154.413 81.3286 154.653 81.1732 154.773 81.0955C155.453 80.8235 157.412 80.5516 158.252 80.6681C158.651 80.7458 158.931 80.8624 159.091 81.1343C159.331 81.484 159.371 82.1056 159.211 82.9214C158.891 82.9991 158.491 83.1156 158.092 83.271C158.052 83.1545 157.892 83.0768 157.772 83.0768C157.732 83.0768 156.452 83.2322 156.132 83.3099C156.052 83.3099 155.932 83.3876 155.813 83.4653C155.653 83.543 155.493 83.6595 155.293 83.7761C154.733 84.1257 154.133 84.5531 153.933 84.7085C153.813 84.7862 153.653 84.9415 153.413 85.1358C152.974 85.5243 152.294 86.1459 151.774 86.4178C151.654 86.4955 151.534 86.5344 151.454 86.5732C151.414 86.5732 151.374 86.6121 151.294 86.5732C151.214 86.5732 151.134 86.4955 151.014 86.4178C150.814 86.1847 150.774 85.8351 150.854 85.6797C151.414 84.4365 151.694 84.1257 152.174 83.5818L152.334 83.4264C152.574 83.0768 153.174 82.4552 153.733 81.9113ZM104.033 70.4508C104.432 70.6062 104.952 70.6839 105.592 70.8005C106.951 71.0336 108.791 71.3832 110.71 72.4321C113.749 74.1026 119.147 78.8034 121.786 81.5228C119.786 82.261 118.467 82.5329 118.467 82.5329C118.107 82.6106 115.988 82.7272 114.229 82.7272C113.829 82.1056 113.109 81.7171 112.309 81.7948L100.594 83.0768L100.634 82.8048C101.314 79.2307 102.913 70.8393 104.033 70.4508ZM95.036 69.2853C98.1548 68.4695 101.154 68.7803 103.473 70.1789C102.393 71.3443 101.394 75.6566 100.074 82.7272L99.9941 83.1933L97.2752 83.5041C96.1556 78.5314 94.7961 71.8105 95.036 69.2853ZM94.4363 69.4407C94.3163 72.1602 95.5958 78.6868 96.6354 83.543L94.6762 83.7372C93.2767 82.9214 88.6785 81.6394 83.4405 80.3962C84.8 78.9976 86.4793 78.2983 88.5585 78.2595C89.2383 78.2595 89.838 78.3372 90.2779 78.4537C90.8776 78.5703 91.3575 78.648 91.6773 78.376C91.9172 78.1818 91.9972 77.9099 91.9972 77.4048C91.9972 75.3847 91.3175 72.0436 89.0383 69.8681C90.5977 70.1012 92.1571 70.0235 94.4363 69.4407ZM84.8 68.4695C89.998 69.2853 91.3974 74.6854 91.3974 77.4437C91.3974 77.8322 91.3175 77.9487 91.2775 77.9876C91.1575 78.0653 90.7977 77.9876 90.3578 77.9099C89.878 77.8322 89.2383 77.6768 88.4786 77.7156C86.2394 77.7933 84.3202 78.5703 82.8407 80.1243C84.8 77.0163 85.0799 74.1803 83.8004 70.7228C83.4005 69.6738 83.2406 68.9357 83.1606 68.6249C83.4005 68.5084 83.8404 68.3141 84.8 68.4695ZM77.3229 62.0205C76.5232 63.963 74.324 64.74 72.3248 64.74C72.0449 64.74 71.725 64.74 71.4451 64.7011C71.2852 64.6623 71.1652 64.5457 71.2052 64.3903C71.2052 64.2349 71.3652 64.1184 71.5251 64.1572C73.5243 64.3903 75.9634 63.6911 76.7631 61.8263C76.8431 61.6709 77.003 61.5932 77.1629 61.6709C77.3229 61.7098 77.4028 61.8651 77.3229 62.0205ZM77.5628 69.0134C77.7227 69.0134 77.8827 69.1299 77.8827 69.3242V71.3443C77.8827 71.4997 77.7627 71.6551 77.5628 71.6551C77.4028 71.6551 77.2429 71.5386 77.2429 71.3443V69.3242C77.2829 69.1299 77.4028 69.0134 77.5628 69.0134ZM73.9242 72.7041C73.8442 72.7818 73.7642 72.8206 73.6843 72.8206C73.6043 72.8206 73.5643 72.8206 73.4844 72.7429C72.1249 71.7328 71.685 70.3343 71.5651 69.7515C71.5251 69.5961 71.6451 69.4407 71.805 69.4019C71.9649 69.363 72.1249 69.4796 72.1649 69.635C72.2448 70.0235 72.6047 71.3443 73.8442 72.2767C74.0042 72.3933 74.0441 72.5875 73.9242 72.7041ZM71.3652 72.7818C71.4851 72.8595 71.5251 73.0537 71.4052 73.1703C71.3652 73.248 71.2452 73.2868 71.1652 73.2868C71.0853 73.2868 71.0453 73.2868 70.9653 73.2091C69.6059 72.199 69.166 70.8005 69.0461 70.2177C69.0061 70.0623 69.126 69.9069 69.286 69.8681C69.4459 69.8292 69.6059 69.9458 69.6458 70.1012C69.7658 70.5285 70.1256 71.8494 71.3652 72.7818ZM70.8054 74.0249C71.765 74.0249 72.8446 73.9084 74.0042 73.6753C75.1637 73.4422 76.4032 73.0926 77.8027 72.6652C80.1618 71.8882 81.7212 70.6839 82.7608 69.2853C82.8807 69.6738 83.0407 70.2566 83.2806 70.9558C84.5201 74.3357 84.2002 77.094 82.161 80.1631C77.9226 79.1919 73.4444 78.2206 70.0057 77.5214L69.9657 77.4825C68.2064 76.0451 67.8066 75.3458 67.6866 74.8019C67.6466 74.6077 67.5266 74.3357 67.3267 74.0249C67.3267 73.9861 67.2868 73.9472 67.2868 73.9084C67.2068 73.7141 67.0868 73.5199 66.9669 73.2868C68.0864 73.753 69.3659 74.0249 70.8054 74.0249ZM79.0422 66.9932C79.0022 66.8378 79.0422 66.6824 79.2021 66.6047C79.3621 66.527 79.522 66.6047 79.602 66.7601C79.8419 67.3429 80.3217 68.8969 79.7219 70.6451C79.682 70.7616 79.562 70.8393 79.4421 70.8393C79.4021 70.8393 79.3621 70.8393 79.3621 70.8393C79.2021 70.8005 79.1222 70.6062 79.1622 70.4508C79.682 68.8192 79.2021 67.3817 79.0422 66.9932ZM82.6408 50.4435C82.8008 50.3658 82.9607 50.4046 83.1206 50.56C84.2802 51.5701 84.6001 53.8234 83.1606 56.4263C82.8407 55.455 82.5608 54.5227 82.201 53.5903C82.241 53.3572 82.2809 53.1629 82.3209 53.0075C82.3609 53.0075 82.4009 53.0464 82.4009 53.0464C82.5608 53.2018 82.6808 53.5514 82.6408 54.173C82.6408 54.3284 82.7608 54.4838 82.9207 54.4838H82.9607C83.1206 54.4838 83.2406 54.3673 83.2406 54.2119C83.3206 53.5126 83.1606 52.891 82.8407 52.5802C82.7608 52.5025 82.6408 52.4248 82.5209 52.386C82.7208 51.8032 83.0007 51.5313 83.2406 51.4924C83.4005 51.4536 83.5205 51.2982 83.4805 51.1428C83.4405 50.9874 83.2806 50.8708 83.1206 50.9097C82.7208 50.9874 82.201 51.3759 81.8811 52.5025L81.6012 51.7255C81.8011 51.1816 82.201 50.5989 82.6408 50.4435ZM62.0488 38.478C62.0088 38.3614 62.0488 38.1672 62.2487 37.8952C62.6485 37.2736 63.1284 36.9628 64.2479 37.3902C64.3279 37.429 64.3679 37.4679 64.4079 37.5456C64.5278 37.7787 64.4478 38.2449 64.3279 38.5168C64.2879 38.5168 64.2479 38.5557 64.2079 38.5557C63.7681 38.6722 63.3683 38.8276 63.0084 38.9441C62.2487 38.7499 62.0888 38.5557 62.0488 38.478ZM57.4905 50.9874C57.4905 50.9874 57.4506 50.9874 57.4506 51.0262C57.0107 51.2205 56.5709 51.337 56.1311 51.3759C55.7312 51.4147 55.3314 51.4147 55.0115 51.337C54.6516 51.2593 54.4117 50.9874 54.2518 50.56C53.772 49.1615 54.3717 46.2866 56.251 44.0722C58.3702 41.547 60.2095 40.537 63.1284 39.5269C63.5282 39.3715 63.968 39.2549 64.4079 39.0995C68.1264 37.9341 74.444 38.1672 76.6831 40.265C77.6428 41.1585 78.1226 41.8967 78.0426 42.4794C78.0026 42.7902 77.8027 43.0622 77.4028 43.2952C77.4028 43.2952 77.3629 43.2953 77.3629 43.3341C77.3229 43.3729 77.2429 43.4118 77.1629 43.4506C77.1229 43.4895 77.043 43.4895 77.003 43.5283C76.963 43.5283 76.923 43.5672 76.883 43.5672C76.7631 43.606 76.6831 43.6449 76.5632 43.6837C76.5232 43.6837 76.4832 43.7226 76.4432 43.7226C76.2833 43.7614 76.1233 43.8003 75.9634 43.8391L75.8035 43.878C73.6043 43.7614 69.5659 44.2665 65.8873 45.7427C62.2087 47.219 59.2099 49.1615 58.6501 50.4046C58.4502 50.5212 58.2103 50.6766 58.0103 50.7543C57.7304 50.8708 57.6105 50.9097 57.4905 50.9874ZM77.003 45.0046C77.003 45.0046 77.003 45.0435 77.003 45.0823C77.003 45.1212 76.963 45.16 76.923 45.1989C76.923 45.2377 76.883 45.2377 76.8431 45.2766C76.7231 45.3543 76.5632 45.4708 76.3232 45.5874C76.3232 45.5874 76.3233 45.5874 76.2833 45.5874C76.0834 45.6651 75.8434 45.7816 75.5635 45.8593C74.9238 46.0147 74.2041 46.2089 73.4444 46.3643C71.885 46.714 70.1256 47.1413 67.9265 47.8406C65.0876 48.773 63.0884 49.7442 61.6489 50.4435C61.449 50.56 61.2091 50.6377 61.0092 50.7543C59.9696 51.2593 59.2099 51.2205 59.0099 51.0651C58.97 51.0262 58.89 50.9874 58.97 50.7543C59.2898 49.8219 62.0088 47.9183 65.9273 46.3255C69.6058 44.8492 73.1645 44.4996 75.0038 44.4996C75.2437 44.4996 75.4436 44.4996 75.6035 44.4996H75.6435C75.7235 44.4996 75.7635 44.4996 75.8434 44.4996C76.0434 44.4996 76.1633 44.5384 76.2833 44.5773C76.3632 44.5773 76.4032 44.6161 76.4432 44.6161H76.4832C76.5632 44.655 76.6032 44.6938 76.6831 44.6938C76.7231 44.7327 76.8031 44.7715 76.8431 44.7715L76.883 44.8104C76.883 44.8104 76.883 44.8104 76.883 44.8492C76.923 44.8881 76.923 44.8881 76.923 44.9269C77.003 44.9658 77.003 45.0046 77.003 45.0046ZM56.171 60.7385C55.1714 59.5342 55.2514 58.291 55.6512 57.8248C55.8512 57.5917 56.411 57.514 57.9703 58.3687C58.0903 58.6407 58.2103 58.9515 58.3302 59.2623C57.4505 58.9126 56.5709 58.7572 56.0111 58.8738C55.8512 58.9126 55.7312 59.068 55.7712 59.2234C55.8112 59.3788 55.9711 59.4954 56.1311 59.4565C56.4109 59.3788 56.8908 59.4565 57.4106 59.5731C57.3306 59.845 57.3706 60.1946 57.4905 60.5054C57.6505 60.8939 57.9304 61.2047 58.2902 61.3213C58.3302 61.3213 58.3702 61.3601 58.4102 61.3601C58.5301 61.3601 58.6501 61.2824 58.6901 61.1659C58.77 61.0105 58.6901 60.8551 58.5301 60.7774C58.2502 60.6608 58.1303 60.4277 58.0903 60.2723C58.0103 60.0781 58.0103 59.8838 58.0103 59.7284C58.2103 59.8061 58.4502 59.9227 58.6501 60.0004C58.77 60.3889 58.93 60.7774 59.0499 61.2047C59.1699 61.6321 59.3298 62.0594 59.4498 62.4867C59.4498 62.5256 59.4898 62.6033 59.4898 62.6421C58.2103 62.4479 56.8908 61.5932 56.171 60.7385ZM65.3275 64.74C63.0484 64.1184 61.7289 63.2637 60.9292 61.904C60.4494 61.0882 60.0495 58.6018 59.7297 56.5428C59.5297 55.1054 59.3298 53.8622 59.1299 53.3572L59.0499 53.0852C58.85 52.5025 58.5701 51.8421 58.4102 51.1816C58.4502 51.1816 58.4902 51.1428 58.4902 51.1428C58.5301 51.2982 58.6501 51.4147 58.7301 51.4924C58.93 51.6478 59.2499 51.7644 59.6097 51.7644C60.1295 51.7644 60.7693 51.609 61.409 51.2982C61.6089 51.2205 61.8089 51.1039 62.0488 50.9874C63.4882 50.2881 65.4475 49.3169 68.2464 48.4233C70.4055 47.7241 72.1649 47.3356 73.6843 46.9471C74.444 46.7528 75.1637 46.5974 75.8434 46.442C76.0434 46.4032 76.2033 46.3255 76.3632 46.2866C76.8431 47.5687 77.6827 49.55 78.6424 50.4046C80.0018 51.609 80.9615 53.4737 81.6412 56.4651C82.121 58.4853 81.5612 59.9227 81.2813 60.3889C80.4017 60.1558 77.2429 59.3788 74.1641 59.5731C74.324 59.068 74.364 58.3687 74.0042 57.514C73.8442 57.0867 73.4844 56.504 73.0845 55.8435C72.3648 54.6004 71.4451 53.0464 71.3652 51.9198C71.3252 51.4147 71.5651 50.9485 72.0449 50.56C72.8846 49.8608 74.444 49.4723 75.4836 49.7054C75.6435 49.7442 75.8035 49.6277 75.8434 49.4723C75.8834 49.3169 75.7635 49.1615 75.6035 49.1226C74.404 48.8507 72.6447 49.278 71.6451 50.0939C71.0053 50.5989 70.6854 51.2593 70.7654 51.9198C70.8454 53.2018 71.805 54.8335 72.5647 56.1155C72.9646 56.7759 73.2844 57.3198 73.4444 57.7083C73.7642 58.4853 73.7642 59.2234 73.4044 59.7673C73.4044 59.7673 73.4044 59.7673 73.3644 59.8061C73.3244 59.8838 73.2444 59.9615 73.1645 60.0392C73.1245 60.0781 73.1245 60.0781 73.0845 60.1169C73.0445 60.1558 72.9646 60.2335 72.9246 60.2723C72.8846 60.3112 72.8446 60.3112 72.8446 60.35C72.7646 60.4277 72.6447 60.4666 72.5247 60.5054C72.5247 60.5054 72.5247 60.5054 72.4847 60.5054C72.3648 60.5443 72.2448 60.5831 72.1249 60.622C72.0849 60.622 72.0849 60.622 72.0449 60.622C71.9649 60.622 71.885 60.6608 71.805 60.6608C71.765 60.6608 71.765 60.6608 71.725 60.6608C71.6051 60.6608 71.5251 60.6608 71.4052 60.6608C71.3652 60.6608 71.3652 60.6608 71.3252 60.6608C71.2452 60.6608 71.1653 60.622 71.0853 60.622C71.0453 60.622 71.0453 60.622 71.0053 60.5831C70.9253 60.5443 70.8454 60.5054 70.7654 60.4666C70.3656 60.2335 70.2056 59.7673 70.2456 59.2234C70.2456 59.068 70.1256 58.9126 69.9657 58.9126C69.8058 58.9126 69.6458 59.0292 69.6458 59.1846C69.6059 59.7673 69.7658 60.2723 70.0857 60.622C67.4867 61.904 65.7673 64.0795 65.3275 64.74ZM66.647 69.1299C66.647 68.9745 66.8069 68.858 66.9669 68.858C67.1268 68.858 67.2468 69.0134 67.2468 69.1688C67.2068 69.7515 67.6066 71.422 69.0461 72.471C69.166 72.5487 69.206 72.7429 69.0861 72.8595C69.0461 72.9372 68.9261 72.976 68.8461 72.976C68.7662 72.976 68.7262 72.976 68.6862 72.9372C67.0069 71.7717 66.567 69.8681 66.647 69.1299ZM66.9669 74.6077C67.0069 74.7242 67.0468 74.8019 67.0868 74.8796C67.2468 75.5012 67.6466 76.1616 68.8461 77.2106C67.0069 76.8221 65.5274 76.5501 64.6878 76.3559C65.3675 75.9674 66.4071 75.2681 66.9669 74.6077ZM53.2122 81.1343C57.3706 78.9588 62.0888 76.4724 63.8481 76.8221C67.8465 77.5991 89.3982 81.9502 93.9165 84.0092L87.9188 86.3013C87.8388 86.3401 87.7588 86.379 87.6789 86.4178C86.5193 86.1459 77.8826 84.1646 69.9657 83.271C63.0484 82.4941 55.1714 81.7948 52.4125 81.5617C52.6524 81.4451 52.9323 81.2897 53.2122 81.1343ZM87.0391 87.7775L96.8753 147.528L97.3951 150.402C97.3951 150.48 97.4351 150.519 97.4351 150.597L78.8023 153.394C78.2025 153.471 77.6028 153.355 77.1229 153.005C76.6431 152.656 76.3233 152.151 76.2433 151.568L71.4451 120.877C71.885 120.994 72.2448 121.11 72.5647 121.149C73.0045 121.227 73.6443 121.227 74.324 121.266L73.2045 121.421C73.0445 121.46 72.9246 121.576 72.9646 121.732C73.0045 121.887 73.1245 121.965 73.2444 121.965H73.2844L79.3221 121.11L79.3621 121.421C79.3621 121.499 79.4021 121.576 79.482 121.615C79.522 121.654 79.602 121.654 79.682 121.654H79.7219L91.3574 119.984L91.5574 121.227L79.8819 122.897C79.8019 122.897 79.722 122.936 79.682 123.014C79.642 123.091 79.602 123.169 79.642 123.247L79.7219 123.83L73.7243 124.645C73.5643 124.684 73.4444 124.801 73.4844 124.956C73.5243 125.112 73.6443 125.189 73.7642 125.189H73.8042L79.8019 124.373L79.8819 124.995C79.9219 125.15 80.0418 125.228 80.1618 125.228H80.2018L91.8773 123.558L92.0772 124.723L74.364 127.171C74.2041 127.209 74.0841 127.326 74.1241 127.481C74.1641 127.637 74.284 127.714 74.404 127.714H74.444L92.1571 125.267L92.2771 126.005L80.8015 127.676C80.6416 127.714 80.5216 127.831 80.5616 127.986L80.6816 128.802L74.484 129.657C74.324 129.696 74.2041 129.812 74.2441 129.968C74.284 130.123 74.404 130.201 74.5239 130.201H74.5639L80.7615 129.346L80.8015 129.735C80.8015 129.812 80.8415 129.89 80.9215 129.929C80.9615 129.968 81.0414 130.007 81.1214 130.007H81.1614L92.6769 128.336L92.8369 129.346L81.4413 130.978C81.3613 130.978 81.2813 131.017 81.2414 131.094C81.2014 131.172 81.1614 131.25 81.2014 131.327L81.3213 132.027L75.1237 132.881C74.9638 132.92 74.8438 133.037 74.8838 133.192C74.9238 133.348 75.0437 133.425 75.1637 133.425H75.2037L81.4013 132.571L81.4813 133.076C81.4813 133.231 81.6412 133.309 81.7612 133.309H81.8011L93.1967 131.677L93.3567 132.765L81.9211 134.397C81.7612 134.435 81.6412 134.552 81.6812 134.707L81.7212 135.018L75.5236 135.873C75.3636 135.912 75.2437 136.028 75.2837 136.184C75.3236 136.339 75.4436 136.417 75.5635 136.417H75.6035L81.8011 135.562L81.9211 136.456C81.9211 136.533 81.9611 136.611 82.041 136.65C82.081 136.689 82.161 136.727 82.241 136.727H82.281L93.7565 135.096L93.9165 136.067L76.4032 138.515C76.2433 138.553 76.1233 138.67 76.1633 138.825C76.2033 138.981 76.3233 139.058 76.4432 139.058H76.4832L93.9964 136.611L94.1164 137.427L82.6408 139.058C82.5608 139.058 82.4809 139.097 82.4409 139.175C82.4009 139.253 82.3609 139.33 82.4009 139.408L82.5608 140.457L76.6031 141.273C76.4432 141.312 76.3233 141.428 76.3632 141.584C76.4032 141.739 76.5232 141.817 76.6431 141.817H76.6831L82.6408 141.001L82.6808 141.156C82.6808 141.312 82.8407 141.389 82.9607 141.389H83.0007L94.5162 139.719L94.7161 141.001L83.4005 142.633C83.2406 142.671 83.1206 142.788 83.1606 142.943L83.2006 143.293L77.1229 144.148C76.963 144.187 76.8431 144.303 76.883 144.458C76.923 144.614 77.043 144.692 77.1629 144.692H77.2029L83.2806 143.837L83.4005 144.653C83.4005 144.73 83.4405 144.808 83.5205 144.847C83.5605 144.886 83.6404 144.925 83.6804 144.925H83.7204L95.076 143.293L95.2759 144.42L77.5228 146.906C77.3629 146.945 77.2429 147.061 77.2829 147.217C77.3229 147.372 77.4428 147.45 77.5628 147.45H77.6028L95.3559 144.964L95.5158 146.051L84.1202 147.683C84.0403 147.683 83.9603 147.722 83.9203 147.8C83.8803 147.877 83.8404 147.955 83.8803 148.033L84.0403 149.082L77.9226 149.936C77.7627 149.975 77.6428 150.092 77.6827 150.247C77.7227 150.402 77.8427 150.48 77.9626 150.48H78.0026L84.1202 149.625V149.742C84.1602 149.897 84.2802 149.975 84.4001 149.975H84.4401L96.1156 148.305H96.1556H96.1956H96.2356C96.2356 148.305 96.2756 148.305 96.2756 148.266C96.2756 148.266 96.3155 148.266 96.3155 148.227C96.3155 148.227 96.3155 148.227 96.3155 148.188C96.3555 148.149 96.3555 148.11 96.3955 148.071V148.033V147.994V147.955L95.8357 144.536L93.6366 131.056V131.017L93.3567 129.23V129.191L93.1168 127.637L92.9968 126.782L92.8369 125.85C92.8369 125.85 92.8369 125.85 92.8369 125.811L92.0372 121.032L90.9176 114.312C90.9176 114.312 90.9176 114.312 90.9176 114.273L90.6377 112.486L89.798 106.736L89.7181 106.231L87.9588 95.5862L86.9591 89.5646L86.9192 89.215C86.9192 89.215 86.9192 89.215 86.9192 89.1761C86.9192 89.1373 86.9192 89.1373 86.8792 89.0984C86.8792 89.0984 86.8792 89.0596 86.8392 89.0596L86.7992 89.0207C86.7992 89.0207 86.7992 89.0207 86.7592 89.0207C86.7192 89.0207 86.6793 88.9819 86.6393 88.9819H86.5993L74.8838 90.6524C74.8038 90.6524 74.7239 90.6912 74.6839 90.7689C74.6439 90.8466 74.6039 90.9243 74.6439 91.002L74.7239 91.3905L68.6462 92.2452C68.4863 92.284 68.3663 92.4006 68.4063 92.556C68.4463 92.7114 68.5663 92.7891 68.6862 92.7891H68.7262L74.8038 91.9344L74.9238 92.7114C74.9638 92.8668 75.0837 92.9445 75.2037 92.9445H75.2437L86.6793 91.3128L86.8392 92.284L75.4036 93.9157C75.2437 93.9546 75.1237 94.0711 75.1637 94.2654V94.3431L69.0061 95.1977C68.8461 95.2366 68.7262 95.3531 68.7662 95.5085C68.8062 95.6639 68.9261 95.7416 69.0461 95.7416H69.0861L75.2837 94.8869L75.4436 96.0136C75.4436 96.0913 75.4836 96.169 75.5635 96.2078C75.6035 96.2467 75.6835 96.2855 75.7235 96.2855H75.7635L87.239 94.6538L87.359 95.392L72.1249 97.8006C71.9649 97.5675 71.725 97.3733 71.4851 97.2956C71.0053 97.1402 70.4455 97.2956 70.1256 97.7229C70.0057 97.8783 69.8857 98.0337 69.7658 98.1891C69.6059 98.3834 69.4459 98.5776 69.246 98.8107C68.9661 99.1215 68.6062 99.3934 68.2464 99.6654L67.0868 92.2452C67.0069 91.6625 67.1668 91.0797 67.4867 90.6135C67.8465 90.1473 68.3663 89.8365 68.9661 89.7588L87.1191 87.156C86.9991 87.3891 86.9991 87.5833 87.0391 87.7775ZM77.3229 109.339H77.1629C75.6035 109.339 73.5643 109.261 73.3244 109.145L72.2048 108.678C73.4044 108.018 74.6439 107.396 75.4036 107.008L77.9626 106.658C78.8023 106.658 79.682 106.697 80.0418 106.581C80.2417 106.542 80.4417 106.425 80.5616 106.309L88.9184 105.143L89.0783 106.114L77.4028 107.785C77.3229 107.785 77.2429 107.824 77.2029 107.901C77.1629 107.979 77.1229 108.057 77.1629 108.135L77.3229 109.339ZM76.5232 103.511C75.3236 103.628 73.0445 103.9 72.1249 104.094C71.805 104.172 71.5651 104.211 71.3652 104.288C70.6854 104.444 70.3256 104.56 69.0861 104.444C69.0461 104.444 69.0061 104.444 68.9661 104.444L68.8461 103.745C69.6858 103.084 70.4855 102.424 71.1253 101.724L76.2433 101.025L76.2833 101.336C76.2833 101.491 76.4432 101.569 76.5632 101.569H76.6031L88.0387 99.9373L88.2387 101.181L76.6831 102.851C76.5232 102.89 76.4032 103.006 76.4432 103.201L76.5232 103.511ZM72.3248 98.3834L87.399 96.0136L87.6389 97.5287L76.2033 99.1603C76.1233 99.1603 76.0434 99.1992 76.0034 99.2769C75.9634 99.3546 75.9234 99.4323 75.9634 99.51L76.0834 100.404L71.6051 101.025C72.0849 100.404 72.3648 99.7431 72.4048 99.1603C72.4448 98.8496 72.4048 98.6165 72.3248 98.3834ZM80.3217 104.677L88.6385 103.473L88.7984 104.56L80.8415 105.648C80.8815 105.337 80.7615 105.065 80.5616 104.871C80.5616 104.793 80.4417 104.755 80.3217 104.677ZM79.522 109.844L89.4382 108.406L89.5981 109.339L79.8819 110.737C79.8819 110.621 79.8419 110.504 79.8019 110.388C79.7619 110.155 79.642 109.999 79.522 109.844ZM89.998 111.709L90.1579 112.758L80.5216 114.156C80.1218 113.768 79.0422 113.923 77.3629 114.195C76.5632 114.312 75.7635 114.467 75.3636 114.428C74.6439 114.389 72.8046 113.573 71.725 113.03C72.1649 113.03 72.6047 113.068 72.9646 113.068C73.4044 113.068 73.8042 113.107 74.0441 113.107C74.404 113.107 76.7631 113.029 78.0826 112.719L78.1226 113.107C78.1625 113.263 78.2825 113.34 78.4025 113.34H78.4424L89.998 111.709ZM90.5578 115.089L90.7177 115.982L74.5239 118.235C74.2041 118.196 73.9642 118.158 73.9242 118.158C73.6443 118.119 72.8846 117.769 72.0849 117.381L72.3648 117.458C72.9646 117.614 74.2041 117.769 75.2037 117.769C75.5635 117.769 75.8834 117.769 76.1233 117.691C76.7231 117.575 78.0426 117.148 78.9622 116.798C79.0022 116.798 79.0022 116.798 79.0422 116.798H79.0822L90.5578 115.089ZM90.7977 116.565L90.9976 117.73L79.4021 119.401C79.2421 119.44 79.1222 119.556 79.1622 119.75L79.2821 120.644L77.4828 120.877C77.6827 120.527 77.7227 119.984 77.2429 119.44C76.963 119.09 76.4832 118.857 75.9634 118.663L90.7977 116.565ZM32.5402 100.986L32.6202 100.947C37.2184 97.9172 41.4967 92.5171 44.2956 88.9819C44.7355 88.3991 45.1753 87.8552 45.5751 87.3891C48.2941 84.0092 49.7735 82.766 51.8527 82.1444C53.9719 82.3387 62.4886 83.0379 69.8857 83.8926C76.4432 84.6308 83.4405 86.107 86.3194 86.7286L68.8461 89.215C68.0864 89.3315 67.4467 89.72 66.9669 90.3027C66.527 90.8855 66.3271 91.6236 66.4471 92.3617L67.6466 100.015C67.3667 100.17 67.0468 100.326 66.687 100.481C65.8873 100.792 65.2875 100.947 64.8077 101.103C63.928 101.375 63.3683 101.53 62.5286 102.191C62.0488 102.54 60.2095 103.861 57.3306 105.027C56.8908 103.006 57.1307 101.957 57.1707 101.841C57.3706 101.569 58.4102 100.015 58.1703 96.4021C57.9304 92.9445 56.251 88.8265 54.0919 86.4178C53.9719 86.3013 53.812 86.3013 53.652 86.379C53.5321 86.4955 53.5321 86.6509 53.612 86.8063C55.7312 89.0984 57.3306 93.061 57.5705 96.4409C57.8104 99.9373 56.8108 101.336 56.6908 101.491C56.411 101.841 56.291 103.201 56.7308 105.221C55.4113 105.726 53.9319 106.192 52.2526 106.503C50.5732 106.852 49.3337 107.086 48.3741 107.319C46.2149 107.785 45.0953 108.018 42.4164 108.368C41.6567 108.484 38.7778 108.368 37.4983 108.135C35.2192 106.192 32.6202 103.201 32.1403 102.307C31.6605 101.53 31.7005 101.53 32.5402 100.986ZM59.3698 116.876C56.0911 116.099 52.9323 116.914 50.2533 117.691C48.9738 118.08 47.8942 118.585 46.5748 119.245C45.1353 119.945 43.376 120.799 40.697 121.809C35.4591 123.752 31.0208 122.858 30.301 122.47C29.5813 122.081 28.7017 122.159 28.0219 122.237C27.782 122.276 27.5421 122.276 27.3422 122.276C26.8224 122.276 25.9027 121.071 25.8228 120.411C25.7028 119.75 25.7428 116.565 25.9427 114.817C26.1427 113.379 27.862 109.999 28.5417 108.717C28.6217 108.523 28.7017 108.406 28.7417 108.29C29.0215 107.707 29.6213 107.047 31.1807 105.182C31.5406 104.755 31.9404 104.288 32.3802 103.745C33.2999 104.91 34.7793 106.503 36.2587 107.901C36.1788 107.901 36.1388 107.863 36.0588 107.863C33.8197 107.358 31.5406 106.814 29.7812 107.979C29.6613 108.057 29.6213 108.251 29.7013 108.368C29.7812 108.484 29.9812 108.523 30.1411 108.445C31.6605 107.435 33.7397 107.901 35.9389 108.406C36.3787 108.523 36.8185 108.601 37.2584 108.717C38.218 108.911 40.0973 109.028 41.3368 109.028C41.8166 109.028 42.2564 109.028 42.4564 108.989C45.1753 108.601 46.2549 108.368 48.454 107.901C49.4536 107.707 50.6532 107.435 52.3325 107.124C58.2902 105.92 62.1287 103.201 62.8485 102.657C63.6082 102.074 64.088 101.957 64.9277 101.686C65.4075 101.53 66.0072 101.375 66.8469 101.064C67.1668 100.947 67.4467 100.831 67.6866 100.675C67.8865 100.559 68.0465 100.481 68.2464 100.365C69.0061 99.8985 69.5659 99.3546 70.0057 98.8107C70.2056 98.5776 70.3656 98.3834 70.5255 98.1503C70.5255 98.1503 70.5255 98.1114 70.5655 98.1114C70.7254 97.9172 70.9653 97.8395 71.2052 97.9172C71.2452 97.9172 71.2852 97.956 71.3252 97.9949C71.4851 98.1114 71.6451 98.2668 71.6851 98.5388C71.725 98.733 71.765 98.9273 71.765 99.1992C71.765 99.8208 71.3252 100.52 70.7254 101.219C70.5255 101.452 70.3256 101.686 70.0857 101.919C69.6458 102.346 69.166 102.773 68.6462 103.162C68.4463 103.317 68.2864 103.434 68.1264 103.589C67.7666 103.861 67.4467 104.094 67.0868 104.327C67.0069 104.327 66.9269 104.288 66.8069 104.288C65.5674 104.133 64.8077 104.055 64.4878 104.094C64.3279 104.133 64.2079 104.25 64.2479 104.405C64.2879 104.56 64.4079 104.677 64.5678 104.638C64.8477 104.599 65.8073 104.716 66.7669 104.832C66.8869 104.832 67.0069 104.871 67.1268 104.871C67.5266 104.91 67.9265 104.949 68.3263 104.988C68.5263 104.988 68.7262 105.027 68.9261 105.027C70.2856 105.143 70.6854 105.027 71.4052 104.871C71.6051 104.832 71.845 104.755 72.1249 104.716C73.2045 104.483 75.4436 104.211 76.4832 104.133C76.6032 104.133 76.6831 104.133 76.8031 104.133C76.923 104.133 77.003 104.133 77.003 104.133C77.003 104.133 77.043 104.133 77.083 104.172C77.2829 104.211 77.6427 104.327 78.0426 104.483C78.2425 104.56 78.4025 104.638 78.6024 104.677C78.8023 104.755 78.9622 104.832 79.1222 104.91C79.602 105.104 79.9619 105.299 80.0418 105.376C80.1218 105.454 80.1618 105.609 80.1218 105.765C80.1218 105.804 80.1218 105.804 80.0818 105.842C80.0418 105.959 79.9219 106.075 79.7219 106.114C79.4021 106.192 78.5624 106.192 77.7627 106.153C77.6827 106.153 77.6028 106.153 77.5228 106.153C76.6431 106.114 76.1233 106.114 75.8834 106.192C75.7635 106.231 75.4836 106.347 75.0837 106.542C74.6439 106.775 74.0441 107.047 73.4844 107.358C72.5247 107.863 71.5651 108.368 71.2452 108.562C71.1653 108.601 71.0853 108.717 71.0853 108.834C71.0853 108.95 71.1653 109.028 71.2452 109.106L72.8846 109.844C73.2844 110.038 76.0834 110.077 77.003 110.077C77.083 110.077 77.2029 110.077 77.2829 110.077C77.7627 110.077 78.1226 110.077 78.4025 110.116C78.8023 110.194 79.0022 110.349 79.1222 110.66C79.1622 110.776 79.1622 110.854 79.1622 110.932C79.1622 111.048 79.1622 111.126 79.1622 111.242C79.1622 111.359 79.0822 111.476 79.0422 111.553C78.9223 111.747 78.7223 111.903 78.4824 112.058C78.4824 112.058 78.4424 112.058 78.4424 112.097C78.4025 112.136 78.2825 112.175 78.2025 112.175C78.1226 112.214 78.0026 112.214 77.9226 112.253C76.8431 112.486 74.7239 112.602 73.9642 112.602C73.7243 112.602 73.3244 112.602 72.8846 112.563C70.4455 112.486 70.4455 112.524 70.3256 112.719C70.2856 112.796 70.2456 112.952 70.3256 113.03C70.5255 113.34 74.1641 115.011 75.2437 115.089C75.7235 115.127 76.5232 114.972 77.4028 114.855C77.6427 114.817 78.0026 114.739 78.3225 114.7C78.9622 114.622 79.642 114.545 79.9219 114.583C79.9618 114.583 80.0018 114.622 80.0018 114.622C80.0418 114.7 80.0818 114.778 80.1218 114.855C80.2018 115.05 80.1618 115.205 80.1618 115.322C80.0818 115.594 79.8419 115.827 79.602 115.943C79.482 115.982 79.3221 116.06 79.1222 116.137C79.0422 116.176 78.9223 116.215 78.8423 116.254C78.7623 116.293 78.6424 116.332 78.5624 116.371C77.6427 116.681 76.4432 117.109 75.8434 117.225C75.0438 117.381 73.2045 117.186 72.3648 116.992L72.0049 116.914C71.6051 116.837 71.1652 116.72 70.7254 116.642C70.5255 116.604 70.2856 116.565 70.0857 116.526C69.8058 116.487 69.5259 116.448 69.286 116.448C69.126 116.448 68.9661 116.565 68.9661 116.72C68.9661 116.876 69.0861 117.031 69.246 117.031C69.4459 117.031 69.6858 117.07 69.9257 117.109C69.9257 117.148 69.9657 117.186 70.0057 117.186C70.0457 117.186 70.0857 117.225 70.1656 117.264C70.3256 117.342 70.5255 117.458 70.8454 117.614C71.5251 117.963 72.4448 118.468 73.1245 118.701C73.3644 118.779 73.5643 118.857 73.7243 118.857C73.9242 118.896 74.1641 118.935 74.404 118.973C75.2837 119.129 76.2833 119.478 76.6831 119.906C77.043 120.333 76.883 120.644 76.8431 120.76C76.7231 120.916 76.5632 120.994 76.4832 120.955C76.2033 120.877 75.5236 120.877 74.7239 120.838C74.0041 120.799 73.1645 120.799 72.6447 120.722C72.2848 120.683 71.845 120.566 71.3252 120.411C71.1253 120.333 70.9253 120.294 70.6854 120.217C70.3656 120.1 69.9657 119.984 69.6059 119.828C69.0861 119.634 68.5263 119.44 67.8865 119.245C65.7673 118.352 62.3686 117.575 59.3698 116.876ZM68.2864 104.327C68.2064 104.327 68.0864 104.288 67.9665 104.288C68.0465 104.211 68.1264 104.172 68.2464 104.094L68.2864 104.327ZM61.8089 123.713C61.8089 123.325 61.7689 120.178 60.5693 117.73C63.1683 118.352 65.8873 119.012 67.7266 119.634C68.3263 119.828 68.8861 120.022 69.4059 120.217C69.9257 120.411 70.3656 120.566 70.8054 120.683L72.8846 133.969C72.6447 133.775 72.3648 133.503 72.0449 133.231C69.326 130.861 62.0888 124.529 61.8089 123.713ZM62.6086 126.432C62.4486 126.161 62.2087 125.733 62.4486 125.345C63.9281 126.86 66.8069 129.424 71.6451 133.697C72.2448 134.241 72.7246 134.63 73.0045 134.902C73.0045 134.902 73.0045 134.902 73.0445 134.902L73.6043 138.398C70.5255 135.756 62.8485 126.86 62.6086 126.432ZM83.6404 156.812C83.2806 156.89 83.0007 156.929 82.7208 156.968C76.1233 158.056 70.5655 157.823 66.1672 156.23C60.8892 154.326 58.2502 151.412 57.7304 150.791C58.2902 149.276 59.1299 147.799 60.0096 146.207C61.369 143.798 62.7685 141.312 63.2483 138.592C63.8881 134.863 63.7681 132.454 63.3683 128.336C65.9673 131.366 71.6051 137.699 73.6843 139.253L75.6035 151.684C75.7235 152.423 76.1233 153.044 76.7231 153.51C77.2029 153.86 77.8027 154.054 78.4025 154.054C78.5624 154.054 78.6824 154.054 78.8423 154.015L97.715 151.179C97.9549 151.412 98.3148 151.568 98.7146 151.568L105.752 151.451H105.792L111.909 150.247C111.47 153.977 111.75 155.764 112.029 156.579C99.9541 153.977 88.1187 156.036 83.6404 156.812ZM121.986 147.644L105.792 150.869L98.7946 150.985C98.5547 150.985 98.3148 150.869 98.1948 150.713C98.1948 150.713 98.1948 150.674 98.1548 150.674C98.0748 150.597 98.0349 150.48 98.0349 150.364L97.5151 147.489L87.5989 87.6998C87.5589 87.4279 87.6789 87.156 87.8788 86.9617C87.9188 86.9229 87.9987 86.884 88.0787 86.8452L94.6362 84.3588L100.154 83.7761H100.234L112.309 82.4552C112.909 82.3775 113.429 82.6883 113.669 83.1933C113.669 83.1933 113.669 83.1933 113.669 83.2322C113.709 83.3487 113.749 83.4653 113.749 83.5818L122.985 146.207C123.145 146.867 122.705 147.489 121.986 147.644ZM124.745 146.945C124.145 147.217 123.945 147.217 123.625 146.828C123.665 146.595 123.705 146.362 123.665 146.129L114.429 83.5041C114.429 83.4653 114.429 83.4264 114.389 83.3876C114.548 83.3876 114.708 83.3876 114.868 83.3876L124.745 146.945ZM126.344 146.556C126.064 146.479 125.664 146.44 125.184 146.712C125.144 146.751 125.064 146.789 125.024 146.789L115.228 83.3099C115.428 83.3099 115.668 83.3099 115.868 83.271L126.344 146.556ZM127.663 146.517C127.543 146.712 127.463 146.828 127.264 146.867C127.104 146.906 126.984 146.867 126.744 146.751C126.704 146.751 126.704 146.712 126.664 146.712L116.148 83.3099C116.348 83.3099 116.588 83.3099 116.788 83.271L128.503 146.012C128.023 145.974 127.823 146.284 127.663 146.517ZM130.302 145.818C130.222 146.09 130.142 146.284 130.022 146.362C129.863 146.44 129.543 146.323 129.223 146.246C129.103 146.207 128.943 146.168 128.783 146.129L117.028 83.3099C117.307 83.3099 117.547 83.271 117.747 83.271L130.342 145.585C130.342 145.624 130.342 145.702 130.302 145.818ZM131.782 143.953C131.542 143.876 131.342 143.837 131.142 143.953C130.862 144.109 130.702 144.381 130.542 144.886L118.067 83.1933C118.267 83.1933 118.467 83.1545 118.547 83.1545C118.547 83.1545 118.547 83.1545 118.587 83.1545L132.182 144.342C132.102 144.148 131.942 144.031 131.782 143.953ZM133.581 143.06C133.101 142.982 132.861 143.643 132.582 144.692L118.867 83.0379C118.947 83.0379 119.027 82.9991 119.147 82.9602L134.461 144.031C134.141 143.448 133.901 143.099 133.581 143.06ZM137.1 143.215C136.54 142.361 136.06 141.584 135.5 141.7C134.941 141.817 134.821 142.71 134.781 144.031L119.427 82.8825C119.587 82.8437 119.706 82.8048 119.906 82.766L137.54 143.876C137.38 143.681 137.22 143.41 137.1 143.215ZM140.498 143.332C140.259 143.06 139.899 142.633 139.659 142.322C138.899 141.389 138.619 141.04 138.299 141.04C137.779 141.04 137.779 141.7 137.779 142.71C137.779 142.943 137.78 143.215 137.74 143.487L120.186 82.6883C120.346 82.6495 120.506 82.5718 120.666 82.5329L140.498 143.332ZM143.337 141.428C142.538 140.612 142.058 140.107 141.658 140.069C141.018 140.03 140.898 141.04 140.778 142.361C140.778 142.555 140.738 142.749 140.738 142.905L120.986 82.4164C121.186 82.3387 121.346 82.2998 121.546 82.2221L144.017 142.05C143.777 141.856 143.497 141.622 143.337 141.428ZM147.536 140.612C146.856 139.835 145.936 138.825 145.057 139.214C144.217 139.602 144.177 140.768 144.137 141.661L121.786 82.1444C121.986 82.0667 122.226 81.989 122.465 81.8725L147.776 140.807C147.776 140.846 147.776 140.884 147.776 140.923C147.696 140.807 147.616 140.729 147.536 140.612ZM151.334 139.33C151.134 139.214 150.894 139.02 150.694 138.864C149.775 138.165 148.855 137.427 148.255 137.815C147.736 138.126 147.736 139.058 147.776 139.991L122.785 81.8336C123.105 81.7171 123.385 81.6005 123.705 81.4451L151.334 139.33ZM154.333 136.727C153.853 136.339 153.174 135.756 152.214 136.417C151.734 136.727 151.694 137.66 151.614 138.515C151.614 138.709 151.574 138.981 151.574 139.175L123.945 81.2509C123.985 81.212 124.025 81.212 124.065 81.1732C124.345 81.0566 124.625 80.9012 124.904 80.7847L154.933 137.116C154.733 137.077 154.533 136.922 154.333 136.727ZM158.931 135.096C158.611 134.863 158.092 134.435 157.732 134.125C157.252 133.697 156.852 133.581 156.452 133.775C155.733 134.086 155.573 135.29 155.613 135.951C155.613 136.689 155.573 137.116 155.373 137.271C155.373 137.271 155.333 137.271 155.293 137.31L125.184 80.707C125.464 80.5516 125.704 80.435 125.944 80.3185L158.931 135.096ZM162.33 132.609C161.53 132.299 160.731 132.027 160.171 132.066C159.011 132.221 159.091 133.658 159.131 134.591C159.131 134.668 159.131 134.746 159.131 134.824L126.224 80.1631C126.584 79.9689 126.864 79.7358 127.144 79.5415L163.689 132.998C163.45 132.998 162.77 132.765 162.33 132.609ZM167.248 129.851C167.008 129.773 166.648 129.618 166.288 129.502L166.049 129.385C164.809 128.88 164.169 129.074 163.849 129.346C163.49 129.618 163.37 130.084 163.45 130.667C163.49 130.822 163.53 130.978 163.53 131.172C163.65 131.716 163.729 132.182 163.729 132.609L127.344 79.3861C127.623 79.1142 127.903 78.8422 128.223 78.5314L167.248 129.851ZM167.328 128.647C167.368 128.88 167.448 129.152 167.488 129.424C167.528 129.579 167.528 129.696 167.528 129.773L128.423 78.2595C128.623 77.9875 128.863 77.7156 129.103 77.4048L170.647 126.627C169.607 126.277 168.208 125.966 167.688 126.355C166.968 126.821 167.128 127.714 167.328 128.647ZM167.888 128.414C167.728 127.598 167.648 127.093 168.008 126.821C168.368 126.588 170.007 126.976 171.367 127.52L171.646 127.831C170.727 127.909 168.927 128.142 167.888 128.414ZM182.042 118.313L172.246 127.598L129.423 76.8609L140.658 69.0911C141.458 68.5472 142.578 68.6638 143.217 69.4407L153.333 81.5228C152.854 81.9502 152.334 82.4941 151.814 83.0768L151.654 83.2322C151.134 83.8149 150.814 84.1646 150.215 85.4854C150.055 85.8739 150.135 86.4178 150.495 86.8063C150.615 86.9229 150.734 87.0394 150.894 87.1171C150.894 87.156 150.894 87.1948 150.894 87.2725C150.894 87.661 151.174 87.9718 151.574 88.0495C151.494 88.0883 151.414 88.166 151.374 88.2049C150.615 88.7876 149.655 89.5646 149.815 90.5747C149.855 90.8078 149.975 91.1186 150.415 91.3128C150.694 91.4294 151.094 91.5071 151.494 91.5071C151.894 91.5071 152.374 91.4294 152.814 91.3128C152.614 91.7402 152.574 92.2063 152.774 92.556C152.934 92.8279 153.333 93.2164 154.373 93.0222C156.372 92.6337 159.451 90.4193 159.811 90.1862C160.011 90.0696 160.171 89.9531 160.331 89.8365L160.931 90.5358C160.371 90.8078 159.691 91.002 159.091 91.1963C158.611 91.3517 158.252 91.4294 158.052 91.5459C157.532 91.8567 157.252 92.4006 157.212 92.7891C157.172 93.0222 157.252 93.2164 157.372 93.333C157.052 93.4495 156.772 93.7215 156.772 94.11C156.772 94.5373 157.132 94.8869 157.572 94.8869C158.012 94.8869 158.372 94.5373 158.372 94.11C158.372 93.9934 158.332 93.8769 158.292 93.7603C158.491 93.7992 158.691 93.7992 158.931 93.7992C159.251 93.7992 159.651 93.7603 160.051 93.7215H160.091C160.091 93.7603 160.091 93.7992 160.091 93.838C160.091 94.2654 160.451 94.615 160.891 94.615C161.33 94.615 161.69 94.2654 161.69 93.838C161.69 93.6826 161.65 93.5272 161.57 93.4107C162.05 93.2941 162.53 93.1387 162.97 92.9833L182.242 115.943C182.802 116.604 182.762 117.653 182.042 118.313Z" fill="black"/>
<path d="M149.535 81.1732C149.975 81.1732 150.335 80.8236 150.335 80.3963C150.335 79.9689 149.975 79.6193 149.535 79.6193C149.095 79.6193 148.735 79.9689 148.735 80.3963C148.695 80.8236 149.055 81.1732 149.535 81.1732Z" fill="black"/>
<path d="M149.135 82.9215C148.695 82.9215 148.335 83.2712 148.335 83.6985C148.335 84.1258 148.695 84.4755 149.135 84.4755C149.575 84.4755 149.935 84.1258 149.935 83.6985C149.975 83.2712 149.575 82.9215 149.135 82.9215Z" fill="black"/>
<path d="M148.615 86.4178C148.175 86.4178 147.815 86.7675 147.815 87.1948C147.815 87.6222 148.175 87.9718 148.615 87.9718C149.055 87.9718 149.415 87.6222 149.415 87.1948C149.415 86.7675 149.055 86.4178 148.615 86.4178Z" fill="black"/>
<path d="M154.293 93.2942C153.853 93.2942 153.493 93.6438 153.493 94.0712C153.493 94.4985 153.853 94.8482 154.293 94.8482C154.733 94.8482 155.093 94.4985 155.093 94.0712C155.093 93.6438 154.733 93.2942 154.293 93.2942Z" fill="black"/>
<path d="M163.33 99.9762C162.89 99.9762 162.53 100.326 162.53 100.753C162.53 101.181 162.89 101.53 163.33 101.53C163.769 101.53 164.129 101.181 164.129 100.753C164.169 100.326 163.809 99.9762 163.33 99.9762Z" fill="black"/>
<path d="M162.73 103.278C162.29 103.278 161.93 103.628 161.93 104.055C161.93 104.483 162.29 104.832 162.73 104.832C163.17 104.832 163.53 104.483 163.53 104.055C163.53 103.628 163.17 103.278 162.73 103.278Z" fill="black"/>
<path d="M169.287 103.356C168.847 103.356 168.488 103.706 168.488 104.133C168.488 104.56 168.847 104.91 169.287 104.91C169.727 104.91 170.087 104.56 170.087 104.133C170.127 103.745 169.727 103.356 169.287 103.356Z" fill="black"/>
<path d="M166.528 99.8596C166.089 99.8596 165.729 100.209 165.729 100.637C165.729 101.064 166.089 101.414 166.528 101.414C166.968 101.414 167.328 101.064 167.328 100.637C167.368 100.209 167.008 99.8596 166.528 99.8596Z" fill="black"/>
<path d="M165.929 103.667C165.489 103.667 165.129 104.017 165.129 104.444C165.129 104.871 165.489 105.221 165.929 105.221C166.368 105.221 166.728 104.871 166.728 104.444C166.728 104.017 166.368 103.667 165.929 103.667Z" fill="black"/>
<path d="M160.011 99.8596C159.571 99.8596 159.211 100.209 159.211 100.637C159.211 101.064 159.571 101.414 160.011 101.414C160.451 101.414 160.81 101.064 160.81 100.637C160.81 100.209 160.451 99.8596 160.011 99.8596Z" fill="black"/>
<path d="M163.609 96.2855C163.17 96.2855 162.81 96.6352 162.81 97.0625C162.81 97.4898 163.17 97.8395 163.609 97.8395C164.049 97.8395 164.409 97.4898 164.409 97.0625C164.409 96.6352 164.049 96.2855 163.609 96.2855Z" fill="black"/>
<path d="M160.611 96.5575C160.171 96.5575 159.811 96.9071 159.811 97.3345C159.811 97.7618 160.171 98.1115 160.611 98.1115C161.05 98.1115 161.41 97.7618 161.41 97.3345C161.41 96.946 161.05 96.5575 160.611 96.5575Z" fill="black"/>
<path d="M157.092 96.5575C156.652 96.5575 156.292 96.9071 156.292 97.3345C156.292 97.7618 156.652 98.1115 157.092 98.1115C157.532 98.1115 157.892 97.7618 157.892 97.3345C157.932 96.946 157.572 96.5575 157.092 96.5575Z" fill="black"/>
<path d="M157.012 76.084C161.45 76.3948 164.449 78.4149 165.009 81.484C165.049 81.6394 165.169 81.7171 165.289 81.7171H165.329C165.489 81.6782 165.609 81.5228 165.569 81.3674C164.929 78.0653 161.65 75.812 157.012 75.5012C156.852 75.5012 156.692 75.6178 156.692 75.7732C156.692 75.9286 156.812 76.084 157.012 76.084Z" fill="black"/>
<path d="M162.05 74.763C163.689 74.4911 164.569 75.3069 164.849 76.1228C164.889 76.2393 165.009 76.317 165.129 76.317C165.169 76.317 165.209 76.317 165.209 76.317C165.369 76.2781 165.449 76.0839 165.409 75.9285C164.929 74.6076 163.569 73.9472 161.93 74.1803C161.77 74.2191 161.65 74.3745 161.69 74.5299C161.73 74.6853 161.85 74.8019 162.05 74.763Z" fill="black"/>
<path d="M26.3825 129.268C20.4248 127.52 17.5859 124.14 17.9458 119.207C17.9458 119.051 17.8258 118.896 17.6659 118.896C17.506 118.896 17.346 119.012 17.346 119.168C16.9462 124.412 19.905 128.025 26.1826 129.851C26.2226 129.851 26.2226 129.851 26.2626 129.851C26.3825 129.851 26.5025 129.774 26.5425 129.657C26.6624 129.463 26.5425 129.307 26.3825 129.268Z" fill="black"/>
<path d="M137.42 56.5816C137.54 56.6593 137.7 56.6981 137.82 56.6981C138.139 56.6981 138.499 56.5428 138.859 56.2708C139.219 55.9989 139.539 55.6104 139.819 55.2219C140.379 54.406 140.698 53.4737 140.499 52.8909C140.499 52.8521 140.499 52.8132 140.459 52.7744C140.379 52.5801 140.139 51.5701 139.859 50.3269L143.777 47.6463L144.497 50.5211C143.857 50.56 143.098 51.2204 142.538 52.0362C141.858 53.0463 141.498 54.2895 142.138 54.7168C142.258 54.7945 142.418 54.8334 142.538 54.8334C142.858 54.8334 143.217 54.678 143.577 54.4061C143.937 54.1341 144.257 53.7456 144.537 53.3571C145.017 52.619 145.337 51.8032 145.257 51.2204L143.817 45.4707C143.777 45.393 143.737 45.3153 143.617 45.2765C143.537 45.2376 143.417 45.2376 143.337 45.3153L138.939 48.3067C138.859 48.3844 138.779 48.501 138.819 48.6175C139.259 50.7542 139.539 51.842 139.659 52.4636C139.059 52.5024 138.299 53.1629 137.74 53.9787C137.1 54.9111 136.74 56.1543 137.42 56.5816ZM139.459 48.6175L143.337 45.9758L143.617 47.0636L139.699 49.7053C139.619 49.3557 139.539 48.9672 139.459 48.6175Z" fill="black"/>
<path d="M26.3426 91.7402C26.9423 91.7402 27.782 91.274 28.4217 90.6136C28.9415 90.1085 29.3414 89.5258 29.5013 89.0207C29.5013 88.9819 29.5013 88.943 29.5413 88.9042C29.9012 87.4279 29.7412 83.7761 29.6213 81.7948C30.1411 82.1833 30.8208 82.261 31.3806 82.2998C32.4602 82.3775 33.2199 82.4552 33.0999 84.2423C33.0999 84.3977 33.2199 84.5531 33.3798 84.5531C33.5398 84.5531 33.6997 84.4365 33.6997 84.2811C33.8197 81.9113 32.5002 81.8337 31.4206 81.756C30.5409 81.6783 29.8212 81.6394 29.5013 80.6293C29.4613 80.4739 29.3014 80.3962 29.1415 80.4351C28.9815 80.4739 28.9016 80.5905 28.9016 80.7459C29.0615 82.7272 29.2214 86.1071 29.0215 87.9718C28.3818 87.7387 27.4221 88.2826 26.6624 89.0207C25.7828 89.8754 25.183 91.0409 25.7428 91.5848C25.9427 91.6625 26.1426 91.7402 26.3426 91.7402Z" fill="black"/>
<path d="M48.134 132.338C47.2944 132.338 46.4947 132.338 45.9749 131.755C45.8949 131.677 45.735 131.638 45.615 131.716C45.4951 131.794 45.4551 131.91 45.4951 132.066C45.695 132.726 45.9349 133.464 46.1748 134.241C46.1748 134.241 46.1748 134.241 46.1748 134.28C46.5746 135.601 46.9745 136.922 47.2144 137.699C46.5746 137.738 45.8149 138.398 45.2552 139.175C44.8953 139.68 44.6554 140.224 44.5354 140.69C44.3755 141.428 44.6554 141.739 44.8153 141.856C44.9353 141.933 45.0952 141.972 45.2152 141.972C45.8549 141.972 46.6546 141.312 47.2144 140.496C47.7342 139.797 48.0541 138.981 47.9741 138.398C47.9741 138.243 47.6142 136.961 46.8945 134.591C47.1744 134.63 47.4943 134.63 47.7742 134.63C48.9337 134.63 49.8534 134.668 50.2132 135.989C50.2532 136.106 50.3732 136.222 50.4931 136.222C50.5331 136.222 50.5331 136.222 50.5731 136.222C50.733 136.184 50.813 136.028 50.773 135.873C50.2932 134.125 48.9737 134.086 47.7742 134.086C47.4143 134.086 47.0145 134.086 46.6946 134.008C46.5746 133.62 46.4547 133.192 46.2948 132.765C46.8945 132.998 47.5343 132.998 48.134 132.998C49.2936 132.998 50.2132 133.037 50.5731 134.358C50.6131 134.513 50.773 134.591 50.933 134.552C51.0929 134.513 51.1729 134.358 51.1329 134.202C50.693 132.376 49.3336 132.338 48.134 132.338Z" fill="black"/>
<path d="M66.9667 52.1916C67.1267 52.2693 67.2866 52.1916 67.3666 52.0362C67.4465 51.8808 67.3666 51.7254 67.2066 51.6478C65.7272 51.0262 63.2482 51.5312 61.6488 53.6679C61.5688 53.7845 61.5688 53.9787 61.7287 54.0564C61.7687 54.0952 61.8487 54.0953 61.8887 54.0953C61.9687 54.0953 62.0886 54.0564 62.1286 53.9787C63.4881 52.2305 65.6472 51.6866 66.9667 52.1916Z" fill="black"/>
<path d="M73.2045 54.2896C73.0445 54.2119 72.8846 54.2507 72.8046 54.4061C72.7247 54.5615 72.7646 54.7169 72.9246 54.7946C73.2844 54.9889 73.6843 55.0666 74.1241 55.0666C75.0837 55.0666 76.0834 54.5615 76.963 53.6291C77.083 53.5126 77.083 53.3183 76.963 53.2018C76.8431 53.0852 76.6431 53.0852 76.5232 53.2018C75.4436 54.4061 74.1641 54.7946 73.2045 54.2896Z" fill="black"/>
<path d="M68.2863 55.727C68.3663 55.5716 68.2863 55.4162 68.1264 55.3385C67.9665 55.2608 67.8065 55.3385 67.7266 55.4939C67.3267 56.2708 66.527 56.5816 66.0472 56.6982C65.2475 56.8924 64.4078 56.7759 63.968 56.4262C63.8481 56.3097 63.6481 56.3485 63.5282 56.4651C63.4082 56.5816 63.4482 56.7759 63.5682 56.8924C63.968 57.2032 64.5678 57.3586 65.2475 57.3586C65.5674 57.3586 65.8473 57.3198 66.1672 57.2421C67.1668 57.009 67.8865 56.4651 68.2863 55.727Z" fill="black"/>
</svg>
