<?xml version="1.0" encoding="UTF-8"?>
<svg id="Capa_2" data-name="Capa 2" xmlns="http://www.w3.org/2000/svg" viewBox="0 0 729.78 290.47">
  <defs>
    <style>
      .cls-1 {
        stroke-width: .5px;
      }

      .cls-1, .cls-2, .cls-3, .cls-4 {
        stroke-miterlimit: 10;
      }

      .cls-1, .cls-3 {
        fill: none;
      }

      .cls-1, .cls-3, .cls-4 {
        stroke: #1d1d1b;
      }

      .cls-5 {
        letter-spacing: 0em;
      }

      .cls-6 {
        letter-spacing: 0em;
      }

      .cls-2 {
        stroke: #000;
      }

      .cls-7 {
        letter-spacing: 0em;
      }

      .cls-8 {
        letter-spacing: 0em;
      }

      .cls-9 {
        letter-spacing: -.03em;
      }

      .cls-10, .cls-11, .cls-12 {
        font-size: 12.75px;
      }

      .cls-10, .cls-13, .cls-14, .cls-15 {
        font-family: Montserrat-Regular, Montserrat;
      }

      .cls-11 {
        fill: #fff;
      }

      .cls-11, .cls-12 {
        font-family: Montserrat-SemiBold, Montserrat;
        font-weight: 600;
      }

      .cls-12 {
        fill: #fac348;
      }

      .cls-16 {
        letter-spacing: 0em;
      }

      .cls-17 {
        letter-spacing: -.02em;
      }

      .cls-18 {
        letter-spacing: 0em;
      }

      .cls-13 {
        font-size: 10.62px;
      }

      .cls-19 {
        letter-spacing: -.05em;
      }

      .cls-20 {
        letter-spacing: .02em;
      }

      .cls-14 {
        font-size: 20.18px;
      }

      .cls-21 {
        letter-spacing: -.02em;
      }

      .cls-22 {
        fill: #eb4138;
        stroke-width: 0px;
      }

      .cls-15 {
        font-size: 9.56px;
      }

      .cls-23 {
        letter-spacing: -.02em;
      }

      .cls-4 {
        fill: #1d1d1b;
      }

      .cls-24 {
        letter-spacing: 0em;
      }

      .cls-25 {
        letter-spacing: 0em;
      }

      .cls-26 {
        letter-spacing: 0em;
      }

      .cls-27 {
        letter-spacing: -.01em;
      }

      .cls-28 {
        letter-spacing: 0em;
      }

      .cls-29 {
        letter-spacing: 0em;
      }
    </style>
  </defs>
  <rect class="cls-3" x=".74" y="16.11" width="43.67" height="22.25" rx="2.75" ry="2.75"/>
  <rect class="cls-3" x="53.13" y="16.11" width="43.67" height="22.25" rx="2.75" ry="2.75"/>
  <rect class="cls-3" x="105.53" y="16.11" width="43.67" height="22.25" rx="2.75" ry="2.75"/>
  <rect class="cls-3" x="158.17" y="16.11" width="43.67" height="22.25" rx="2.75" ry="2.75"/>
  <rect class="cls-3" x="210.1" y="16.11" width="43.67" height="22.25" rx="2.75" ry="2.75"/>
  <rect class="cls-3" x="262.97" y="16.11" width="43.67" height="22.25" rx="2.75" ry="2.75"/>
  <rect class="cls-3" x="315.13" y="16.11" width="43.67" height="22.25" rx="2.75" ry="2.75"/>
  <rect class="cls-3" x="367.76" y="16.11" width="43.67" height="22.25" rx="2.75" ry="2.75"/>
  <rect class="cls-3" x="420.28" y="16.11" width="43.67" height="22.25" rx="2.75" ry="2.75"/>
  <rect class="cls-3" x="472.56" y="16.11" width="43.67" height="22.25" rx="2.75" ry="2.75"/>
  <rect class="cls-3" x="524.84" y="16.11" width="43.67" height="22.25" rx="2.75" ry="2.75"/>
  <rect class="cls-3" x="577.48" y="16.11" width="43.67" height="22.25" rx="2.75" ry="2.75"/>
  <rect class="cls-3" x="630" y="16.11" width="43.67" height="22.25" rx="2.75" ry="2.75"/>
  <rect class="cls-3" x="682.16" y="16.11" width="43.67" height="22.25" rx="2.75" ry="2.75"/>
  <rect class="cls-3" x="1.33" y="46.15" width="42.49" height="42.49" rx="3.22" ry="3.22"/>
  <rect class="cls-3" x="1.33" y="96.42" width="71.75" height="42.49" rx="3.22" ry="3.22"/>
  <rect class="cls-3" x="1.33" y="146.7" width="80.37" height="42.49" rx="3.22" ry="3.22"/>
  <rect class="cls-22" x="51.84" y="46.15" width="42.49" height="42.49" rx="3.22" ry="3.22"/>
  <rect class="cls-22" x="59.27" y="53.58" width="27.63" height="27.63" rx="3.22" ry="3.22"/>
  <rect class="cls-22" x="102.11" y="46.15" width="42.49" height="42.49" rx="3.22" ry="3.22"/>
  <rect class="cls-22" x="79.33" y="96.42" width="42.49" height="42.49" rx="3.22" ry="3.22"/>
  <rect class="cls-3" x="87.75" y="146.7" width="42.49" height="42.49" rx="3.22" ry="3.22"/>
  <rect class="cls-3" x="137.52" y="146.7" width="42.49" height="42.49" rx="3.22" ry="3.22"/>
  <rect class="cls-3" x="187.67" y="146.7" width="42.49" height="42.49" rx="3.22" ry="3.22"/>
  <rect class="cls-3" x="237.71" y="146.7" width="42.49" height="42.49" rx="3.22" ry="3.22"/>
  <rect class="cls-3" x="288.22" y="146.7" width="42.49" height="42.49" rx="3.22" ry="3.22"/>
  <rect class="cls-3" x="339.28" y="146.7" width="42.49" height="42.49" rx="3.22" ry="3.22"/>
  <rect class="cls-3" x="388.77" y="146.7" width="42.49" height="42.49" rx="3.22" ry="3.22"/>
  <rect class="cls-3" x="438.98" y="146.7" width="42.49" height="42.49" rx="3.22" ry="3.22"/>
  <rect class="cls-3" x="540.34" y="146.7" width="42.49" height="42.49" rx="3.22" ry="3.22"/>
  <rect class="cls-3" x="572.46" y="196.97" width="42.49" height="42.49" rx="3.22" ry="3.22"/>
  <rect class="cls-3" x="578.1" y="267.47" width="42.49" height="22.5" rx="3.22" ry="3.22"/>
  <rect class="cls-3" x="623.62" y="267.23" width="42.49" height="22.5" rx="3.22" ry="3.22"/>
  <rect class="cls-3" x="623.62" y="242.68" width="42.49" height="22.5" rx="3.22" ry="3.22"/>
  <rect class="cls-3" x="669.26" y="266.62" width="42.49" height="22.5" rx="3.22" ry="3.22"/>
  <rect class="cls-3" x="522.67" y="196.97" width="42.49" height="42.49" rx="3.22" ry="3.22"/>
  <rect class="cls-3" x="515.68" y="247.25" width="42.49" height="42.49" rx="3.22" ry="3.22"/>
  <rect class="cls-3" x="472.89" y="196.97" width="42.49" height="42.49" rx="3.22" ry="3.22"/>
  <rect class="cls-3" x="454.62" y="247.25" width="55.07" height="42.49" rx="3.22" ry="3.22"/>
  <rect class="cls-3" x="423.01" y="196.97" width="42.49" height="42.49" rx="3.22" ry="3.22"/>
  <rect class="cls-3" x="372.34" y="196.97" width="42.49" height="42.49" rx="3.22" ry="3.22"/>
  <rect class="cls-3" x="321.67" y="196.97" width="42.49" height="42.49" rx="3.22" ry="3.22"/>
  <rect class="cls-3" x="271.79" y="196.97" width="42.49" height="42.49" rx="3.22" ry="3.22"/>
  <rect class="cls-3" x="221.28" y="196.97" width="42.49" height="42.49" rx="3.22" ry="3.22"/>
  <rect class="cls-3" x="171.24" y="196.97" width="42.49" height="42.49" rx="3.22" ry="3.22"/>
  <rect class="cls-3" x="72.14" y="196.97" width="42.49" height="42.49" rx="3.22" ry="3.22"/>
  <rect class="cls-3" x=".5" y="247.25" width="42.49" height="42.49" rx="3.22" ry="3.22"/>
  <rect class="cls-3" x="49.12" y="247.25" width="42.49" height="42.49" rx="3.22" ry="3.22"/>
  <rect class="cls-3" x="99" y="247.25" width="42.49" height="42.49" rx="3.22" ry="3.22"/>
  <rect class="cls-3" x="147" y="247.25" width="55.86" height="42.49" rx="3.22" ry="3.22"/>
  <rect class="cls-3" x="209.78" y="247.25" width="239.18" height="42.49" rx="3.22" ry="3.22"/>
  <rect class="cls-3" x="1.28" y="196.97" width="64.22" height="42.49" rx="3.22" ry="3.22"/>
  <rect class="cls-3" x="591.21" y="146.7" width="42.49" height="42.49" rx="3.22" ry="3.22"/>
  <rect class="cls-3" x="489.71" y="146.7" width="42.49" height="42.49" rx="3.22" ry="3.22"/>
  <rect class="cls-22" x="129.49" y="96.42" width="42.49" height="42.49" rx="3.22" ry="3.22"/>
  <rect class="cls-22" x="179.71" y="96.42" width="42.49" height="42.49" rx="3.22" ry="3.22"/>
  <rect class="cls-22" x="230.16" y="96.42" width="42.49" height="42.49" rx="3.22" ry="3.22"/>
  <rect class="cls-22" x="280.2" y="96.42" width="42.49" height="42.49" rx="3.22" ry="3.22"/>
  <rect class="cls-22" x="330.71" y="96.42" width="42.49" height="42.49" rx="3.22" ry="3.22"/>
  <rect class="cls-22" x="380.75" y="96.42" width="42.49" height="42.49" rx="3.22" ry="3.22"/>
  <rect class="cls-22" x="431.26" y="96.42" width="42.49" height="42.49" rx="3.22" ry="3.22"/>
  <rect class="cls-22" x="481.46" y="96.42" width="42.49" height="42.49" rx="3.22" ry="3.22"/>
  <rect class="cls-22" x="531.89" y="96.42" width="42.49" height="42.49" rx="3.22" ry="3.22"/>
  <rect class="cls-3" x="581.92" y="96.42" width="42.49" height="42.49" rx="3.22" ry="3.22"/>
  <rect class="cls-3" x="632.63" y="96.42" width="42.49" height="42.49" rx="3.22" ry="3.22"/>
  <rect class="cls-3" x="152.39" y="46.15" width="42.49" height="42.49" rx="3.22" ry="3.22"/>
  <rect class="cls-22" x="202.86" y="46.15" width="42.49" height="42.49" rx="3.22" ry="3.22"/>
  <rect class="cls-22" x="252.9" y="46.15" width="42.49" height="42.49" rx="3.22" ry="3.22"/>
  <rect class="cls-22" x="303.21" y="46.15" width="42.49" height="42.49" rx="3.22" ry="3.22"/>
  <rect class="cls-3" x="353.45" y="46.15" width="42.49" height="42.49" rx="3.22" ry="3.22"/>
  <rect class="cls-22" x="404" y="46.15" width="42.49" height="42.49" rx="3.22" ry="3.22"/>
  <rect class="cls-22" x="454.27" y="46.15" width="42.49" height="42.49" rx="3.22" ry="3.22"/>
  <rect class="cls-3" x="504.58" y="46.15" width="42.49" height="42.49" rx="3.22" ry="3.22"/>
  <rect class="cls-3" x="554.39" y="46.15" width="42.49" height="42.49" rx="3.22" ry="3.22"/>
  <rect class="cls-3" x="604.86" y="46.15" width="42.49" height="42.49" rx="3.22" ry="3.22"/>
  <rect class="cls-3" x="654.78" y="46.15" width="71.05" height="42.49" rx="3.22" ry="3.22"/>
  <path class="cls-3" d="m725.82,99.84c0-1.89-1.53-3.42-3.42-3.42h-35.64c-1.89,0-3.42,1.53-3.42,3.42v46.85h-39.77c-1.89,0-3.42,1.53-3.42,3.42v35.64c0,1.89,1.53,3.42,3.42,3.42h78.83c1.89,0,3.42-1.53,3.42-3.42v-35.64c0-.18-.03-.35-.05-.53.03-.17.05-.35.05-.53v-49.22Z"/>
  <rect class="cls-3" x="622.6" y="196.97" width="103.22" height="42.49" rx="3.22" ry="3.22"/>
  <text class="cls-10" transform="translate(11.44 31.5)"><tspan class="cls-5" x="0" y="0">E</tspan><tspan x="8.42" y="0">sc</tspan></text>
  <text class="cls-10" transform="translate(14.39 123.23)"><tspan class="cls-9" x="0" y="0">T</tspan><tspan x="6.95" y="0">ab</tspan></text>
  <text class="cls-10" transform="translate(7.07 173.75)"><tspan class="cls-5" x="0" y="0">C</tspan><tspan x="9.06" y="0" xml:space="preserve">aps  </tspan><tspan class="cls-18" x="38.13" y="0">L</tspan><tspan x="45.54" y="0">o</tspan><tspan class="cls-5" x="53.53" y="0">c</tspan><tspan x="60.61" y="0">k</tspan></text>
  <text class="cls-10" transform="translate(25.3 224.8)"><tspan x="0" y="0">Shift</tspan></text>
  <text class="cls-10" transform="translate(10.77 277.79)"><tspan x="0" y="0">Ct</tspan><tspan class="cls-5" x="14.34" y="0">r</tspan><tspan x="19.35" y="0">l</tspan></text>
  <text class="cls-10" transform="translate(62.62 277.79)"><tspan class="cls-8" x="0" y="0">F</tspan><tspan x="7.94" y="0">n</tspan></text>
  <text class="cls-10" transform="translate(166.24 277.79)"><tspan x="0" y="0">A</tspan><tspan class="cls-26" x="9.14" y="0">l</tspan><tspan x="12.59" y="0">t</tspan></text>
  <text class="cls-10" transform="translate(473.55 277.79)"><tspan x="0" y="0">A</tspan><tspan class="cls-26" x="9.14" y="0">l</tspan><tspan x="12.59" y="0">t</tspan></text>
  <text class="cls-10" transform="translate(679.56 174.53)"><tspan x="0" y="0">En</tspan><tspan class="cls-17" x="17.16" y="0">t</tspan><tspan x="22.09" y="0">er</tspan></text>
  <text class="cls-10" transform="translate(525.83 277.79)"><tspan x="0" y="0">Ct</tspan><tspan class="cls-18" x="14.34" y="0">r</tspan><tspan x="19.35" y="0">l</tspan></text>
  <text class="cls-10" transform="translate(68.27 31.5)"><tspan class="cls-20" x="0" y="0">F</tspan><tspan x="8.26" y="0">1</tspan></text>
  <text class="cls-12" transform="translate(63.8 71.65)"><tspan x="0" y="0">C#</tspan></text>
  <text class="cls-12" transform="translate(113.56 71.65)"><tspan x="0" y="0">D#</tspan></text>
  <text class="cls-12" transform="translate(96.65 123.23)"><tspan x="0" y="0">C</tspan></text>
  <text class="cls-12" transform="translate(145.5 123.23)"><tspan x="0" y="0">D</tspan></text>
  <text class="cls-12" transform="translate(196.8 123.23)"><tspan x="0" y="0">E</tspan></text>
  <text class="cls-12" transform="translate(247.14 123.23)"><tspan x="0" y="0">F</tspan></text>
  <text class="cls-12" transform="translate(295.92 123.35)"><tspan x="0" y="0">G</tspan></text>
  <text class="cls-12" transform="translate(346.94 123.35)"><tspan x="0" y="0">A</tspan></text>
  <text class="cls-12" transform="translate(397.37 123.35)"><tspan x="0" y="0">B</tspan></text>
  <text class="cls-12" transform="translate(447.87 123.35)"><tspan x="0" y="0">C</tspan></text>
  <text class="cls-12" transform="translate(497.55 123.35)"><tspan x="0" y="0">D</tspan></text>
  <text class="cls-12" transform="translate(550.12 123.35)"><tspan x="0" y="0">E</tspan></text>
  <text class="cls-11" transform="translate(90.31 222.7)"><tspan x="0" y="0">C</tspan></text>
  <rect class="cls-3" x="121.66" y="196.97" width="42.49" height="42.49" rx="3.22" ry="3.22"/>
  <text class="cls-12" transform="translate(215.29 71.65)"><tspan x="0" y="0">F#</tspan></text>
  <text class="cls-12" transform="translate(264.83 71.65)"><tspan x="0" y="0">G#</tspan></text>
  <text class="cls-12" transform="translate(315.15 71.65)"><tspan x="0" y="0">A#</tspan></text>
  <text class="cls-12" transform="translate(415.94 71.65)"><tspan x="0" y="0">C#</tspan></text>
  <text class="cls-12" transform="translate(467.09 71.65)"><tspan x="0" y="0">D#</tspan></text>
  <text class="cls-10" transform="translate(119.66 31.5)"><tspan class="cls-16" x="0" y="0">F</tspan><tspan x="8.06" y="0">2</tspan></text>
  <text class="cls-14" transform="translate(7.07 83.75)"><tspan x="0" y="0">º</tspan></text>
  <text class="cls-14" transform="translate(80.44 219.55)"><tspan x="0" y="0">&gt;</tspan></text>
  <text class="cls-14" transform="translate(93.39 234.67)"><tspan x="0" y="0">&lt;</tspan></text>
  <text class="cls-14" transform="translate(194.64 170.27)"><tspan x="0" y="0">D</tspan></text>
  <text class="cls-14" transform="translate(242.8 170.27)"><tspan x="0" y="0">F</tspan></text>
  <text class="cls-14" transform="translate(293.79 170.57)"><tspan x="0" y="0">G</tspan></text>
  <text class="cls-14" transform="translate(345.51 170.57)"><tspan x="0" y="0">B</tspan></text>
  <text class="cls-14" transform="translate(143.49 170.27)"><tspan x="0" y="0">S</tspan></text>
  <text class="cls-14" transform="translate(129.47 220.63)"><tspan x="0" y="0">Z</tspan></text>
  <text class="cls-14" transform="translate(178.63 220.63)"><tspan x="0" y="0">X</tspan></text>
  <text class="cls-14" transform="translate(227.52 220.63)"><tspan x="0" y="0">C</tspan></text>
  <text class="cls-14" transform="translate(277.91 220.63)"><tspan x="0" y="0">v</tspan></text>
  <text class="cls-14" transform="translate(329.82 220.63)"><tspan x="0" y="0">B</tspan></text>
  <text class="cls-14" transform="translate(379.1 220.63)"><tspan x="0" y="0">N</tspan></text>
  <text class="cls-14" transform="translate(428.74 220.63)"><tspan x="0" y="0">M</tspan></text>
  <text class="cls-14" transform="translate(94.53 170.27)"><tspan x="0" y="0">A</tspan></text>
  <text class="cls-14" transform="translate(398.33 170.27)"><tspan x="0" y="0">J</tspan></text>
  <text class="cls-14" transform="translate(445.58 170.27)"><tspan x="0" y="0">K</tspan></text>
  <text class="cls-14" transform="translate(496.56 170.27)"><tspan x="0" y="0">L</tspan></text>
  <text class="cls-14" transform="translate(588.36 116.66)"><tspan x="0" y="0">^</tspan></text>
  <text/>
  <text class="cls-14" transform="translate(641.83 119.64)"><tspan x="0" y="0">*</tspan></text>
  <text class="cls-14" transform="translate(608.12 131.26)"><tspan x="0" y="0">[</tspan></text>
  <text class="cls-14" transform="translate(546.12 171.27)"><tspan x="0" y="0">¨</tspan></text>
  <text class="cls-14" transform="translate(565.28 180.35)"><tspan x="0" y="0">{</tspan></text>
  <text class="cls-14" transform="translate(480.29 218.29)"><tspan x="0" y="0">;</tspan></text>
  <text class="cls-14" transform="translate(499.85 231.08)"><tspan x="0" y="0">,</tspan></text>
  <text class="cls-14" transform="translate(532 218.29)"><tspan x="0" y="0">:</tspan></text>
  <text class="cls-14" transform="translate(582.95 218.29)"><tspan x="0" y="0">-</tspan></text>
  <text class="cls-14" transform="translate(598.51 229.95)"><tspan x="0" y="0">_</tspan></text>
  <text class="cls-14" transform="translate(551.57 231.08)"><tspan x="0" y="0">.</tspan></text>
  <text class="cls-14" transform="translate(596.08 170.27)"><tspan x="0" y="0">Ç</tspan></text>
  <text class="cls-14" transform="translate(618.12 180.35)"><tspan x="0" y="0">}</tspan></text>
  <text class="cls-14" transform="translate(656.38 132.64)"><tspan x="0" y="0">]</tspan></text>
  <text class="cls-14" transform="translate(357.44 83.75)"><tspan x="0" y="0">7</tspan></text>
  <text class="cls-14" transform="translate(507.29 83.2)"><tspan x="0" y="0">0</tspan></text>
  <text class="cls-14" transform="translate(7.07 66.54)"><tspan x="0" y="0">ª</tspan></text>
  <text class="cls-14" transform="translate(27.41 80.08)"><tspan x="0" y="0">\</tspan></text>
  <text class="cls-14" transform="translate(377.37 65.67)"><tspan x="0" y="0">/</tspan></text>
  <text class="cls-14" transform="translate(527.38 65.67)"><tspan x="0" y="0">=</tspan></text>
  <text class="cls-14" transform="translate(574.84 64.67)"><tspan x="0" y="0">?</tspan></text>
  <text class="cls-14" transform="translate(566.37 90.18)"><tspan x="0" y="0">‘</tspan></text>
  <text class="cls-14" transform="translate(626.91 64.67)"><tspan x="0" y="0">¿</tspan></text>
  <text class="cls-10" transform="translate(171.82 31.5)"><tspan x="0" y="0">F3</tspan></text>
  <text class="cls-10" transform="translate(224.06 31.5)"><tspan class="cls-19" x="0" y="0">F</tspan><tspan x="7.43" y="0">4</tspan></text>
  <text class="cls-10" transform="translate(277.25 31.5)"><tspan class="cls-23" x="0" y="0">F</tspan><tspan x="7.84" y="0">5</tspan></text>
  <text class="cls-10" transform="translate(328.86 31.5)"><tspan class="cls-27" x="0" y="0">F</tspan><tspan x="7.89" y="0">6</tspan></text>
  <text class="cls-10" transform="translate(381.53 31.5)"><tspan class="cls-24" x="0" y="0">F</tspan><tspan x="8.19" y="0">7</tspan></text>
  <text class="cls-10" transform="translate(434.11 31.5)"><tspan class="cls-23" x="0" y="0">F</tspan><tspan x="7.84" y="0">8</tspan></text>
  <text class="cls-10" transform="translate(486.39 31.5)"><tspan class="cls-28" x="0" y="0">F</tspan><tspan x="8.14" y="0">9</tspan></text>
  <text class="cls-10" transform="translate(535.7 31.5)"><tspan class="cls-20" x="0" y="0">F</tspan><tspan x="8.26" y="0">10</tspan></text>
  <text class="cls-10" transform="translate(589.71 31.5)"><tspan class="cls-20" x="0" y="0">F</tspan><tspan x="8.26" y="0">11</tspan></text>
  <text class="cls-10" transform="translate(642.51 31.5)"><tspan class="cls-20" x="0" y="0">F</tspan><tspan x="8.26" y="0">12</tspan></text>
  <text class="cls-13" transform="translate(685.92 31.43)"><tspan x="0" y="0">Dele</tspan><tspan class="cls-21" x="24.46" y="0">t</tspan><tspan x="28.57" y="0">e</tspan></text>
  <text class="cls-15" transform="translate(665.24 63.89)"><tspan x="0" y="0">B</tspan><tspan class="cls-29" x="7.21" y="0">a</tspan><tspan class="cls-25" x="12.87" y="0">c</tspan><tspan x="18.17" y="0">k s</tspan><tspan class="cls-6" x="31.1" y="0">p</tspan><tspan class="cls-29" x="37.55" y="0">a</tspan><tspan class="cls-7" x="43.21" y="0">c</tspan><tspan x="48.5" y="0">e</tspan></text>
  <rect class="cls-1" x="110.96" y="260.31" width="18.25" height="18.25"/>
  <polygon class="cls-1" points="12.62 219.22 9.23 219.22 16.09 212.36 22.97 219.25 19.38 219.25 19.38 227.16 12.54 227.16 12.62 219.22"/>
  <text class="cls-10" transform="translate(661.49 226.23)"><tspan x="0" y="0">Shift</tspan></text>
  <polygon class="cls-1" points="649.03 220.65 645.65 220.65 652.5 213.8 659.38 220.68 655.79 220.68 655.79 228.6 648.95 228.6 649.03 220.65"/>
  <line class="cls-3" x1="698.06" y1="70.38" x2="675.12" y2="70.38"/>
  <polyline class="cls-3" points="675.12 165.61 675.12 171.27 659.18 171.27"/>
  <polygon class="cls-4" points="658.84 166.76 658.87 170.84 658.89 174.92 655.35 172.9 651.81 170.89 655.32 168.83 658.84 166.76"/>
  <polygon class="cls-4" points="667.83 70.38 671.54 69.16 675.25 67.93 675.25 70.38 675.25 72.83 671.54 71.6 667.83 70.38"/>
  <polygon class="cls-2" points="706.83 275.67 704.15 277.07 701.48 278.48 701.48 275.67 701.48 272.86 704.15 274.26 706.83 275.67"/>
  <polygon class="cls-4" points="635.23 247.99 636.64 250.67 638.04 253.34 635.23 253.34 632.42 253.34 633.83 250.67 635.23 247.99"/>
  <polygon class="cls-4" points="635.23 277.79 633.83 275.11 632.42 272.44 635.23 272.44 638.04 272.44 636.64 275.11 635.23 277.79"/>
  <polygon class="cls-2" points="584.97 275.67 587.64 274.26 590.32 272.86 590.32 275.67 590.32 278.48 587.64 277.07 584.97 275.67"/>
  <text class="cls-14" transform="translate(158.72 83.95)"><tspan x="0" y="0">3</tspan></text>
  <text class="cls-14" transform="translate(179.49 65.88)"><tspan x="0" y="0">·</tspan></text>
</svg>