<svg width="381" height="417" viewBox="0 0 381 417" fill="none" xmlns="http://www.w3.org/2000/svg">
<path d="M211.407 83.3581C211.205 83.4494 210.977 83.4574 210.769 83.3804C210.562 83.3033 210.391 83.1472 210.293 82.9444C210.194 82.7416 210.175 82.5075 210.24 82.2906C210.304 82.0738 210.447 81.8908 210.639 81.7794C213.783 80.1173 216.791 78.1945 219.631 76.0301C219.813 75.9018 220.035 75.8501 220.253 75.8858C220.47 75.9214 220.666 76.0416 220.8 76.2216C220.934 76.4016 220.995 76.6276 220.972 76.8528C220.948 77.0781 220.841 77.2855 220.673 77.4321C217.75 79.6687 214.65 81.6509 211.407 83.3581Z" fill="black"/>
<path d="M200.754 76.9847C200.285 77.7859 199.907 78.4221 199.677 78.8226C199.564 79.0257 199.376 79.174 199.156 79.2347C198.936 79.2955 198.701 79.2638 198.503 79.1466C198.306 79.0295 198.162 78.8364 198.103 78.6099C198.044 78.3835 198.075 78.1421 198.188 77.939C198.418 77.5267 198.807 76.8787 199.334 76.0658C201.522 72.3546 206.069 64.6378 207.157 60.75C207.189 60.6386 207.241 60.5347 207.312 60.4442C207.383 60.3537 207.47 60.2784 207.569 60.2226C207.668 60.1668 207.776 60.1316 207.889 60.119C208.001 60.1064 208.114 60.1166 208.222 60.1491C208.331 60.1816 208.432 60.2357 208.52 60.3084C208.608 60.381 208.681 60.4708 208.735 60.5725C208.789 60.6743 208.824 60.786 208.836 60.9013C208.848 61.0167 208.838 61.1334 208.807 61.2448C207.615 65.3565 203.148 72.9202 200.754 76.9847Z" fill="black"/>
<path d="M188.784 76.36H188.67C188.445 76.3278 188.243 76.2057 188.105 76.0204C187.968 75.835 187.907 75.6014 187.937 75.3704C188.493 70.6293 188.631 65.8462 188.349 61.0795C188.341 60.9634 188.356 60.8469 188.392 60.7366C188.428 60.6263 188.485 60.5245 188.56 60.4369C188.634 60.3493 188.725 60.2778 188.826 60.2263C188.928 60.1748 189.038 60.1445 189.151 60.137C189.264 60.1274 189.378 60.1413 189.486 60.1778C189.594 60.2143 189.693 60.2728 189.779 60.3498C189.864 60.4267 189.934 60.5205 189.984 60.6256C190.033 60.7307 190.062 60.845 190.067 60.9617C190.355 65.8463 190.213 70.7476 189.643 75.606C189.613 75.8172 189.509 76.01 189.351 76.1486C189.193 76.2872 188.992 76.3623 188.784 76.36Z" fill="black"/>
<path d="M98.7069 103.304C98.4792 103.304 98.2608 103.211 98.0999 103.045C96.8057 101.711 95.3461 100.558 93.7586 99.6168C92.8058 100.474 92.1345 101.614 91.8371 102.88C91.5397 104.146 91.6307 105.475 92.0977 106.686C92.1462 106.796 92.1723 106.915 92.1743 107.035C92.1762 107.156 92.1541 107.276 92.1093 107.388C92.0645 107.499 91.9979 107.6 91.9136 107.684C91.8294 107.769 91.7292 107.834 91.6194 107.877C91.5096 107.92 91.3925 107.939 91.2752 107.933C91.1579 107.927 91.043 107.897 90.9375 107.844C90.8321 107.791 90.7383 107.716 90.6621 107.624C90.5858 107.532 90.5286 107.425 90.4941 107.31C89.9485 105.864 89.8106 104.288 90.0963 102.765C90.3819 101.241 91.0796 99.8317 92.1092 98.6978C90.6613 97.9833 89.1165 97.4987 87.5274 97.2605C87.2996 97.2418 87.0883 97.1307 86.9401 96.9517C86.7919 96.7728 86.7189 96.5406 86.7371 96.3062C86.7553 96.0719 86.8633 95.8546 87.0373 95.7021C87.2113 95.5497 87.437 95.4746 87.6649 95.4933C92.1196 96.188 96.2224 98.3892 99.3255 101.749C99.4455 101.873 99.5272 102.03 99.5603 102.201C99.5933 102.373 99.5763 102.55 99.5114 102.712C99.4464 102.873 99.3364 103.011 99.1953 103.108C99.0541 103.205 98.8882 103.257 98.7184 103.257L98.7069 103.304Z" fill="black"/>
<path d="M40.8392 156.803C48.3075 152.091 50.7244 152.091 64.1604 152.091C66.8064 152.091 69.8876 152.091 73.553 152.091C74.4121 150.112 77.5391 143.161 80.6547 139.768C80.7481 139.664 80.8647 139.585 80.9944 139.537C81.1241 139.49 81.2631 139.476 81.3993 139.497L83.3351 139.815C83.3351 139.673 83.3351 139.532 83.3351 139.367C83.2052 134.215 83.0411 129.84 82.8425 126.243C75.5346 114.897 65.4318 100.064 62.8889 98.6622C61.0791 97.6608 58.9601 98.1674 56.5088 98.7565C55.581 98.9803 54.6074 99.2042 53.588 99.3809H53.2787C50.9878 99.7697 48.3075 100.206 46.2686 98.6505C44.8139 97.543 43.9205 95.5991 43.531 92.7598C43.1351 89.8871 43.5943 86.9585 44.8482 84.3596C45.6157 82.4982 46.0854 81.3671 45.169 79.647C44.6077 78.6221 43.027 77.8563 41.3547 77.0434C38.3536 75.5943 34.6195 73.7799 34.3217 69.2323C33.9437 63.4476 39.3158 61.7393 43.6341 60.3609C46.429 59.4655 49.0749 58.629 49.3613 57.0268C49.8195 54.8119 48.8573 53.08 47.8378 51.2539C46.8184 49.4278 45.547 47.2482 46.0624 44.4796C46.6466 40.9451 51.0565 39.5903 55.3176 38.2472C59.3266 36.9748 63.4731 35.6671 64.1031 32.8749C64.5779 30.5109 64.6669 28.0822 64.3666 25.6882C64.0802 22.2481 63.8397 19.2791 67.4249 16.4162C72.8085 12.1043 79.0969 14.0011 84.1369 15.5091C88.1001 16.6872 91.525 17.724 93.4149 15.6151C94.4991 14.2145 95.393 12.6687 96.0723 11.0204C97.9852 6.97934 100.173 2.40817 105.9 2.77339C109.852 3.04436 111.112 6.80263 112.04 9.53591C112.26 10.3648 112.591 11.1579 113.025 11.8922C113.546 12.2894 114.188 12.4816 114.835 12.4341C116.786 12.5621 118.719 11.9827 120.298 10.7965C120.964 9.92643 121.511 8.96725 121.925 7.94542C123.574 4.4699 126.071 -0.772815 132.154 0.876582C134.207 1.43007 136.099 2.4864 137.669 3.95533C139.238 5.42427 140.439 7.26216 141.168 9.31206C142.131 11.9747 142.142 14.6137 141.168 16.0393C140.146 17.4776 138.918 18.7487 137.526 19.8093C135.613 21.388 134.994 22.0124 135.716 23.4262C136.438 24.84 138.648 25.7 140.962 26.5483C144.101 27.7264 147.663 29.0106 149.06 32.439C149.372 33.0132 149.51 33.6704 149.454 34.3257C149.399 34.981 149.154 35.6042 148.751 36.1148C146.815 38.3414 140.848 38.0351 131.02 35.1722L130.126 34.9248C135.246 39.4253 140.859 44.4089 146.162 49.1921C145.746 47.7507 145.864 46.2015 146.495 44.8448C146.782 44.3537 147.184 43.9437 147.664 43.6517C148.144 43.3598 148.687 43.1948 149.244 43.1718C153.321 42.7713 160.847 47.4603 165.52 55.0946C168.453 59.8779 169.449 63.695 168.418 66.122C168.073 66.9181 167.475 67.5702 166.723 67.9717C167.387 68.6197 167.869 69.0556 168.109 69.3619C168.743 69.9318 169.251 70.6346 169.598 71.423C169.946 72.2114 170.126 73.0673 170.125 73.9331C169.965 76.2894 167.903 77.9859 166.242 79.3407L165.383 80.0476C164.341 80.9548 164.111 81.485 164.1 81.7677C164.1 82.3097 164.879 83.0637 165.795 83.9355L166.723 84.8309C167.926 86.009 169.014 87.2696 168.899 88.8012C168.819 90.05 167.937 91.2989 166.105 92.7715C166.196 100.594 168.842 109.996 172.622 115.934C175.715 116.511 175.509 119.409 175.314 121.989C175.109 123.783 175.226 125.6 175.658 127.35C176.276 129.588 177.662 137.14 169.93 140.639C166.906 142.006 159.908 142.996 152.21 142.996C150.068 142.996 147.869 142.901 145.681 142.725C145.315 146.742 145.143 151.679 145.074 156.368C148.808 158.931 152.887 160.915 157.182 162.258C158.4 162.557 159.562 163.062 160.618 163.755C161.763 164.838 162.405 171.789 162.428 177.315C163.915 179.511 165.138 181.885 166.07 184.384C172.542 176.62 178.67 168.856 180.892 165.015C185.276 157.573 189.219 149.866 192.702 141.935C194.03 138.837 196.951 131.45 199.723 124.416C199.332 124.245 198.95 124.052 198.578 123.839C196.776 124.937 194.727 125.53 192.633 125.559C190.656 125.544 188.716 125.008 186.997 124.004C184.686 122.623 182.761 120.65 181.408 118.279C180.056 115.907 179.322 113.216 179.277 110.467C179.277 105.248 181.923 100.783 186.814 97.92C188.472 97.0045 190.303 96.4684 192.181 96.3485C194.059 96.2285 195.94 96.5275 197.696 97.2249C199.276 97.761 200.738 98.6138 201.996 99.734C203.254 100.854 204.284 102.22 205.027 103.752L208.028 104.329C210.319 100.571 213.411 98.2852 215.966 98.6505C217.139 98.8506 218.219 99.4329 219.047 100.312C219.373 100.714 219.794 101.024 220.268 101.213C220.743 101.403 221.257 101.466 221.762 101.396C222.33 101.281 222.883 101.1 223.411 100.854C225.186 100.135 227.615 99.1453 230.432 100.854C231.321 101.393 232.154 102.025 232.918 102.739C233.96 103.681 234.396 104.07 236.984 103.823C237.718 103.727 238.462 103.803 239.163 104.046C239.863 104.289 240.501 104.692 241.028 105.224C241.46 105.656 241.971 105.996 242.531 106.225C243.091 106.453 243.69 106.566 244.292 106.556H245.541C248.622 106.615 249.252 106.685 253.17 108.57C258.244 111.009 261.898 112.871 262.688 114.555C263.126 115.709 263.302 116.95 263.204 118.184C265.391 118.726 267.705 119.256 269.87 119.704C277.51 121.271 278.152 123.097 277.888 127.515C277.888 127.751 277.888 127.963 277.808 128.198C286.897 128.439 295.656 131.752 302.733 137.623C309.88 143.62 313.042 149.605 313.821 154.742C325.79 156.686 339.02 168.067 344.083 188.507C344.139 188.734 344.105 188.974 343.989 189.175C343.873 189.376 343.685 189.521 343.465 189.579H343.247C343.056 189.581 342.87 189.516 342.719 189.397C342.567 189.277 342.459 189.109 342.411 188.92C337.588 169.469 325.229 158.559 313.969 156.533C314.085 159.083 313.518 161.618 312.331 163.861C309.857 168.455 305.104 170.588 300.774 169.068C295.264 167.124 295.104 163.79 295.299 162.447C295.826 158.747 300.774 154.801 309.239 154.435C310.167 154.396 311.096 154.416 312.022 154.494C311.209 149.864 308.174 144.468 301.622 138.966C294.733 133.327 286.233 130.173 277.43 129.989C277.189 131.033 276.681 131.991 275.958 132.764C275.234 133.537 274.323 134.096 273.318 134.383C272.287 134.596 266.628 133.818 254.899 132.121C252.803 134.808 249.481 136.433 247.133 135.856C246.658 135.747 246.21 135.539 245.816 135.245C245.422 134.951 245.091 134.578 244.842 134.148C244.305 134.751 243.654 135.235 242.93 135.571C242.205 135.907 241.422 136.088 240.627 136.104C240.279 136.105 239.933 136.061 239.596 135.974C238.959 135.811 238.39 135.444 237.969 134.925L237.317 136.704C234.865 143.396 232.334 150.324 227.672 153.787C224.396 156.311 220.76 158.298 216.893 159.678C215.042 163.429 213.454 167.311 212.14 171.295C211.865 172.284 211.349 174.393 210.639 177.185C208.738 184.796 205.588 197.438 202.621 207.287C203.022 208.394 203.377 209.407 203.698 210.315C205.21 214.627 205.989 216.783 207.638 218.243C210.193 220.447 211.705 223.215 211.705 225.619C211.705 226.007 211.705 226.361 211.705 226.703C211.636 228.293 211.567 229.554 213.434 233.465C214.901 236.484 216.15 239.611 217.168 242.82L217.798 244.811C218.875 248.215 226.263 266.842 228.21 271.036C228.84 272.403 230.811 276.126 233.09 280.461C234.464 283.065 235.77 285.527 236.962 287.801C239.848 293.326 242.082 297.709 243.101 300.136C243.507 300.907 243.742 301.762 243.79 302.637C243.837 303.513 243.696 304.389 243.376 305.202C242.047 308.548 237.924 310.586 236.206 311.317C237.049 314.52 238.082 317.668 239.298 320.742C241.902 319.336 244.861 317.934 248.175 316.536C252.62 314.663 260.775 311.823 268.621 309.09C274.669 306.981 280.374 305.002 284.119 303.553C293.739 299.799 302.872 294.841 311.312 288.791C320.315 282.287 325.149 276.067 326.203 273.475C327.05 271.413 327.062 270.152 327.108 266.783C327.108 265.675 327.108 264.344 327.199 262.707C327.428 255.826 330.143 253.281 333.293 250.395C333.797 249.935 334.312 249.452 334.839 248.934C338.15 245.706 339.421 243.786 340.108 238.767C340.258 237.382 340.767 236.065 341.584 234.953C342.4 233.842 343.493 232.978 344.747 232.452C345.793 232.074 346.919 232.003 348.002 232.246C349.084 232.49 350.079 233.038 350.876 233.83C351.622 234.517 352.29 235.287 352.869 236.128C354.014 234.95 356.19 233.335 358.596 234.254C361.574 235.433 364.117 237.918 365.972 239.768C366.569 240.389 367.196 240.979 367.851 241.535C369.435 242.943 370.899 244.488 372.227 246.154C373.372 247.473 374.643 248.958 376.236 250.701C380.233 255.084 381.894 257.9 380.531 262.023C379.638 264.745 376.144 267.725 371.723 271.448C369.959 272.956 368.126 274.512 366.247 276.232C361.734 280.367 357.405 285.103 353.648 289.274C351.952 291.135 350.337 292.902 348.802 294.516C346.772 296.447 344.99 298.636 343.499 301.031C343.041 301.75 342.514 302.598 341.701 303.776C340.181 305.995 337.916 307.557 335.343 308.159C334.944 308.251 334.559 308.398 334.198 308.595C329.399 312.789 325.034 316.63 321.083 320.176C306.1 333.489 296.204 342.278 284.165 349.488C274.119 355.783 263.724 361.467 253.032 366.512C250.805 367.39 248.683 368.529 246.709 369.906C241.601 374.135 236.4 376.609 232.849 376.609C232.034 376.636 231.224 376.458 230.49 376.091C229.344 375.443 227.443 374.595 225.083 373.522C222.724 372.45 219.539 371.001 216.286 369.387C218.085 384.915 220.513 392.773 220.547 392.867C220.613 393.07 220.605 393.29 220.525 393.487C220.445 393.685 220.298 393.845 220.112 393.94C208.135 399.651 195.737 404.379 183.034 408.077H182.862C172.767 411.116 162.463 413.369 152.039 414.816C144.064 415.911 136.03 416.489 127.984 416.548C107.699 416.548 95.4424 411.977 80.0133 406.216C59.8306 398.688 42.019 392.867 41.8357 392.809C41.7242 392.77 41.6217 392.707 41.5345 392.626C41.4474 392.544 41.3775 392.445 41.3292 392.335C41.2808 392.224 41.2551 392.105 41.2536 391.984C41.252 391.862 41.2747 391.742 41.3203 391.63C45.9534 381.629 49.7027 371.22 52.5227 360.528C54.9146 351.453 56.1656 342.101 56.2454 332.7C56.2454 290.157 44.791 258.842 36.498 235.975C35.6886 233.76 34.925 231.608 34.2071 229.518C33.2831 228.112 32.4126 226.699 31.5955 225.277L31.5268 225.159C24.8342 213.933 21.4448 200.953 21.7677 187.789C22.1686 174.982 28.5945 164.638 40.8392 156.803ZM309.296 156.45C301.851 156.768 297.395 159.984 296.983 162.953C296.708 164.874 298.288 166.582 301.312 167.666C304.84 168.903 308.735 167.1 310.808 163.271C311.89 161.217 312.379 158.887 312.217 156.556C311.242 156.462 310.262 156.438 309.285 156.485L309.296 156.45ZM75.2139 152.692C77.1955 153.941 84.0108 158.17 97.5385 165.816C100.047 163.931 104.205 159.619 109.944 152.857L110.367 152.362C112.04 150.418 115.247 152.562 118.386 154.93C123.586 158.853 127.984 161.269 131.478 162.176C132.376 161.19 133.604 160.588 134.914 160.491C135.142 160.491 135.361 160.584 135.522 160.75C135.683 160.916 135.773 161.14 135.773 161.375C135.773 161.609 135.683 161.834 135.522 161.999C135.361 162.165 135.142 162.258 134.914 162.258C133.927 162.365 133.018 162.864 132.383 163.648C132.331 163.721 132.27 163.784 132.2 163.837C128.901 167.442 125.785 176.313 124.262 180.637C123.758 182.075 123.357 183.217 123.116 183.842C123.015 184.129 122.848 184.386 122.628 184.592C122.409 184.797 122.144 184.944 121.856 185.02C121.558 185.061 121.254 185.039 120.964 184.953C120.674 184.868 120.405 184.722 120.172 184.525C121.318 189.026 123.529 198.027 123.918 203.375C129.004 206.674 132.452 208.653 132.52 208.689C132.644 208.759 132.748 208.859 132.825 208.98C132.902 209.101 132.949 209.24 132.962 209.385C132.974 209.529 132.952 209.674 132.897 209.808C132.842 209.941 132.756 210.059 132.646 210.15C132.646 210.15 132.074 210.621 131.169 211.481C133.313 213.022 135.653 214.255 138.121 215.145C136.976 207.581 134.067 199.488 131.696 192.913C130.55 189.65 129.508 186.834 128.969 184.761C128.937 184.636 128.932 184.506 128.954 184.379C128.976 184.252 129.024 184.131 129.097 184.026C129.169 183.92 129.262 183.832 129.371 183.768C129.479 183.704 129.6 183.664 129.725 183.653C137.743 182.982 148.201 184.961 148.648 185.044C148.785 185.069 148.914 185.129 149.024 185.217C149.134 185.305 149.221 185.419 149.278 185.55C149.335 185.691 150.733 188.931 153.974 198.368C155.807 196.33 157.834 194.009 159.954 191.547C157.331 188.814 142.577 173.297 139.095 166.511C137.548 163.643 136.435 160.548 135.796 157.334C126.633 152.303 114.033 148.45 103.266 145.776C102.017 150.489 97.4469 159.018 97.2407 159.395C97.1338 159.598 96.9541 159.749 96.7402 159.818C96.5262 159.886 96.2948 159.865 96.0952 159.761C95.9578 159.69 83.0372 152.939 75.8553 151.089C75.6033 151.82 75.3742 152.338 75.2024 152.727L75.2139 152.692ZM92.8193 178.305C92.687 178.66 92.6023 179.033 92.5673 179.412C92.5673 180.355 96.0036 182.946 101.525 187.117C103.575 188.672 106.015 190.522 108.89 192.749C113.609 196.401 118.237 199.629 122.131 202.174C121.364 195.423 118.397 184.301 117.927 182.558L117.607 182.263C112.35 177.226 106.51 172.873 100.219 169.304C96.5993 168.868 88.2032 168.125 83.61 168.75C85.2594 169.433 87.0463 170.175 88.9133 170.988C94.3313 173.403 93.3577 176.49 92.8079 178.34L92.8193 178.305ZM103.919 191.146C100.621 191.49 97.4139 192.457 94.4572 193.997C97.5385 198.274 106.507 213.896 108.477 217.336C110.425 217.242 117.446 216.971 123.368 217.336C125.645 214.62 128.086 212.055 130.676 209.655C122.785 204.95 115.166 199.777 107.859 194.162L103.919 191.146ZM118.809 180.991C119.642 181.879 120.567 182.67 121.57 183.347L121.65 183.194C121.902 182.628 122.291 181.521 122.795 180.119C124.972 173.91 127.377 167.454 130.264 163.743C126.713 162.635 122.406 160.208 117.446 156.45C113.368 153.375 112.086 153.222 111.719 153.634L111.307 154.117C107.614 158.652 103.589 162.89 99.2681 166.794L99.9554 167.183L100.963 167.76C107.398 171.412 113.369 175.868 118.741 181.026L118.809 180.991ZM139.977 215.357C141.844 211.34 144.158 208.866 148.74 204.188C149.816 203.093 151.191 201.62 152.749 199.9C149.977 191.806 148.465 187.954 147.972 186.764C142.366 185.752 136.676 185.306 130.985 185.432C131.547 187.306 132.406 189.685 133.379 192.383C135.773 199.217 138.763 207.534 139.908 215.392L139.977 215.357ZM143.356 157.074C143.318 156.928 143.318 156.773 143.356 156.627C143.425 151.844 143.597 146.778 143.963 142.654C139.614 142.282 135.338 141.282 131.26 139.685L130.596 139.402C113.414 132.098 108.191 129.859 104.125 114.567C103.653 114.625 103.179 114.652 102.704 114.65C101.384 114.628 100.066 114.502 98.7641 114.273C97.6187 116.77 92.9109 126.054 86.0497 129.812C85.8584 129.923 85.6331 129.954 85.42 129.899C85.207 129.845 85.0225 129.708 84.9043 129.518L84.7325 129.247C84.9158 133.394 85.0189 137.305 85.0761 139.414V140.203C88.9019 140.875 95.3851 142.124 102.762 143.926H102.83H102.945C114.17 146.671 127.492 150.701 137.033 156.038C137.155 156.105 137.259 156.201 137.336 156.317C137.414 156.434 137.463 156.569 137.48 156.709C138.041 159.878 139.113 162.929 140.653 165.734C141.444 167.176 142.34 168.554 143.333 169.857C143.264 167.077 143.219 162.282 143.276 157.098L143.356 157.074ZM81.6742 141.393C79.7337 143.91 78.0775 146.645 76.7373 149.546C83.2091 151.302 93.3806 156.403 96.2098 157.876C97.3553 155.672 100.677 149.134 101.674 145.446C91.6853 143.09 83.5641 141.735 81.594 141.429L81.6742 141.393ZM167.021 65.6625C167.788 63.8482 166.78 60.4316 164.249 56.2374C160.251 49.6987 153.573 45.1158 149.965 45.1158H149.587C149.302 45.1171 149.021 45.1923 148.771 45.3343C148.52 45.4764 148.309 45.6807 148.156 45.9287C147.548 46.989 147.812 49.1096 148.866 51.6309L153.447 55.7072C154.309 55.1715 155.293 54.879 156.3 54.859H156.391C156.619 54.859 156.838 54.9521 156.999 55.1178C157.16 55.2835 157.25 55.5082 157.25 55.7426C157.25 55.9769 157.16 56.2017 156.999 56.3674C156.838 56.5331 156.619 56.6262 156.391 56.6262C155.861 56.62 155.337 56.7368 154.856 56.9678L156.506 58.4641L156.586 58.5348L158.109 60.196L158.705 60.7379L160.045 61.916L160.767 62.5522L161.798 63.5065L162.645 64.2841L163.436 65.0145L164.272 65.7921L164.925 66.4048L165.497 66.9467C165.814 66.8632 166.108 66.7076 166.357 66.4914C166.607 66.2753 166.807 66.004 166.941 65.6979L167.021 65.6625ZM169.255 139.037C175.566 136.198 174.707 130.26 174.042 127.845C173.622 125.964 173.532 124.021 173.779 122.107C174.02 118.891 173.905 118.054 172.175 117.878C171.966 117.863 171.755 117.863 171.545 117.878H170.732C170.263 117.878 169.816 117.937 169.381 117.948H169.117C168.573 117.944 168.03 117.909 167.491 117.842H167.376C165.869 117.645 164.403 117.2 163.035 116.523H162.955C162.565 116.323 162.21 116.122 161.809 115.91L161.695 115.84C161.366 115.635 161.061 115.427 160.778 115.215L160.675 115.133C160.4 114.921 160.137 114.72 159.908 114.52L159.828 114.449L159.209 113.884C158.911 113.589 158.625 113.283 158.361 112.965C157.19 111.712 156.361 110.164 155.956 108.476C155.935 108.265 155.935 108.051 155.956 107.84C156.082 105.095 159.805 95.658 164.169 92.5241C164.432 92.3356 164.684 92.1471 164.925 91.9586C166.54 90.7098 167.342 89.7437 167.387 88.9897C167.433 88.2357 166.78 87.4817 165.715 86.3978L164.822 85.5378C163.55 84.3596 162.531 83.3582 162.531 82.0033C162.615 81.3882 162.827 80.799 163.153 80.2763C163.479 79.7536 163.912 79.3099 164.421 78.9755L165.314 78.2333C166.78 77.0551 168.441 75.6767 168.556 74.0862C168.526 73.468 168.374 72.8625 168.108 72.3072C167.842 71.752 167.468 71.2588 167.009 70.8581C166.54 70.3515 165.612 69.4561 164.719 68.5725C163.493 67.3944 161.855 65.8746 159.873 64.0603C157.892 62.2459 155.738 60.2666 153.276 58.0517C152.432 58.798 151.682 59.6489 151.042 60.5847C151.649 61.4919 152.256 62.4344 152.829 63.4123C156.265 69.3854 157.491 75.0523 155.876 78.1862C155.531 78.8826 155.01 79.4696 154.366 79.8846C153.722 80.2997 152.981 80.527 152.222 80.5424H151.993C148.808 80.5424 143.78 76.7135 139.393 71.2823C138.992 71.5085 138.575 71.7015 138.144 71.8595C137.02 72.2569 135.839 72.4561 134.651 72.4486C131.632 72.423 128.713 71.3335 126.381 69.3619C126.294 69.2845 126.223 69.1904 126.172 69.0849C126.121 68.9794 126.091 68.8645 126.083 68.7469C126.075 68.6293 126.089 68.5113 126.126 68.3995C126.162 68.2877 126.22 68.1843 126.295 68.0954C126.37 68.0064 126.462 67.9336 126.564 67.881C126.667 67.8284 126.778 67.7971 126.893 67.7889C127.007 67.7807 127.122 67.7957 127.23 67.8332C127.339 67.8706 127.44 67.9297 127.526 68.007C128.9 69.2079 130.543 70.0373 132.307 70.4199C134.072 70.8026 135.901 70.7264 137.629 70.1984C137.879 70.1068 138.124 70.0005 138.362 69.8803C137.201 68.3446 136.131 66.7395 135.155 65.0735C133.973 63.0976 133.049 60.9705 132.406 58.7468C129.516 59.1381 126.763 60.2504 124.388 61.9867C124.3 62.0602 124.198 62.1152 124.09 62.1484C123.981 62.1817 123.867 62.1926 123.754 62.1806C123.642 62.1685 123.532 62.1338 123.433 62.0783C123.333 62.0228 123.245 61.9476 123.173 61.8571C123.102 61.7666 123.049 61.6625 123.016 61.5508C122.984 61.4391 122.973 61.3218 122.985 61.2059C122.997 61.0899 123.03 60.9775 123.084 60.8749C123.138 60.7724 123.211 60.6818 123.299 60.6083C125.88 58.7133 128.873 57.4996 132.016 57.0739C131.621 55.2396 131.793 53.3242 132.509 51.5955C132.866 50.8235 133.412 50.1597 134.092 49.6684C134.772 49.1771 135.565 48.8751 136.392 48.7916C139.828 48.3557 145.349 52.6087 150.08 59.1121C150.668 58.3123 151.332 57.5743 152.061 56.909L147.686 52.9739C140.813 46.7651 133.173 40.0144 126.69 34.3475C121.581 33.299 119.462 33.8292 118.672 34.595C118.397 34.8882 118.201 35.2496 118.103 35.644C118.005 36.0384 118.007 36.4522 118.111 36.8452L118.214 37.5757C118.729 41.1101 119.359 45.5634 116.255 47.2128C114.666 47.8665 112.959 48.1637 111.249 48.0847C109.76 48.0847 107.905 48.2025 107.676 48.8387C107.275 49.9226 108.099 51.5248 109.05 53.3745C110.619 56.4024 112.555 60.1606 110.871 64.72C109.783 67.6536 106.943 69.3383 104.193 70.9642C100.757 73.0259 97.7103 74.8049 98.2831 78.6456C98.6152 80.837 100.654 82.2507 102.636 83.6056C104.927 85.1725 107.286 86.7984 106.965 89.6966C106.913 90.5439 106.681 91.369 106.285 92.114C105.889 92.859 105.34 93.5057 104.675 94.0086C101.822 96.0939 97.4469 95.1043 97.2636 95.0571C97.1878 95.0397 97.1146 95.012 97.046 94.9747C94.0334 93.2781 85.5916 89.7791 82.8196 93.9143C81.4795 95.8936 81.4336 98.839 82.6707 101.784C85.0303 107.369 90.9752 111.374 98.5694 112.494C100.301 112.863 102.072 113.002 103.838 112.906C103.586 111.881 103.346 110.821 103.094 109.69C103.061 109.574 103.051 109.452 103.065 109.332C103.079 109.212 103.117 109.096 103.177 108.992C103.236 108.888 103.316 108.797 103.411 108.726C103.506 108.655 103.614 108.604 103.728 108.577C103.843 108.551 103.962 108.549 104.077 108.571C104.193 108.593 104.302 108.64 104.4 108.708C104.497 108.776 104.58 108.863 104.643 108.965C104.706 109.067 104.748 109.181 104.766 109.301C108.89 128.257 112.784 129.907 131.409 137.835L132.074 138.118C143.585 143.078 164.111 141.358 169.174 139.072L169.255 139.037ZM144.479 56.5673C143.333 57.392 140.951 57.6394 138.007 57.9693C136.735 58.1106 135.384 58.2638 134.021 58.4641C134.627 60.4653 135.473 62.3809 136.541 64.1663C137.498 65.8005 138.55 67.3742 139.691 68.8788C140.428 68.1857 140.933 67.2701 141.134 66.2634C141.18 66.0337 141.312 65.8321 141.502 65.7028C141.692 65.5736 141.924 65.5273 142.148 65.5742C142.371 65.621 142.567 65.7572 142.693 65.9528C142.818 66.1483 142.863 66.3872 142.818 66.6168C142.543 68.0303 141.827 69.3129 140.779 70.2691C144.983 75.4175 149.542 78.7752 151.97 78.7752H152.119C152.592 78.7869 153.058 78.6602 153.463 78.41C153.869 78.1597 154.197 77.7961 154.41 77.3615C155.486 75.2762 154.971 70.4222 151.409 64.3195C150.733 63.1413 150.045 62.081 149.347 61.0678C147.964 59.0754 146.42 57.2073 144.731 55.4834C144.814 55.6764 144.826 55.8939 144.765 56.0954C144.703 56.2969 144.573 56.4687 144.398 56.5791L144.479 56.5673ZM144.318 55.0239C141.352 52.0786 138.591 50.4645 136.827 50.4645H136.506C135.963 50.5105 135.442 50.7037 134.995 51.0245C134.549 51.3453 134.193 51.7822 133.964 52.2906C133.412 53.6928 133.296 55.236 133.631 56.7087C135.075 56.4848 136.495 56.3316 137.835 56.1785C140.332 55.9075 142.68 55.6483 143.562 55.071C143.666 55.017 143.78 54.986 143.897 54.9799C144.013 54.9738 144.129 54.9928 144.238 55.0357L144.318 55.0239ZM162.244 180.649C162.244 181.226 162.176 181.827 162.118 182.251C162.093 182.465 161.993 182.662 161.837 182.805C161.681 182.948 161.48 183.028 161.271 183.029H161.168C160.941 183.002 160.735 182.884 160.593 182.701C160.451 182.518 160.386 182.284 160.412 182.051C161.076 176.16 160.022 166.193 159.335 165.204C158.441 164.732 157.51 164.338 156.552 164.025C152.489 162.707 148.602 160.87 144.983 158.559C144.925 165.145 145.051 170.835 145.074 172.178C150.653 179.247 159.06 188.118 161.11 190.274C162.256 188.896 163.482 187.494 164.673 186.068C164.014 184.194 163.202 182.381 162.244 180.649ZM204.19 105.637C202.037 105.236 200.055 104.918 199.414 105.354C197.969 106.468 196.801 107.918 196.005 109.584C195.209 111.251 194.807 113.087 194.832 114.944C194.832 115.227 194.832 115.51 194.832 115.816C194.951 117.156 195.385 118.447 196.095 119.578C196.805 120.708 197.771 121.645 198.91 122.308C199.332 122.571 199.773 122.803 200.227 123.003L200.456 122.425C203.056 115.816 205.519 109.584 206.47 107.369C206.642 106.968 206.825 106.579 207.008 106.191L204.19 105.637ZM273.295 132.828C273.832 132.595 274.314 132.246 274.709 131.805C275.104 131.364 275.403 130.841 275.586 130.272C274.635 130.272 274.085 130.366 274.062 130.366C273.836 130.394 273.608 130.329 273.429 130.184C273.249 130.039 273.133 129.827 273.106 129.594C273.079 129.362 273.142 129.127 273.283 128.943C273.424 128.758 273.63 128.639 273.856 128.611C273.994 128.611 274.773 128.505 276.044 128.481C276.044 128.234 276.113 127.986 276.124 127.715C276.204 126.148 276.25 125.053 275.609 124.181C274.658 124.181 273.432 124.958 272.734 127.055C271.875 129.518 272.161 131.886 273.283 132.828H273.295ZM247.511 134.419C248.977 134.784 251.176 133.759 252.837 132.063L246.423 131.144C246.297 131.415 246.136 131.815 245.93 132.322C245.947 132.797 246.109 133.256 246.392 133.632C246.676 134.008 247.067 134.283 247.511 134.419ZM246.01 129.341L254.83 130.602C260.787 131.462 267.854 132.498 271.153 132.828C270.745 131.822 270.535 130.743 270.535 129.653C270.535 128.563 270.745 127.484 271.153 126.478C271.577 125.002 272.52 123.742 273.799 122.944C272.404 122.422 270.966 122.028 269.503 121.766C263.914 120.587 257.442 118.879 254.326 118.043L252.711 117.607C252.497 117.556 252.278 117.532 252.058 117.536C250.1 117.536 246.411 119.244 242.276 125.783C241.698 126.708 241.174 127.668 240.707 128.658C242.196 128.823 244.029 129.07 246.01 129.341ZM240.031 134.548C240.893 134.702 241.78 134.541 242.539 134.094C243.298 133.646 243.882 132.94 244.189 132.098C244.35 131.674 244.487 131.332 244.613 131.038C242.849 130.79 241.177 130.578 239.871 130.413C239.607 131.038 239.344 131.697 239.092 132.345C238.829 133.523 239.126 134.313 240.02 134.548H240.031ZM208.978 176.961C209.689 174.122 210.215 172.001 210.49 171.012C211.882 166.805 213.567 162.706 215.53 158.747C215.584 158.636 215.659 158.538 215.752 158.459C215.845 158.38 215.953 158.321 216.069 158.288C219.882 156.992 223.464 155.066 226.675 152.586C230.914 149.428 233.353 142.76 235.713 136.316C236.618 133.83 237.557 131.261 238.588 128.964C239.221 127.516 239.956 126.119 240.787 124.782C247.041 114.885 252.127 115.604 253.078 115.851L254.704 116.287C256.262 116.711 258.679 117.359 261.394 118.043C261.44 117.213 261.319 116.383 261.039 115.604C260.454 114.355 255.38 111.916 252.345 110.455C248.634 108.676 248.267 108.665 245.403 108.606H244.143C242.531 108.616 240.976 107.987 239.802 106.85C239.448 106.465 239.01 106.172 238.524 105.996C238.038 105.82 237.518 105.765 237.007 105.837C233.834 106.132 232.998 105.519 231.658 104.317C230.995 103.674 230.269 103.101 229.493 102.609C227.386 101.337 225.656 102.032 223.972 102.715C223.304 103.024 222.599 103.242 221.876 103.363C221.133 103.46 220.378 103.372 219.675 103.108C218.972 102.843 218.34 102.41 217.833 101.843C217.25 101.219 216.486 100.806 215.656 100.665C213.365 100.335 209.998 103.669 208.096 108.099C207.169 110.29 204.66 116.511 202.106 123.109L201.567 124.464C198.578 132.039 195.588 139.603 194.202 142.854C190.689 150.853 186.711 158.627 182.29 166.134C177.502 174.287 157.09 198.121 149.919 205.472C143.127 212.4 141.592 214.202 138.843 223.663C138.778 223.888 138.628 224.077 138.427 224.189C138.227 224.3 137.991 224.325 137.772 224.258C137.553 224.191 137.37 224.037 137.261 223.83C137.153 223.624 137.128 223.381 137.194 223.156C137.881 220.8 138.511 218.88 139.152 217.266C135.922 216.889 131.581 214.002 129.989 212.836C120.369 222.538 112.787 234.166 107.71 247.002C107.114 248.498 106.565 249.959 106.061 251.385C104.526 255.685 103.208 259.973 102.132 264.167C105.637 266.194 109.531 268.185 113.712 270.058C120.832 273.29 128.148 276.044 135.613 278.305C137.706 278.91 139.745 279.698 141.707 280.661C144.431 282.049 147.384 282.9 150.412 283.171C155.853 283.842 160.24 281.84 163.115 277.398C163.493 276.809 163.791 276.22 164.169 275.525C165.52 272.956 167.777 268.656 177.914 255.001C190.319 238.248 193.95 228.152 198.074 216.465L198.658 214.839C202.003 205.107 206.516 186.858 208.967 177.02L208.978 176.961ZM98.1342 274.311L98.2945 273.345L98.3632 272.933C98.4472 272.462 98.535 271.978 98.6267 271.484L98.7183 271.001C98.8328 270.388 98.9589 269.764 99.0963 269.116L99.1879 268.668C99.2948 268.15 99.4132 267.619 99.543 267.077L99.7034 266.394C99.8485 265.789 99.9974 265.169 100.15 264.533L100.219 264.273C101.364 259.82 102.75 255.237 104.377 250.666C104.892 249.229 105.442 247.756 106.049 246.236C108.084 241.076 110.533 236.099 113.368 231.356C105.843 228.258 102.143 228.187 101.502 228.34C100.643 229.318 96.7138 236.717 94.1022 242.289C92.5282 245.225 90.7279 248.026 88.7186 250.666C86.0154 254.471 83.232 258.395 82.4416 261.092C84.1756 262.538 86.0621 263.779 88.0657 264.792C91.1584 266.465 95.9005 271.766 98.1227 274.37L98.1342 274.311ZM97.9852 286.587C97.849 286.585 97.7154 286.548 97.5958 286.481C97.5958 286.481 97.5958 286.481 97.5156 286.399C97.4623 286.369 97.4124 286.334 97.3667 286.293C92.0404 279.884 83.0831 273.333 74.4579 267.584C72.9574 267.513 66.5887 267.195 63.5304 266.912C65.11 272.166 66.2218 277.557 66.8522 283.018C67.9976 292.62 69.3378 306.58 69.6356 309.867C74.4006 310.445 95.3736 313.025 99.5888 314.097C100.184 312.542 100.952 306.84 101.525 302.575C101.914 299.653 102.326 296.684 102.67 294.41C103.321 290.516 103.704 286.579 103.816 282.629C102.12 284.088 100.299 285.385 98.3747 286.505C98.2548 286.586 98.1169 286.635 97.9738 286.646L97.9852 286.587ZM119.875 305.108C118.993 310.657 116.037 331.781 115.533 335.633C117.435 336.01 124.491 336.152 131.913 336.305H133.78C136.312 336.305 138.82 336.482 141.248 336.588C148.717 336.941 156.437 337.306 157.651 334.95C159.358 331.639 162.771 299.005 160.847 282.24C158.396 284.077 155.426 285.037 152.394 284.973C151.628 284.974 150.863 284.926 150.103 284.832C146.914 284.536 143.807 283.633 140.939 282.169C139.056 281.239 137.097 280.478 135.086 279.896C131.822 278.941 127.217 277.41 122.12 275.43C122.326 282.028 120.676 300.042 119.875 305.108ZM181.19 253.27C182.825 258.739 184.186 264.292 185.268 269.905C186.413 275.159 187.799 281.616 188.498 283.218L189.895 282.841C194.654 281.459 199.51 280.458 204.42 279.848C201.098 258.76 197.467 241.217 194.111 231.132C190.569 238.945 186.238 246.353 181.19 253.234V253.27ZM202.117 211.198L201.819 210.338C201.247 212.188 200.674 213.873 200.147 215.404L199.574 217.03L198.887 218.95C200.804 218.239 202.818 217.841 204.855 217.772C203.73 215.681 202.812 213.479 202.117 211.198ZM211.899 234.561C209.837 230.237 209.918 228.67 209.998 226.938C209.998 226.62 209.998 226.302 209.998 225.937C209.998 224.064 208.669 221.754 206.562 219.916L206.275 219.645C203.447 219.488 200.624 220.042 198.051 221.26C197.135 223.769 196.195 226.255 195.13 228.788C196.961 234.116 198.491 239.548 199.712 245.058C204.71 243.359 209.946 242.519 215.21 242.572C214.276 239.831 213.171 237.155 211.899 234.561ZM231.601 281.604C229.31 277.268 227.328 273.522 226.675 272.179C225.748 270.176 223.239 264.061 220.948 258.135C218.074 258.871 215.164 259.453 212.231 259.879L211.441 259.997C211.682 260.739 212.186 262.059 212.781 263.602C213.446 265.346 214.316 267.608 215.37 270.494C216.813 274.441 218.108 279.024 219.138 282.711C219.814 285.127 220.513 287.612 220.914 288.602L221.212 288.496C225.479 286.819 230.119 286.411 234.602 287.318L231.601 281.604ZM236.744 296.154C237.019 296.154 237.294 296.248 237.557 296.307L237.992 296.437C238.555 296.595 239.103 296.804 239.63 297.061C238.485 294.776 237.076 292.03 235.644 289.297C231.042 288.048 226.174 288.333 221.739 290.11C221.35 290.29 220.937 290.405 220.513 290.452C219.516 290.452 219.253 289.627 217.432 283.159C216.401 279.507 215.141 274.912 213.709 271.083C212.655 268.208 211.785 265.946 211.12 264.215C209.276 259.42 209.127 259.031 209.975 258.501C210.594 258.254 211.248 258.115 211.911 258.088C213.652 257.817 216.767 257.334 220.227 256.439C218.337 251.632 216.653 247.226 216.137 245.588L215.748 244.41C210.423 244.288 205.118 245.113 200.067 246.849C203.503 262.318 207.02 283.371 209.952 306.545C214.27 301.55 223.8 296.967 231.532 296.119H231.658C232.261 296.056 232.849 296.016 233.422 296.001H234.762H235.198L235.919 296.06L236.744 296.154ZM206.779 295.765C201.636 296.637 200.078 296.943 200.285 304.695C200.502 312.742 202.472 332.417 203.32 340.805L203.732 344.988C204.042 348.24 204.374 351.597 204.809 352.328C207.536 352.098 210.248 351.704 212.93 351.15C211.349 332.346 209.208 313.237 206.779 295.718V295.765ZM225.782 372.003C228.165 373.087 230.043 373.947 231.292 374.618C233.399 375.796 239.31 373.829 245.632 368.621C247.714 367.142 249.959 365.923 252.322 364.993C262.964 360.069 273.317 354.511 283.329 348.346C295.23 341.277 305.092 332.464 319.983 319.222C323.981 315.687 328.31 311.823 333.11 307.629C333.646 307.242 334.254 306.973 334.897 306.84C337.097 306.352 339.037 305.026 340.326 303.129C341.128 301.95 341.632 301.161 342.079 300.454C343.629 297.958 345.48 295.674 347.588 293.656C349.112 292.054 350.727 290.287 352.41 288.437C356.248 284.231 360.6 279.471 365.171 275.277C367.072 273.545 368.905 271.967 370.692 270.459C374.735 267.007 378.229 264.038 378.973 261.788C379.97 258.76 379.122 256.71 375.044 252.245C373.429 250.477 372.146 248.981 371.001 247.65C369.743 246.07 368.36 244.6 366.866 243.255C366.162 242.66 365.489 242.026 364.85 241.359C363.006 239.521 360.703 237.223 358.069 236.234C356.351 235.586 354.633 237.188 353.854 238.024C353.991 238.299 354.11 238.574 354.209 238.849C355.226 238.456 356.314 238.295 357.398 238.376C358.481 238.458 359.535 238.78 360.486 239.32C362.17 240.369 370.589 248.746 374.391 252.728C374.476 252.809 374.544 252.906 374.59 253.014C374.637 253.123 374.663 253.24 374.665 253.359C374.667 253.477 374.646 253.595 374.602 253.705C374.559 253.815 374.495 253.915 374.413 253.999C374.332 254.083 374.234 254.149 374.128 254.193C374.021 254.238 373.906 254.26 373.791 254.258C373.675 254.256 373.562 254.23 373.456 254.181C373.351 254.133 373.256 254.063 373.177 253.977C367.725 248.369 360.795 241.582 359.592 240.84C358.844 240.429 358.018 240.191 357.171 240.142C356.325 240.093 355.478 240.235 354.69 240.557C354.867 241.433 354.831 242.339 354.587 243.197C354.921 243.09 355.268 243.03 355.618 243.02C358.309 243.02 361.769 246.283 367.507 251.679L370.852 254.813C370.998 254.975 371.08 255.187 371.081 255.408C371.083 255.628 371.004 255.842 370.861 256.006C370.717 256.17 370.519 256.272 370.305 256.294C370.092 256.315 369.878 256.253 369.707 256.121L366.35 252.975C361.299 248.263 357.645 244.728 355.629 244.728C353.808 244.728 349.169 248.439 346.832 252.645C346.66 252.963 346.489 253.281 346.34 253.611C345.842 254.592 345.59 255.686 345.607 256.792C346.336 255.498 347.176 254.271 348.115 253.128C349.65 251.302 351.024 250.36 352.216 250.348C356.099 250.348 361.253 254.66 366.236 258.878C367.29 259.773 368.332 260.657 369.352 261.481C369.531 261.627 369.647 261.839 369.673 262.072C369.7 262.305 369.636 262.54 369.495 262.724C369.353 262.909 369.147 263.028 368.92 263.055C368.693 263.083 368.465 263.017 368.286 262.871C367.267 262.047 366.213 261.151 365.148 260.256C360.646 256.451 355.549 252.139 352.296 252.139C352.055 252.139 351.15 252.315 349.478 254.306C346.889 257.393 344.896 261.882 345.114 263.402C345.14 263.912 345.294 264.407 345.561 264.839C345.828 265.27 346.199 265.623 346.637 265.864C348.554 265.869 350.468 265.727 352.365 265.44C352.392 265.205 352.438 264.972 352.502 264.745C350.575 263.886 348.968 262.411 347.92 260.539C347.862 260.435 347.825 260.321 347.811 260.202C347.797 260.083 347.806 259.963 347.839 259.848C347.871 259.734 347.926 259.627 348 259.534C348.073 259.442 348.165 259.366 348.268 259.311C348.371 259.256 348.484 259.223 348.6 259.214C348.716 259.205 348.832 259.221 348.942 259.259C349.052 259.298 349.153 259.36 349.239 259.44C349.326 259.52 349.395 259.617 349.444 259.726C350.311 261.239 351.623 262.431 353.189 263.131C354.07 261.724 355.424 260.7 356.992 260.256C357.215 260.209 357.448 260.255 357.638 260.385C357.828 260.514 357.96 260.716 358.006 260.945C358.051 261.175 358.006 261.414 357.881 261.609C357.755 261.805 357.559 261.941 357.336 261.988C355.927 262.282 353.9 264.273 354.071 266.088C354.098 266.313 354.039 266.541 353.907 266.723C353.775 266.905 353.579 267.028 353.361 267.066C351.067 267.455 348.745 267.644 346.42 267.631C346.328 267.631 336.638 267.478 336.111 275.548C336.096 275.772 335.999 275.982 335.84 276.135C335.68 276.289 335.47 276.373 335.252 276.373C335.139 276.365 335.028 276.335 334.927 276.284C334.826 276.232 334.735 276.161 334.66 276.073C334.586 275.985 334.529 275.884 334.493 275.773C334.457 275.663 334.442 275.547 334.45 275.43C334.851 268.915 340.246 266.547 344.312 266.005C343.852 265.3 343.561 264.493 343.465 263.649C343.45 262.003 343.844 260.381 344.61 258.936C343.9 257.758 343.465 255.826 344.885 252.845C344.954 252.692 345.045 252.539 345.114 252.386C343.087 249.653 344.335 246.613 346.133 243.856C345.682 243.641 345.242 243.401 344.816 243.138C344.715 243.08 344.627 243.001 344.556 242.907C344.485 242.813 344.434 242.706 344.404 242.591C344.375 242.476 344.368 242.356 344.385 242.238C344.402 242.121 344.442 242.008 344.502 241.906C344.562 241.805 344.641 241.717 344.735 241.648C344.829 241.579 344.936 241.53 345.048 241.504C345.161 241.478 345.278 241.476 345.391 241.497C345.505 241.519 345.613 241.564 345.71 241.63C349.238 243.821 352.491 243.409 352.937 242.878C353.116 242.499 353.218 242.086 353.237 241.665C353.257 241.244 353.194 240.823 353.052 240.428C352.893 239.801 352.662 239.196 352.365 238.625C352.273 238.553 352.196 238.463 352.139 238.36C352.082 238.256 352.046 238.142 352.032 238.024C351.447 237.063 350.729 236.194 349.902 235.444C349.335 234.864 348.621 234.46 347.84 234.279C347.06 234.097 346.246 234.146 345.492 234.419C344.529 234.837 343.694 235.514 343.073 236.378C342.452 237.243 342.069 238.263 341.964 239.332C341.219 244.398 339.982 246.813 336.18 250.525C335.641 251.055 335.114 251.538 334.599 252.009C331.506 254.86 329.273 256.934 329.078 263.06C329.078 264.686 329.009 266.005 328.986 267.101C328.986 270.506 328.917 272.061 327.944 274.453C326.581 277.787 321.151 284.243 312.446 290.534C303.885 296.672 294.621 301.701 284.864 305.508C281.095 306.969 275.368 308.96 269.309 311.069C261.462 313.802 253.353 316.63 248.954 318.468C236.022 323.911 228.657 329.472 227.065 334.962C227.013 335.145 226.904 335.307 226.756 335.421C226.607 335.536 226.426 335.598 226.24 335.598C226.16 335.61 226.079 335.61 226 335.598C225.781 335.532 225.596 335.38 225.487 335.175C225.377 334.969 225.352 334.727 225.415 334.502C226.664 330.155 230.799 325.996 237.912 321.896C235.954 316.76 234.335 311.494 233.067 306.133V306.015L232.678 304.495C232.105 302.233 231.532 299.959 231.062 297.803C222.838 298.923 213.285 304.283 210.353 308.854C212.357 325.007 214.087 342.101 215.37 358.984C215.599 361.965 215.851 364.722 216.126 367.314C219.654 369.175 223.044 370.718 225.782 371.967V372.003ZM351.185 245.164C350.018 245.168 348.858 244.981 347.748 244.61C345.664 247.721 345.458 249.464 346.065 250.796C347.471 248.651 349.199 246.751 351.185 245.164ZM183.263 398.322C183.366 401.397 183.435 404.036 183.492 406.11C195.536 402.545 207.306 398.064 218.703 392.703C217.901 389.816 215.061 378.565 213.583 359.149C213.423 357.06 213.255 354.963 213.079 352.858C210.343 353.415 207.578 353.809 204.798 354.036C204.63 354.055 204.461 354.055 204.294 354.036C202.85 353.659 202.621 351.35 202.003 345.153L201.59 340.982C200.743 332.558 198.761 312.848 198.543 304.731C198.303 295.836 200.834 294.976 206.504 294.01C205.909 289.768 205.302 285.61 204.672 281.58C199.816 282.178 195.013 283.167 190.308 284.537C189.599 284.777 188.871 284.951 188.131 285.056C186.986 285.056 186.539 284.043 183.55 270.282C182.335 264.686 180.984 258.501 179.907 254.966L179.128 256.038C177.983 257.617 176.906 259.066 175.932 260.397C176.895 269.174 177.891 283.183 178.819 299.276L179.46 299.146C191.625 296.637 192.369 296.637 192.862 296.896C193.538 297.25 193.675 297.579 194.282 307.146C194.431 309.408 194.58 311.741 194.741 313.744C194.958 316.418 195.371 319.505 195.726 322.226C196.596 328.847 196.608 329.295 195.817 329.754C195.474 329.931 194.832 330.002 188.853 330.332C185.875 330.497 182.542 330.685 180.468 330.886C180.835 338.508 181.179 346.119 181.499 353.47C188.555 352.599 196.619 353.199 198.039 354.378C198.692 354.92 199.105 356.981 200.662 367.337L201.121 370.341C202.85 381.675 202.896 383.431 201.499 383.749C201.144 383.831 199.929 383.855 196.253 383.902C191.797 383.973 185.302 384.067 182.759 384.397C182.977 389.616 183.149 394.34 183.275 398.322H183.263ZM180.434 329.083C182.553 328.883 185.852 328.694 188.807 328.529C191.098 328.4 193.641 328.258 194.729 328.152C194.729 327.092 194.363 324.618 194.076 322.426C193.721 319.681 193.309 316.536 193.08 313.85C192.919 311.835 192.759 309.49 192.622 307.217C192.404 303.918 192.152 299.912 191.911 298.522C189.964 298.734 183.24 300.124 179.838 300.878L178.956 301.055C179.483 309.962 179.976 319.493 180.434 329.071V329.083ZM179.678 350.113C171.855 349.206 156.345 351.22 154.673 352.387C151.947 357.429 151.351 395.707 152.382 400.066C155.491 399.974 158.593 399.699 161.672 399.241C167.571 398.546 174.856 397.698 181.545 397.509C181.156 386.058 180.503 368.81 179.689 350.101L179.678 350.113ZM196.275 382.064C198.12 382.064 200.01 382.064 200.857 381.97C201.018 380.391 200.158 374.736 199.517 370.53L199.059 367.526C198.372 362.966 197.444 356.769 196.974 355.65C195.829 355.002 188.773 354.283 181.683 355.191C182.106 365.075 182.473 374.418 182.828 382.547C185.531 382.217 191.694 382.135 196.275 382.064ZM54.4814 359.95C62.4995 361.859 75.0993 364.368 77.0351 363.485C79.4062 361.847 81.4107 333.866 80.7006 330.756C79.3947 329.472 67.6196 326.373 57.9292 325.054C58.0055 327.496 58.0437 329.974 58.0437 332.488C57.9676 341.76 56.7631 350.986 54.4585 359.95H54.4814ZM57.9178 323.286C65.1111 324.276 81.1931 327.575 82.3042 330.002C83.106 331.746 81.7314 356.475 79.2688 362.99C79.1648 363.421 78.9786 363.826 78.721 364.182C78.4634 364.538 78.1395 364.837 77.7682 365.063C77.0832 365.283 76.3656 365.375 75.6492 365.334C70.2885 365.334 58.2041 362.566 54.0805 361.588C51.3458 371.79 47.7706 381.734 43.3936 391.312C47.3224 392.608 63.118 397.863 80.7006 404.437C101.181 412.083 115.98 417.608 151.89 412.955C161.994 411.585 171.987 409.451 181.786 406.569C181.786 404.614 181.671 402.139 181.579 399.206C174.959 399.394 167.72 400.243 161.844 400.926C156.987 401.503 154.387 401.774 152.921 401.774C152.34 401.839 151.754 401.724 151.237 401.444C149.816 400.419 150.206 383.148 150.355 377.882C150.549 371.037 151.225 354.766 153.241 351.314C154.478 349.194 172.026 347.521 179.586 348.263C178.166 316.206 176.265 280.343 174.443 262.424C168.361 270.965 166.666 274.205 165.578 276.255C165.177 277.021 164.856 277.622 164.432 278.27C163.832 279.203 163.141 280.072 162.37 280.862C164.661 297.638 161.088 331.993 159.14 335.775C157.995 338.049 154.295 338.614 149.209 338.614C146.792 338.614 144.066 338.484 141.191 338.343C138.774 338.225 136.277 338.108 133.769 338.06H131.902C117.607 337.766 114.72 337.624 114.021 336.8C113.855 336.586 113.766 336.32 113.769 336.046C113.85 335.127 117.297 310.504 118.202 304.801C119.107 299.099 120.768 279.943 120.367 274.759C118.156 273.875 115.877 272.921 113.598 271.896C111.263 275.258 108.574 278.344 105.579 281.097C105.543 285.665 105.16 290.222 104.434 294.728C104.045 296.92 103.644 299.924 103.289 302.822C101.983 312.518 101.49 315.24 100.482 315.782C100.323 315.88 100.141 315.932 99.9554 315.935C99.8262 315.936 99.698 315.912 99.5774 315.864C97.8936 315.181 80.2538 312.884 68.8109 311.493C68.6145 311.47 68.432 311.377 68.2943 311.231C68.1566 311.085 68.072 310.895 68.0549 310.692C68.0549 310.527 66.5772 294.069 65.2142 283.194C64.5864 277.389 63.3537 271.669 61.5373 266.135C61.4832 265.987 61.4684 265.827 61.4947 265.672C61.5209 265.516 61.5871 265.371 61.6865 265.251C61.7859 265.13 61.9148 265.04 62.0598 264.988C62.2048 264.936 62.3605 264.926 62.511 264.957C63.4502 265.145 68.1007 265.44 71.6745 265.628L71.1705 265.287L68.4329 263.449C66.4857 262.117 64.5269 260.739 62.5453 259.243H61.5717C56.8869 259.243 49.3956 258.689 46.4175 258.465C53.1282 279.424 56.9756 301.239 57.849 323.286H57.9178ZM68.536 261.493C70.6551 257.959 73.4728 253.729 76.2219 249.712C80.7349 243.043 85.3854 236.163 86.7141 232.193C85.4427 231.651 82.2583 230.473 79.3947 229.4C75.191 227.834 70.4374 226.066 67.5738 224.853C62.6255 222.768 54.8136 218.868 52.6831 217.784C50.2001 220.552 48.0679 223.631 46.3373 226.95C44.7935 229.92 42.9092 232.688 40.7247 235.197C48.5443 245.433 57.9111 254.311 68.4673 261.493H68.536ZM38.2047 235.173C40.5643 241.641 43.1644 248.793 45.6959 256.674C47.7577 256.839 55.0541 257.405 60.1055 257.499C52.1735 251.164 45.0228 243.856 38.8118 235.739C38.5255 235.374 38.262 234.997 37.9756 234.631L38.2047 235.173ZM39.5563 233.795C41.5599 231.452 43.2934 228.878 44.7223 226.125C46.6309 222.462 49.0078 219.078 51.7896 216.064C51.9162 215.93 52.0809 215.841 52.2599 215.809C52.439 215.777 52.6232 215.804 52.7861 215.887C52.8778 215.887 62.4651 220.788 68.1694 223.192C70.9872 224.37 75.7408 226.149 79.9217 227.704C88.2719 230.814 88.2833 230.826 88.4895 231.368C88.5472 231.548 88.5472 231.742 88.4895 231.922C87.4472 236.057 82.6364 243.161 77.5506 250.689C74.8015 254.742 71.9838 258.936 69.8876 262.471L71.9952 263.885C80.9067 269.775 90.8148 276.632 97.1949 283.501V283.277C97.1949 283.029 97.1949 282.77 97.1949 282.499V282.311C97.1949 281.981 97.1949 281.627 97.2751 281.25C97.2751 280.897 97.3323 280.52 97.3781 280.072V279.813C97.4583 278.965 97.5614 278.046 97.6989 277.033V276.691C96.4618 275.195 90.5742 268.208 87.1952 266.477C84.8839 265.329 82.7308 263.871 80.7922 262.141C80.6831 262.036 80.6025 261.904 80.5583 261.757C80.5142 261.61 80.5079 261.454 80.5402 261.305C81.1816 258.241 84.2629 253.906 87.241 249.712C89.1828 247.155 90.9254 244.445 92.4527 241.606C93.3004 239.792 99.2452 227.598 100.551 226.879C101.696 226.255 106.278 226.597 114.193 229.907C116.523 226.139 119.082 222.527 121.856 219.092C115.339 218.797 108.019 219.174 107.939 219.186C107.782 219.191 107.626 219.154 107.487 219.077C107.348 219.001 107.231 218.888 107.149 218.75C103.609 212.553 94.0678 196.094 92.4184 194.41C92.3266 194.315 92.2568 194.2 92.2144 194.074C92.172 193.948 92.158 193.813 92.1734 193.68C92.1888 193.548 92.2333 193.42 92.3035 193.308C92.3737 193.196 92.4678 193.101 92.5787 193.031C95.4406 191.373 98.5604 190.236 101.8 189.674L100.391 188.601C93.0598 183.029 90.8491 181.344 90.746 179.577C90.7544 178.985 90.8629 178.399 91.0668 177.845C91.5937 176.101 92.0977 174.44 88.123 172.72C85.9352 171.766 83.8047 170.894 81.9491 170.128C77.8255 168.432 75.9813 167.654 75.3972 167.065C75.2539 166.904 75.1744 166.694 75.1744 166.476C75.1744 166.258 75.2539 166.048 75.3972 165.887C75.5597 165.724 75.7775 165.633 76.0042 165.633C76.231 165.633 76.4488 165.724 76.6113 165.887C77.9328 166.641 79.312 167.283 80.7349 167.807C83.9078 166.523 91.4562 166.912 96.29 167.336C81.6856 159.089 74.9963 154.86 73.7935 154.082C69.9907 154.082 66.7949 154.082 64.0573 154.082C54.8938 154.082 51.0909 154.011 47.437 155.378C54.5158 154.2 62.7744 155.566 71.4912 159.36C71.6022 159.4 71.704 159.462 71.7906 159.544C71.8771 159.626 71.9464 159.725 71.9943 159.835C72.0421 159.945 72.0674 160.064 72.0687 160.185C72.07 160.306 72.0471 160.426 72.0016 160.537C71.9561 160.649 71.8889 160.749 71.8041 160.833C71.7194 160.916 71.6188 160.981 71.5087 161.023C71.3986 161.065 71.2813 161.084 71.164 161.077C71.0468 161.071 70.932 161.04 70.8269 160.986C67.3109 159.417 63.6445 158.232 59.8879 157.451C71.9379 167.513 89.3715 185.338 89.5548 185.538C89.663 185.647 89.7412 185.784 89.7816 185.934C89.822 186.084 89.823 186.243 89.7846 186.393C89.7463 186.544 89.6698 186.682 89.5631 186.792C89.4563 186.903 89.3231 186.982 89.1768 187.023C77.562 190.251 67.1385 200.984 63.2097 205.037C62.625 205.697 61.9891 206.308 61.3082 206.863C61.0912 207.012 60.8366 207.094 60.5752 207.098C59.0861 207.098 57.1388 204.424 53.4505 198.91C52.3051 197.249 51.0336 195.376 49.7164 193.514C44.7681 186.61 32.9013 174.381 32.7868 174.264C32.6835 174.158 32.6079 174.027 32.5672 173.884C32.5265 173.74 32.5219 173.588 32.554 173.442C32.5861 173.296 32.6536 173.16 32.7505 173.049C32.8473 172.937 32.9701 172.852 33.1075 172.803C37.4716 171.224 42.6948 166.464 47.2881 162.258C49.3404 160.3 51.4931 158.455 53.7369 156.733C48.7475 156.403 43.7671 157.504 39.3502 159.914C31.8131 165.274 26.9221 171.778 24.7458 179.306C25.7881 182.063 37.3456 197.602 44.665 207.016C44.7953 207.188 44.8592 207.403 44.8444 207.621C44.8296 207.838 44.7372 208.042 44.5848 208.194C43.5539 209.184 40.7476 212.907 33.2679 224.558C35.1612 227.77 37.2501 230.855 39.522 233.795H39.5563ZM56.7379 156.968C54.9396 157.64 51.824 160.503 48.5251 163.495C44.2183 167.43 39.3616 171.848 35.009 173.875C37.9184 176.914 46.9215 186.422 51.194 192.383C52.5342 194.245 53.8171 196.142 54.9625 197.815C57.0587 200.901 59.6474 204.707 60.621 205.19C60.9073 204.931 61.5144 204.306 62.0986 203.705C65.9587 199.735 75.9355 189.438 87.4128 185.668C83.1862 181.391 67.0583 165.204 56.7265 156.968H56.7379ZM32.3515 222.885C37.5747 214.733 41.1256 209.572 42.9124 207.57C39.9801 203.764 28.0218 188.118 24.2075 181.839C23.8062 183.778 23.5723 185.749 23.5087 187.73C23.2056 200.066 26.2647 212.244 32.3401 222.885H32.3515Z" fill="black"/>
<path d="M1.10384 175.512C1.16195 175.291 1.30124 175.102 1.49228 174.985C1.68332 174.867 1.91119 174.83 2.12799 174.882C2.34478 174.934 2.53351 175.071 2.65443 175.263C2.77534 175.455 2.81902 175.688 2.77621 175.913C1.51867 181.081 1.35257 186.465 2.28913 191.705C3.2257 196.944 5.24317 201.916 8.20559 206.285C8.34213 206.467 8.40434 206.697 8.37897 206.925C8.3536 207.154 8.24268 207.363 8.06975 207.509C7.89682 207.654 7.67549 207.725 7.45277 207.706C7.23006 207.686 7.0235 207.578 6.87691 207.405C6.4531 206.827 -3.20301 194.339 1.10384 175.512Z" fill="black"/>
<path d="M280.259 391.713C306.261 388.674 319.949 383.808 341.861 350.09C341.923 349.993 342.004 349.91 342.097 349.845C342.191 349.78 342.296 349.735 342.407 349.712C342.517 349.689 342.631 349.689 342.742 349.711C342.853 349.733 342.958 349.778 343.052 349.842C343.146 349.906 343.227 349.989 343.29 350.085C343.353 350.182 343.397 350.29 343.419 350.404C343.442 350.517 343.442 350.634 343.42 350.748C343.399 350.862 343.355 350.971 343.293 351.067C320.98 385.41 307.017 390.358 280.454 393.48H280.351C280.123 393.493 279.9 393.412 279.73 393.255C279.56 393.098 279.458 392.878 279.446 392.644C279.434 392.41 279.513 392.18 279.665 392.005C279.818 391.831 280.031 391.726 280.259 391.713Z" fill="black"/>
<path d="M77.8027 202.881C81.3866 201.223 85.0577 199.771 88.7989 198.534C88.9889 198.486 89.1875 198.489 89.376 198.543C89.5645 198.596 89.7365 198.699 89.8756 198.84C91.7541 200.69 96.7482 222.815 96.187 224.924C96.1511 225.098 96.0706 225.258 95.9537 225.389C95.8368 225.52 95.6879 225.615 95.5226 225.666C95.3933 225.711 95.2581 225.735 95.1217 225.737C94.2626 225.737 92.0978 224.901 84.0682 218.668C83.9308 218.562 70.804 208.348 70.804 207.064C70.804 206.463 70.804 206.027 77.8027 202.881ZM94.5032 223.829C94.1824 219.799 90.3796 202.987 88.8562 200.372C83.4054 202.258 78.0923 204.541 72.9574 207.205C76.2334 210.339 90.895 222.332 94.5032 223.829Z" fill="black"/>
<path d="M91.4678 366.1C93.7586 353.612 94.5833 352.293 95.9693 352.116C96.187 352.116 97.1148 352.116 100.906 352.057C110.539 351.986 130.596 351.845 137.423 350.973C137.57 350.952 137.72 350.97 137.858 351.026C137.996 351.081 138.118 351.173 138.211 351.292C138.305 351.41 138.367 351.552 138.391 351.703C138.416 351.853 138.402 352.008 138.351 352.151C136.827 357.101 135.615 362.146 134.72 367.255C134.158 371.638 130.035 393.716 129.405 394.694C129.29 394.871 129.116 395 128.916 395.057C128.716 395.113 128.503 395.093 128.317 395C125.533 393.645 118.97 393.575 114.17 393.528C112.303 393.528 110.734 393.528 109.589 393.41L107.389 393.233C88.6958 391.76 88.4896 391.548 88.1231 391.171C87.7565 390.794 87.516 390.547 88.7072 382.441C89.4403 377.587 90.4369 371.638 91.4678 366.1ZM107.504 391.442L109.703 391.619C110.734 391.701 112.315 391.713 114.136 391.737C118.649 391.737 124.674 391.843 128.076 392.997C129.027 389.027 132.314 372.144 132.967 366.996C133.764 362.213 134.87 357.49 136.277 352.858C128.397 353.624 109.932 353.754 100.872 353.812C98.5809 353.812 96.6337 353.812 96.187 353.812C95.5799 354.425 94.5375 358.655 93.1057 366.371C91.0898 377.222 89.6007 387.319 89.5091 389.746C92.1092 390.217 103.174 391.089 107.55 391.442H107.504Z" fill="black"/>
</svg>
