<svg width="49" height="38" viewBox="0 0 49 38" fill="none" xmlns="http://www.w3.org/2000/svg">
<path d="M2.97094 16.5002C1.59032 16.5162 0.484117 17.6484 0.500169 19.0291C0.516221 20.4097 1.64845 21.5159 3.02906 21.4998L2.97094 16.5002ZM47.7931 20.2471C48.758 19.2595 48.7396 17.6767 47.752 16.7118L31.6582 0.987939C30.6706 0.0230445 29.0878 0.0414471 28.1229 1.02904C27.158 2.01664 27.1764 3.59944 28.164 4.56434L42.4696 18.5411L28.4929 32.8467C27.528 33.8343 27.5464 35.4171 28.534 36.382C29.5216 37.3469 31.1044 37.3285 32.0693 36.3409L47.7931 20.2471ZM3.02906 21.4998L46.034 20.9998L45.9759 16.0002L2.97094 16.5002L3.02906 21.4998Z" fill="#EB4138"/>
</svg>
