<svg width="38" height="38" viewBox="0 0 38 38" fill="none" xmlns="http://www.w3.org/2000/svg">
<rect width="38" height="38" rx="19" fill="#FAC348"/>
<path d="M26.7143 10.9999H11.2817C10.5746 10.9999 10 11.5482 10 12.2213V26.7196C10 27.3927 10.5746 27.9411 11.2817 27.9411H26.7143C27.4214 27.9411 28 27.3927 28 26.7196V12.2213C28 11.5482 27.4214 10.9999 26.7143 10.9999ZM15.4402 25.5209H12.7723V17.436H15.4442V25.5209H15.4402ZM14.1063 16.3318C13.2504 16.3318 12.5594 15.6776 12.5594 14.8759C12.5594 14.0742 13.2504 13.42 14.1063 13.42C14.958 13.42 15.6531 14.0742 15.6531 14.8759C15.6531 15.6814 14.9621 16.3318 14.1063 16.3318ZM25.4406 25.5209H22.7728V21.5881C22.7728 20.6503 22.7527 19.444 21.3866 19.444C19.9964 19.444 19.7835 20.465 19.7835 21.52V25.5209H17.1156V17.436H19.675V18.5402H19.7112C20.0688 17.9049 20.9406 17.2356 22.2384 17.2356C24.9384 17.2356 25.4406 18.9108 25.4406 21.089V25.5209Z" fill="#F06292"/>
</svg>
