<svg width="24" height="24" viewBox="0 0 24 24" fill="none" xmlns="http://www.w3.org/2000/svg">
<path d="M20.1731 15.1211C19.3332 14.2946 18.2413 14.2946 17.3664 15.1211C16.7084 15.7427 16.0575 16.3577 15.3995 16.9793C15.2176 17.1512 15.0706 17.1842 14.8536 17.0851C14.4546 16.847 13.9787 16.6751 13.5797 16.4304C11.6829 15.2931 10.08 13.8449 8.65917 12.1984C7.96624 11.3718 7.3503 10.5122 6.90934 9.51365C6.83934 9.30867 6.83934 9.20286 7.02133 9.03094C7.71426 8.44242 8.3302 7.82745 8.98814 7.20586C9.89806 6.34623 9.89806 5.34773 8.98814 4.48809C8.44219 3.97231 7.93124 3.48959 7.42029 3.00688C6.87434 2.49109 6.36339 1.97531 5.81744 1.49259C4.97752 0.699083 3.88562 0.699083 3.0107 1.49259C2.35276 2.11418 1.70182 2.72915 1.04388 3.35073C0.420938 3.93925 0.098968 4.62696 0.0219751 5.41385C-0.0900145 6.69008 0.238955 7.92664 0.714911 9.13013C1.70182 11.6429 3.19268 13.8118 4.97752 15.8419C7.42029 18.5993 10.332 20.7683 13.7267 22.3156C15.2596 23.0033 16.8274 23.5522 18.5003 23.658C19.7042 23.7241 20.7261 23.4199 21.559 22.5537C22.1049 21.9321 22.7629 21.4163 23.3438 20.8344C24.2187 19.9748 24.2187 18.9432 23.3438 18.1166C22.2869 17.1181 21.23 16.1196 20.1731 15.1211Z" fill="#FAC348"/>
</svg>
