<svg width="152" height="38" viewBox="0 0 152 38" fill="none" xmlns="http://www.w3.org/2000/svg">
<rect width="38" height="38" rx="19" fill="#FAC348"/>
<path d="M22.8822 19.8018L23.375 16.6481H20.2932V14.6016C20.2932 13.7388 20.7237 12.8978 22.104 12.8978H23.505V10.2128C23.505 10.2128 22.2336 9.99976 21.018 9.99976C18.4801 9.99976 16.8211 11.5102 16.8211 14.2446V16.6481H14V19.8018H16.8211V27.4256H20.2932V19.8018H22.8822Z" fill="#F06292"/>
<rect x="57" width="40.0541" height="38" rx="19" fill="#FAC348"/>
<path d="M84.0203 14.8478C84.0319 15.0167 84.0319 15.1856 84.0319 15.3545C84.0319 20.505 80.2442 26.4396 73.3213 26.4396C71.1884 26.4396 69.2072 25.8003 67.5405 24.6906C67.8436 24.7268 68.1349 24.7388 68.4496 24.7388C70.2094 24.7388 71.8294 24.1237 73.1231 23.0743C71.4682 23.0381 70.0812 21.9163 69.6034 20.3723C69.8365 20.4085 70.0696 20.4326 70.3144 20.4326C70.6523 20.4326 70.9903 20.3844 71.305 20.3C69.5801 19.9381 68.2864 18.37 68.2864 16.4762V16.428C68.7875 16.7175 69.3703 16.8984 69.988 16.9225C68.974 16.2229 68.3097 15.0288 68.3097 13.6778C68.3097 12.9541 68.4962 12.2906 68.8225 11.7117C70.6756 14.0758 73.4611 15.6198 76.5845 15.7887C76.5263 15.4992 76.4913 15.1977 76.4913 14.8961C76.4913 12.749 78.1696 11 80.2558 11C81.3396 11 82.3186 11.4704 83.0063 12.2303C83.857 12.0615 84.6729 11.7358 85.3955 11.2895C85.1157 12.1942 84.5214 12.9541 83.7405 13.4366C84.4981 13.3522 85.2323 13.135 85.9083 12.8335C85.3956 13.6054 84.7545 14.2929 84.0203 14.8478Z" fill="#F06292"/>
<rect x="114" width="38" height="38" rx="19" fill="#FAC348"/>
<path d="M140.714 11H125.282C124.575 11 124 11.5483 124 12.2214V26.7197C124 27.3929 124.575 27.9412 125.282 27.9412H140.714C141.421 27.9412 142 27.3929 142 26.7197V12.2214C142 11.5483 141.421 11 140.714 11ZM129.44 25.521H126.772V17.4361H129.444V25.521H129.44ZM128.106 16.3319C127.25 16.3319 126.559 15.6777 126.559 14.8761C126.559 14.0744 127.25 13.4202 128.106 13.4202C128.958 13.4202 129.653 14.0744 129.653 14.8761C129.653 15.6815 128.962 16.3319 128.106 16.3319ZM139.441 25.521H136.773V21.5882C136.773 20.6504 136.753 19.4441 135.387 19.4441C133.996 19.4441 133.783 20.4651 133.783 21.5202V25.521H131.116V17.4361H133.675V18.5403H133.711C134.069 17.905 134.941 17.2357 136.238 17.2357C138.938 17.2357 139.441 18.9109 139.441 21.0891V25.521Z" fill="#F06292"/>
</svg>
