<svg width="41" height="38" viewBox="0 0 41 38" fill="none" xmlns="http://www.w3.org/2000/svg">
<rect width="40.0541" height="38" rx="19" fill="#FAC348"/>
<path d="M27.0203 14.8477C27.0319 15.0166 27.0319 15.1855 27.0319 15.3543C27.0319 20.5049 23.2442 26.4395 16.3213 26.4395C14.1884 26.4395 12.2072 25.8002 10.5405 24.6905C10.8436 24.7267 11.1349 24.7387 11.4496 24.7387C13.2094 24.7387 14.8294 24.1236 16.1231 23.0742C14.4682 23.038 13.0812 21.9162 12.6034 20.3722C12.8365 20.4084 13.0696 20.4325 13.3144 20.4325C13.6523 20.4325 13.9903 20.3842 14.305 20.2998C12.5801 19.9379 11.2864 18.3699 11.2864 16.4761V16.4279C11.7875 16.7174 12.3703 16.8983 12.988 16.9224C11.974 16.2228 11.3097 15.0286 11.3097 13.6777C11.3097 12.9539 11.4962 12.2905 11.8225 11.7115C13.6756 14.0757 16.4611 15.6197 19.5845 15.7886C19.5263 15.4991 19.4913 15.1975 19.4913 14.896C19.4913 12.7489 21.1696 10.9999 23.2558 10.9999C24.3396 10.9999 25.3186 11.4703 26.0063 12.2302C26.857 12.0614 27.6729 11.7357 28.3955 11.2894C28.1157 12.1941 27.5214 12.954 26.7405 13.4364C27.4981 13.352 28.2323 13.1349 28.9083 12.8333C28.3956 13.6053 27.7545 14.2928 27.0203 14.8477Z" fill="#F06292"/>
</svg>
